# Tiled2Unity generated file. Do not modify by hand.
# Wavefront file for 'mapbig_mesh_0006.obj'

# Vertices (Count = 636)
v -90 -61 0
v -91 -61 0
v -91 -60 0
v -90 -60 0
v -91 -61 0
v -92 -61 0
v -92 -60 0
v -91 -60 0
v -92 -61 0
v -93 -61 0
v -93 -60 0
v -92 -60 0
v -90 -62 0
v -91 -62 0
v -91 -61 0
v -90 -61 0
v -91 -62 0
v -92 -62 0
v -92 -61 0
v -91 -61 0
v -92 -62 0
v -93 -62 0
v -93 -61 0
v -92 -61 0
v -79 -63 0
v -80 -63 0
v -80 -62 0
v -79 -62 0
v -80 -63 0
v -81 -63 0
v -81 -62 0
v -80 -62 0
v -81 -63 0
v -82 -63 0
v -82 -62 0
v -81 -62 0
v -82 -63 0
v -83 -63 0
v -83 -62 0
v -82 -62 0
v -86 -63 0
v -87 -63 0
v -87 -62 0
v -86 -62 0
v -79 -64 0
v -80 -64 0
v -80 -63 0
v -79 -63 0
v -80 -64 0
v -81 -64 0
v -81 -63 0
v -80 -63 0
v -81 -64 0
v -82 -64 0
v -82 -63 0
v -81 -63 0
v -82 -64 0
v -83 -64 0
v -83 -63 0
v -82 -63 0
v -83 -64 0
v -84 -64 0
v -84 -63 0
v -83 -63 0
v -84 -64 0
v -85 -64 0
v -85 -63 0
v -84 -63 0
v -85 -64 0
v -86 -64 0
v -86 -63 0
v -85 -63 0
v -86 -64 0
v -87 -64 0
v -87 -63 0
v -86 -63 0
v -93 -64 0
v -94 -64 0
v -94 -63 0
v -93 -63 0
v -94 -64 0
v -95 -64 0
v -95 -63 0
v -94 -63 0
v -95 -64 0
v -96 -64 0
v -96 -63 0
v -95 -63 0
v -96 -64 0
v -97 -64 0
v -97 -63 0
v -96 -63 0
v -97 -64 0
v -98 -64 0
v -98 -63 0
v -97 -63 0
v -79 -65 0
v -80 -65 0
v -80 -64 0
v -79 -64 0
v -80 -65 0
v -81 -65 0
v -81 -64 0
v -80 -64 0
v -81 -65 0
v -82 -65 0
v -82 -64 0
v -81 -64 0
v -82 -65 0
v -83 -65 0
v -83 -64 0
v -82 -64 0
v -83 -65 0
v -84 -65 0
v -84 -64 0
v -83 -64 0
v -84 -65 0
v -85 -65 0
v -85 -64 0
v -84 -64 0
v -85 -65 0
v -86 -65 0
v -86 -64 0
v -85 -64 0
v -86 -65 0
v -87 -65 0
v -87 -64 0
v -86 -64 0
v -93 -65 0
v -94 -65 0
v -94 -64 0
v -93 -64 0
v -94 -65 0
v -95 -65 0
v -95 -64 0
v -94 -64 0
v -95 -65 0
v -96 -65 0
v -96 -64 0
v -95 -64 0
v -96 -65 0
v -97 -65 0
v -97 -64 0
v -96 -64 0
v -97 -65 0
v -98 -65 0
v -98 -64 0
v -97 -64 0
v -79 -66 0
v -80 -66 0
v -80 -65 0
v -79 -65 0
v -80 -66 0
v -81 -66 0
v -81 -65 0
v -80 -65 0
v -81 -66 0
v -82 -66 0
v -82 -65 0
v -81 -65 0
v -82 -66 0
v -83 -66 0
v -83 -65 0
v -82 -65 0
v -83 -66 0
v -84 -66 0
v -84 -65 0
v -83 -65 0
v -84 -66 0
v -85 -66 0
v -85 -65 0
v -84 -65 0
v -85 -66 0
v -86 -66 0
v -86 -65 0
v -85 -65 0
v -86 -66 0
v -87 -66 0
v -87 -65 0
v -86 -65 0
v -90 -66 0
v -91 -66 0
v -91 -65 0
v -90 -65 0
v -91 -66 0
v -92 -66 0
v -92 -65 0
v -91 -65 0
v -92 -66 0
v -93 -66 0
v -93 -65 0
v -92 -65 0
v -93 -66 0
v -94 -66 0
v -94 -65 0
v -93 -65 0
v -94 -66 0
v -95 -66 0
v -95 -65 0
v -94 -65 0
v -95 -66 0
v -96 -66 0
v -96 -65 0
v -95 -65 0
v -96 -66 0
v -97 -66 0
v -97 -65 0
v -96 -65 0
v -97 -66 0
v -98 -66 0
v -98 -65 0
v -97 -65 0
v -98 -66 0
v -99 -66 0
v -99 -65 0
v -98 -65 0
v -99 -66 0
v -100 -66 0
v -100 -65 0
v -99 -65 0
v -79 -67 0
v -80 -67 0
v -80 -66 0
v -79 -66 0
v -80 -67 0
v -81 -67 0
v -81 -66 0
v -80 -66 0
v -81 -67 0
v -82 -67 0
v -82 -66 0
v -81 -66 0
v -82 -67 0
v -83 -67 0
v -83 -66 0
v -82 -66 0
v -83 -67 0
v -84 -67 0
v -84 -66 0
v -83 -66 0
v -84 -67 0
v -85 -67 0
v -85 -66 0
v -84 -66 0
v -85 -67 0
v -86 -67 0
v -86 -66 0
v -85 -66 0
v -86 -67 0
v -87 -67 0
v -87 -66 0
v -86 -66 0
v -90 -67 0
v -91 -67 0
v -91 -66 0
v -90 -66 0
v -91 -67 0
v -92 -67 0
v -92 -66 0
v -91 -66 0
v -92 -67 0
v -93 -67 0
v -93 -66 0
v -92 -66 0
v -93 -67 0
v -94 -67 0
v -94 -66 0
v -93 -66 0
v -94 -67 0
v -95 -67 0
v -95 -66 0
v -94 -66 0
v -95 -67 0
v -96 -67 0
v -96 -66 0
v -95 -66 0
v -96 -67 0
v -97 -67 0
v -97 -66 0
v -96 -66 0
v -97 -67 0
v -98 -67 0
v -98 -66 0
v -97 -66 0
v -98 -67 0
v -99 -67 0
v -99 -66 0
v -98 -66 0
v -99 -67 0
v -100 -67 0
v -100 -66 0
v -99 -66 0
v -79 -68 0
v -80 -68 0
v -80 -67 0
v -79 -67 0
v -80 -68 0
v -81 -68 0
v -81 -67 0
v -80 -67 0
v -81 -68 0
v -82 -68 0
v -82 -67 0
v -81 -67 0
v -82 -68 0
v -83 -68 0
v -83 -67 0
v -82 -67 0
v -83 -68 0
v -84 -68 0
v -84 -67 0
v -83 -67 0
v -84 -68 0
v -85 -68 0
v -85 -67 0
v -84 -67 0
v -85 -68 0
v -86 -68 0
v -86 -67 0
v -85 -67 0
v -86 -68 0
v -87 -68 0
v -87 -67 0
v -86 -67 0
v -90 -68 0
v -91 -68 0
v -91 -67 0
v -90 -67 0
v -91 -68 0
v -92 -68 0
v -92 -67 0
v -91 -67 0
v -92 -68 0
v -93 -68 0
v -93 -67 0
v -92 -67 0
v -93 -68 0
v -94 -68 0
v -94 -67 0
v -93 -67 0
v -94 -68 0
v -95 -68 0
v -95 -67 0
v -94 -67 0
v -95 -68 0
v -96 -68 0
v -96 -67 0
v -95 -67 0
v -96 -68 0
v -97 -68 0
v -97 -67 0
v -96 -67 0
v -97 -68 0
v -98 -68 0
v -98 -67 0
v -97 -67 0
v -98 -68 0
v -99 -68 0
v -99 -67 0
v -98 -67 0
v -99 -68 0
v -100 -68 0
v -100 -67 0
v -99 -67 0
v -79 -69 0
v -80 -69 0
v -80 -68 0
v -79 -68 0
v -80 -69 0
v -81 -69 0
v -81 -68 0
v -80 -68 0
v -81 -69 0
v -82 -69 0
v -82 -68 0
v -81 -68 0
v -82 -69 0
v -83 -69 0
v -83 -68 0
v -82 -68 0
v -83 -69 0
v -84 -69 0
v -84 -68 0
v -83 -68 0
v -84 -69 0
v -85 -69 0
v -85 -68 0
v -84 -68 0
v -85 -69 0
v -86 -69 0
v -86 -68 0
v -85 -68 0
v -86 -69 0
v -87 -69 0
v -87 -68 0
v -86 -68 0
v -90 -69 0
v -91 -69 0
v -91 -68 0
v -90 -68 0
v -91 -69 0
v -92 -69 0
v -92 -68 0
v -91 -68 0
v -92 -69 0
v -93 -69 0
v -93 -68 0
v -92 -68 0
v -93 -69 0
v -94 -69 0
v -94 -68 0
v -93 -68 0
v -94 -69 0
v -95 -69 0
v -95 -68 0
v -94 -68 0
v -95 -69 0
v -96 -69 0
v -96 -68 0
v -95 -68 0
v -96 -69 0
v -97 -69 0
v -97 -68 0
v -96 -68 0
v -97 -69 0
v -98 -69 0
v -98 -68 0
v -97 -68 0
v -98 -69 0
v -99 -69 0
v -99 -68 0
v -98 -68 0
v -99 -69 0
v -100 -69 0
v -100 -68 0
v -99 -68 0
v -79 -70 0
v -80 -70 0
v -80 -69 0
v -79 -69 0
v -80 -70 0
v -81 -70 0
v -81 -69 0
v -80 -69 0
v -81 -70 0
v -82 -70 0
v -82 -69 0
v -81 -69 0
v -82 -70 0
v -83 -70 0
v -83 -69 0
v -82 -69 0
v -83 -70 0
v -84 -70 0
v -84 -69 0
v -83 -69 0
v -84 -70 0
v -85 -70 0
v -85 -69 0
v -84 -69 0
v -85 -70 0
v -86 -70 0
v -86 -69 0
v -85 -69 0
v -86 -70 0
v -87 -70 0
v -87 -69 0
v -86 -69 0
v -90 -70 0
v -91 -70 0
v -91 -69 0
v -90 -69 0
v -91 -70 0
v -92 -70 0
v -92 -69 0
v -91 -69 0
v -92 -70 0
v -93 -70 0
v -93 -69 0
v -92 -69 0
v -93 -70 0
v -94 -70 0
v -94 -69 0
v -93 -69 0
v -94 -70 0
v -95 -70 0
v -95 -69 0
v -94 -69 0
v -95 -70 0
v -96 -70 0
v -96 -69 0
v -95 -69 0
v -96 -70 0
v -97 -70 0
v -97 -69 0
v -96 -69 0
v -97 -70 0
v -98 -70 0
v -98 -69 0
v -97 -69 0
v -98 -70 0
v -99 -70 0
v -99 -69 0
v -98 -69 0
v -99 -70 0
v -100 -70 0
v -100 -69 0
v -99 -69 0
v -79 -71 0
v -80 -71 0
v -80 -70 0
v -79 -70 0
v -80 -71 0
v -81 -71 0
v -81 -70 0
v -80 -70 0
v -81 -71 0
v -82 -71 0
v -82 -70 0
v -81 -70 0
v -82 -71 0
v -83 -71 0
v -83 -70 0
v -82 -70 0
v -83 -71 0
v -84 -71 0
v -84 -70 0
v -83 -70 0
v -84 -71 0
v -85 -71 0
v -85 -70 0
v -84 -70 0
v -85 -71 0
v -86 -71 0
v -86 -70 0
v -85 -70 0
v -86 -71 0
v -87 -71 0
v -87 -70 0
v -86 -70 0
v -79 -72 0
v -80 -72 0
v -80 -71 0
v -79 -71 0
v -80 -72 0
v -81 -72 0
v -81 -71 0
v -80 -71 0
v -81 -72 0
v -82 -72 0
v -82 -71 0
v -81 -71 0
v -82 -72 0
v -83 -72 0
v -83 -71 0
v -82 -71 0
v -83 -72 0
v -84 -72 0
v -84 -71 0
v -83 -71 0
v -84 -72 0
v -85 -72 0
v -85 -71 0
v -84 -71 0
v -85 -72 0
v -86 -72 0
v -86 -71 0
v -85 -71 0
v -86 -72 0
v -87 -72 0
v -87 -71 0
v -86 -71 0
v -79 -73 0
v -80 -73 0
v -80 -72 0
v -79 -72 0
v -80 -73 0
v -81 -73 0
v -81 -72 0
v -80 -72 0
v -81 -73 0
v -82 -73 0
v -82 -72 0
v -81 -72 0
v -82 -73 0
v -83 -73 0
v -83 -72 0
v -82 -72 0
v -83 -73 0
v -84 -73 0
v -84 -72 0
v -83 -72 0
v -84 -73 0
v -85 -73 0
v -85 -72 0
v -84 -72 0
v -85 -73 0
v -86 -73 0
v -86 -72 0
v -85 -72 0
v -86 -73 0
v -87 -73 0
v -87 -72 0
v -86 -72 0
v -81 -76 0
v -82 -76 0
v -82 -75 0
v -81 -75 0
v -82 -76 0
v -83 -76 0
v -83 -75 0
v -82 -75 0
v -83 -76 0
v -84 -76 0
v -84 -75 0
v -83 -75 0
v -84 -76 0
v -85 -76 0
v -85 -75 0
v -84 -75 0
v -81 -77 0
v -82 -77 0
v -82 -76 0
v -81 -76 0
v -82 -77 0
v -83 -77 0
v -83 -76 0
v -82 -76 0
v -83 -77 0
v -84 -77 0
v -84 -76 0
v -83 -76 0
v -84 -77 0
v -85 -77 0
v -85 -76 0
v -84 -76 0

# Texture cooridinates (Count = 88)
vt 0.001618123 0.6228572
vt 0.05339806 0.6228572
vt 0.05339806 0.8057142
vt 0.001618123 0.8057142
vt 0.2686084 0.6228572
vt 0.3203883 0.6228572
vt 0.3203883 0.8057142
vt 0.2686084 0.8057142
vt 0.3220065 0.6228572
vt 0.3737864 0.6228572
vt 0.3737864 0.8057142
vt 0.3220065 0.8057142
vt 0.001618123 0.2457143
vt 0.05339806 0.2457143
vt 0.05339806 0.4285714
vt 0.001618123 0.4285714
vt 0.1618123 0.05714285
vt 0.2135922 0.05714285
vt 0.2135922 0.24
vt 0.1618123 0.24
vt 0.2152104 0.05714285
vt 0.2669903 0.05714285
vt 0.2669903 0.24
vt 0.2152104 0.24
vt 0.1618123 0.4342857
vt 0.2135922 0.4342857
vt 0.2135922 0.6171429
vt 0.1618123 0.6171429
vt 0.1084142 0.8114285
vt 0.1601942 0.8114285
vt 0.1601942 0.9942857
vt 0.1084142 0.9942857
vt 0.1618123 0.8114285
vt 0.2135922 0.8114285
vt 0.2135922 0.9942857
vt 0.1618123 0.9942857
vt 0.2152104 0.8114285
vt 0.2669903 0.8114285
vt 0.2669903 0.9942857
vt 0.2152104 0.9942857
vt 0.001618123 0.4342857
vt 0.05339806 0.4342857
vt 0.05339806 0.6171429
vt 0.001618123 0.6171429
vt 0.05501618 0.4342857
vt 0.1067961 0.4342857
vt 0.1067961 0.6171429
vt 0.05501618 0.6171429
vt 0.3220065 0.4342857
vt 0.3737864 0.4342857
vt 0.3737864 0.6171429
vt 0.3220065 0.6171429
vt 0.05501618 0.6228572
vt 0.1067961 0.6228572
vt 0.1067961 0.8057142
vt 0.05501618 0.8057142
vt 0.1084142 0.6228572
vt 0.1601942 0.6228572
vt 0.1601942 0.8057142
vt 0.1084142 0.8057142
vt 0.2152104 0.6228572
vt 0.2669903 0.6228572
vt 0.2669903 0.8057142
vt 0.2152104 0.8057142
vt 0.1084142 0.4342857
vt 0.1601942 0.4342857
vt 0.1601942 0.6171429
vt 0.1084142 0.6171429
vt 0.2152104 0.4342857
vt 0.2669903 0.4342857
vt 0.2669903 0.6171429
vt 0.2152104 0.6171429
vt 0.2686084 0.4342857
vt 0.3203883 0.4342857
vt 0.3203883 0.6171429
vt 0.2686084 0.6171429
vt 0.2686084 0.2457143
vt 0.3203883 0.2457143
vt 0.3203883 0.4285714
vt 0.2686084 0.4285714
vt 0.3220065 0.2457143
vt 0.3737864 0.2457143
vt 0.3737864 0.4285714
vt 0.3220065 0.4285714
vt 0.1084142 0.05714285
vt 0.1601942 0.05714285
vt 0.1601942 0.24
vt 0.1084142 0.24

# Normal
vn 0 0 -1

# Mesh description
g mapbig_mesh_0006

# Faces
f 1/1/1 2/2/1 3/3/1 4/4/1
f 5/5/1 6/6/1 7/7/1 8/8/1
f 9/9/1 10/10/1 11/11/1 12/12/1
f 13/13/1 14/14/1 15/15/1 16/16/1
f 17/17/1 18/18/1 19/19/1 20/20/1
f 21/21/1 22/22/1 23/23/1 24/24/1
f 25/25/1 26/26/1 27/27/1 28/28/1
f 29/25/1 30/26/1 31/27/1 32/28/1
f 33/25/1 34/26/1 35/27/1 36/28/1
f 37/25/1 38/26/1 39/27/1 40/28/1
f 41/25/1 42/26/1 43/27/1 44/28/1
f 45/25/1 46/26/1 47/27/1 48/28/1
f 49/25/1 50/26/1 51/27/1 52/28/1
f 53/25/1 54/26/1 55/27/1 56/28/1
f 57/25/1 58/26/1 59/27/1 60/28/1
f 61/25/1 62/26/1 63/27/1 64/28/1
f 65/25/1 66/26/1 67/27/1 68/28/1
f 69/25/1 70/26/1 71/27/1 72/28/1
f 73/25/1 74/26/1 75/27/1 76/28/1
f 77/29/1 78/30/1 79/31/1 80/32/1
f 81/33/1 82/34/1 83/35/1 84/36/1
f 85/33/1 86/34/1 87/35/1 88/36/1
f 89/33/1 90/34/1 91/35/1 92/36/1
f 93/37/1 94/38/1 95/39/1 96/40/1
f 97/25/1 98/26/1 99/27/1 100/28/1
f 101/25/1 102/26/1 103/27/1 104/28/1
f 105/25/1 106/26/1 107/27/1 108/28/1
f 109/25/1 110/26/1 111/27/1 112/28/1
f 113/25/1 114/26/1 115/27/1 116/28/1
f 117/25/1 118/26/1 119/27/1 120/28/1
f 121/25/1 122/26/1 123/27/1 124/28/1
f 125/25/1 126/26/1 127/27/1 128/28/1
f 129/41/1 130/42/1 131/43/1 132/44/1
f 133/45/1 134/46/1 135/47/1 136/48/1
f 137/45/1 138/46/1 139/47/1 140/48/1
f 141/45/1 142/46/1 143/47/1 144/48/1
f 145/49/1 146/50/1 147/51/1 148/52/1
f 149/25/1 150/26/1 151/27/1 152/28/1
f 153/25/1 154/26/1 155/27/1 156/28/1
f 157/25/1 158/26/1 159/27/1 160/28/1
f 161/25/1 162/26/1 163/27/1 164/28/1
f 165/25/1 166/26/1 167/27/1 168/28/1
f 169/25/1 170/26/1 171/27/1 172/28/1
f 173/25/1 174/26/1 175/27/1 176/28/1
f 177/25/1 178/26/1 179/27/1 180/28/1
f 181/1/1 182/2/1 183/3/1 184/4/1
f 185/53/1 186/54/1 187/55/1 188/56/1
f 189/53/1 190/54/1 191/55/1 192/56/1
f 193/57/1 194/58/1 195/59/1 196/60/1
f 197/45/1 198/46/1 199/47/1 200/48/1
f 201/45/1 202/46/1 203/47/1 204/48/1
f 205/45/1 206/46/1 207/47/1 208/48/1
f 209/61/1 210/62/1 211/63/1 212/64/1
f 213/5/1 214/6/1 215/7/1 216/8/1
f 217/9/1 218/10/1 219/11/1 220/12/1
f 221/25/1 222/26/1 223/27/1 224/28/1
f 225/25/1 226/26/1 227/27/1 228/28/1
f 229/25/1 230/26/1 231/27/1 232/28/1
f 233/25/1 234/26/1 235/27/1 236/28/1
f 237/25/1 238/26/1 239/27/1 240/28/1
f 241/25/1 242/26/1 243/27/1 244/28/1
f 245/25/1 246/26/1 247/27/1 248/28/1
f 249/25/1 250/26/1 251/27/1 252/28/1
f 253/41/1 254/42/1 255/43/1 256/44/1
f 257/45/1 258/46/1 259/47/1 260/48/1
f 261/65/1 262/66/1 263/67/1 264/68/1
f 265/25/1 266/26/1 267/27/1 268/28/1
f 269/45/1 270/46/1 271/47/1 272/48/1
f 273/65/1 274/66/1 275/67/1 276/68/1
f 277/25/1 278/26/1 279/27/1 280/28/1
f 281/69/1 282/70/1 283/71/1 284/72/1
f 285/73/1 286/74/1 287/75/1 288/76/1
f 289/49/1 290/50/1 291/51/1 292/52/1
f 293/25/1 294/26/1 295/27/1 296/28/1
f 297/25/1 298/26/1 299/27/1 300/28/1
f 301/25/1 302/26/1 303/27/1 304/28/1
f 305/25/1 306/26/1 307/27/1 308/28/1
f 309/25/1 310/26/1 311/27/1 312/28/1
f 313/25/1 314/26/1 315/27/1 316/28/1
f 317/25/1 318/26/1 319/27/1 320/28/1
f 321/25/1 322/26/1 323/27/1 324/28/1
f 325/41/1 326/42/1 327/43/1 328/44/1
f 329/45/1 330/46/1 331/47/1 332/48/1
f 333/45/1 334/46/1 335/47/1 336/48/1
f 337/65/1 338/66/1 339/67/1 340/68/1
f 341/25/1 342/26/1 343/27/1 344/28/1
f 345/69/1 346/70/1 347/71/1 348/72/1
f 349/73/1 350/74/1 351/75/1 352/76/1
f 353/45/1 354/46/1 355/47/1 356/48/1
f 357/45/1 358/46/1 359/47/1 360/48/1
f 361/49/1 362/50/1 363/51/1 364/52/1
f 365/25/1 366/26/1 367/27/1 368/28/1
f 369/25/1 370/26/1 371/27/1 372/28/1
f 373/25/1 374/26/1 375/27/1 376/28/1
f 377/25/1 378/26/1 379/27/1 380/28/1
f 381/25/1 382/26/1 383/27/1 384/28/1
f 385/25/1 386/26/1 387/27/1 388/28/1
f 389/25/1 390/26/1 391/27/1 392/28/1
f 393/25/1 394/26/1 395/27/1 396/28/1
f 397/41/1 398/42/1 399/43/1 400/44/1
f 401/45/1 402/46/1 403/47/1 404/48/1
f 405/65/1 406/66/1 407/67/1 408/68/1
f 409/25/1 410/26/1 411/27/1 412/28/1
f 413/69/1 414/70/1 415/71/1 416/72/1
f 417/73/1 418/74/1 419/75/1 420/76/1
f 421/73/1 422/74/1 423/75/1 424/76/1
f 425/45/1 426/46/1 427/47/1 428/48/1
f 429/45/1 430/46/1 431/47/1 432/48/1
f 433/49/1 434/50/1 435/51/1 436/52/1
f 437/25/1 438/26/1 439/27/1 440/28/1
f 441/25/1 442/26/1 443/27/1 444/28/1
f 445/25/1 446/26/1 447/27/1 448/28/1
f 449/25/1 450/26/1 451/27/1 452/28/1
f 453/25/1 454/26/1 455/27/1 456/28/1
f 457/25/1 458/26/1 459/27/1 460/28/1
f 461/25/1 462/26/1 463/27/1 464/28/1
f 465/25/1 466/26/1 467/27/1 468/28/1
f 469/13/1 470/14/1 471/15/1 472/16/1
f 473/77/1 474/78/1 475/79/1 476/80/1
f 477/77/1 478/78/1 479/79/1 480/80/1
f 481/77/1 482/78/1 483/79/1 484/80/1
f 485/77/1 486/78/1 487/79/1 488/80/1
f 489/77/1 490/78/1 491/79/1 492/80/1
f 493/77/1 494/78/1 495/79/1 496/80/1
f 497/77/1 498/78/1 499/79/1 500/80/1
f 501/77/1 502/78/1 503/79/1 504/80/1
f 505/81/1 506/82/1 507/83/1 508/84/1
f 509/25/1 510/26/1 511/27/1 512/28/1
f 513/25/1 514/26/1 515/27/1 516/28/1
f 517/25/1 518/26/1 519/27/1 520/28/1
f 521/25/1 522/26/1 523/27/1 524/28/1
f 525/25/1 526/26/1 527/27/1 528/28/1
f 529/25/1 530/26/1 531/27/1 532/28/1
f 533/25/1 534/26/1 535/27/1 536/28/1
f 537/25/1 538/26/1 539/27/1 540/28/1
f 541/25/1 542/26/1 543/27/1 544/28/1
f 545/25/1 546/26/1 547/27/1 548/28/1
f 549/25/1 550/26/1 551/27/1 552/28/1
f 553/25/1 554/26/1 555/27/1 556/28/1
f 557/25/1 558/26/1 559/27/1 560/28/1
f 561/25/1 562/26/1 563/27/1 564/28/1
f 565/25/1 566/26/1 567/27/1 568/28/1
f 569/25/1 570/26/1 571/27/1 572/28/1
f 573/25/1 574/26/1 575/27/1 576/28/1
f 577/25/1 578/26/1 579/27/1 580/28/1
f 581/25/1 582/26/1 583/27/1 584/28/1
f 585/25/1 586/26/1 587/27/1 588/28/1
f 589/25/1 590/26/1 591/27/1 592/28/1
f 593/25/1 594/26/1 595/27/1 596/28/1
f 597/25/1 598/26/1 599/27/1 600/28/1
f 601/25/1 602/26/1 603/27/1 604/28/1
f 605/29/1 606/30/1 607/31/1 608/32/1
f 609/33/1 610/34/1 611/35/1 612/36/1
f 613/33/1 614/34/1 615/35/1 616/36/1
f 617/37/1 618/38/1 619/39/1 620/40/1
f 621/85/1 622/86/1 623/87/1 624/88/1
f 625/17/1 626/18/1 627/19/1 628/20/1
f 629/17/1 630/18/1 631/19/1 632/20/1
f 633/21/1 634/22/1 635/23/1 636/24/1

