# Tiled2Unity generated file. Do not modify by hand.
# Wavefront file for 'mapbig_mesh_0026.obj'

# Vertices (Count = 100)
v -71 -2 0
v -72 -2 0
v -72 -1 0
v -71 -1 0
v -72 -2 0
v -73 -2 0
v -73 -1 0
v -72 -1 0
v -73 -2 0
v -74 -2 0
v -74 -1 0
v -73 -1 0
v -74 -2 0
v -75 -2 0
v -75 -1 0
v -74 -1 0
v -71 -3 0
v -72 -3 0
v -72 -2 0
v -71 -2 0
v -72 -3 0
v -73 -3 0
v -73 -2 0
v -72 -2 0
v -73 -3 0
v -74 -3 0
v -74 -2 0
v -73 -2 0
v -74 -3 0
v -75 -3 0
v -75 -2 0
v -74 -2 0
v -66 -49 0
v -67 -49 0
v -67 -48 0
v -66 -48 0
v -67 -49 0
v -68 -49 0
v -68 -48 0
v -67 -48 0
v -68 -49 0
v -69 -49 0
v -69 -48 0
v -68 -48 0
v -69 -49 0
v -70 -49 0
v -70 -48 0
v -69 -48 0
v -66 -50 0
v -67 -50 0
v -67 -49 0
v -66 -49 0
v -67 -50 0
v -68 -50 0
v -68 -49 0
v -67 -49 0
v -68 -50 0
v -69 -50 0
v -69 -49 0
v -68 -49 0
v -69 -50 0
v -70 -50 0
v -70 -49 0
v -69 -49 0
v -2 -76 0
v -3 -76 0
v -3 -75 0
v -2 -75 0
v -3 -76 0
v -4 -76 0
v -4 -75 0
v -3 -75 0
v -4 -76 0
v -5 -76 0
v -5 -75 0
v -4 -75 0
v -5 -76 0
v -6 -76 0
v -6 -75 0
v -5 -75 0
v -2 -77 0
v -3 -77 0
v -3 -76 0
v -2 -76 0
v -3 -77 0
v -4 -77 0
v -4 -76 0
v -3 -76 0
v -4 -77 0
v -5 -77 0
v -5 -76 0
v -4 -76 0
v -5 -77 0
v -6 -77 0
v -6 -76 0
v -5 -76 0
v -43 -78 0
v -44 -78 0
v -44 -77 0
v -43 -77 0

# Texture cooridinates (Count = 36)
vt 0.7131011 0.65625
vt 0.7661691 0.65625
vt 0.7661691 0.7395834
vt 0.7131011 0.7395834
vt 0.7678275 0.65625
vt 0.8208955 0.65625
vt 0.8208955 0.7395834
vt 0.7678275 0.7395834
vt 0.7131011 0.484375
vt 0.7661691 0.484375
vt 0.7661691 0.5677084
vt 0.7131011 0.5677084
vt 0.7678275 0.484375
vt 0.8208955 0.484375
vt 0.8208955 0.5677084
vt 0.7678275 0.5677084
vt 0.7131011 0.5703125
vt 0.7661691 0.5703125
vt 0.7661691 0.6536459
vt 0.7131011 0.6536459
vt 0.7678275 0.5703125
vt 0.8208955 0.5703125
vt 0.8208955 0.6536459
vt 0.7678275 0.6536459
vt 0.7131011 0.3984375
vt 0.7661691 0.3984375
vt 0.7661691 0.4817708
vt 0.7131011 0.4817708
vt 0.7678275 0.3984375
vt 0.8208955 0.3984375
vt 0.8208955 0.4817708
vt 0.7678275 0.4817708
vt 0.5489221 0.5703125
vt 0.60199 0.5703125
vt 0.60199 0.6536459
vt 0.5489221 0.6536459

# Normal
vn 0 0 -1

# Mesh description
g mapbig_mesh_0026

# Faces
f 1/1/1 2/2/1 3/3/1 4/4/1
f 5/5/1 6/6/1 7/7/1 8/8/1
f 9/9/1 10/10/1 11/11/1 12/12/1
f 13/13/1 14/14/1 15/15/1 16/16/1
f 17/17/1 18/18/1 19/19/1 20/20/1
f 21/21/1 22/22/1 23/23/1 24/24/1
f 25/25/1 26/26/1 27/27/1 28/28/1
f 29/29/1 30/30/1 31/31/1 32/32/1
f 33/1/1 34/2/1 35/3/1 36/4/1
f 37/5/1 38/6/1 39/7/1 40/8/1
f 41/9/1 42/10/1 43/11/1 44/12/1
f 45/13/1 46/14/1 47/15/1 48/16/1
f 49/17/1 50/18/1 51/19/1 52/20/1
f 53/21/1 54/22/1 55/23/1 56/24/1
f 57/25/1 58/26/1 59/27/1 60/28/1
f 61/29/1 62/30/1 63/31/1 64/32/1
f 65/1/1 66/2/1 67/3/1 68/4/1
f 69/5/1 70/6/1 71/7/1 72/8/1
f 73/9/1 74/10/1 75/11/1 76/12/1
f 77/13/1 78/14/1 79/15/1 80/16/1
f 81/17/1 82/18/1 83/19/1 84/20/1
f 85/21/1 86/22/1 87/23/1 88/24/1
f 89/25/1 90/26/1 91/27/1 92/28/1
f 93/29/1 94/30/1 95/31/1 96/32/1
f 97/33/1 98/34/1 99/35/1 100/36/1

