# Tiled2Unity generated file. Do not modify by hand.
# Wavefront file for 'mapbig_mesh_0010.obj'

# Vertices (Count = 304)
v -24 -47 0
v -25 -47 0
v -25 -46 0
v -24 -46 0
v -25 -47 0
v -26 -47 0
v -26 -46 0
v -25 -46 0
v -26 -47 0
v -27 -47 0
v -27 -46 0
v -26 -46 0
v -21 -48 0
v -22 -48 0
v -22 -47 0
v -21 -47 0
v -22 -48 0
v -23 -48 0
v -23 -47 0
v -22 -47 0
v -23 -48 0
v -24 -48 0
v -24 -47 0
v -23 -47 0
v -24 -48 0
v -25 -48 0
v -25 -47 0
v -24 -47 0
v -25 -48 0
v -26 -48 0
v -26 -47 0
v -25 -47 0
v -26 -48 0
v -27 -48 0
v -27 -47 0
v -26 -47 0
v -21 -49 0
v -22 -49 0
v -22 -48 0
v -21 -48 0
v -22 -49 0
v -23 -49 0
v -23 -48 0
v -22 -48 0
v -23 -49 0
v -24 -49 0
v -24 -48 0
v -23 -48 0
v -20 -50 0
v -21 -50 0
v -21 -49 0
v -20 -49 0
v -21 -50 0
v -22 -50 0
v -22 -49 0
v -21 -49 0
v -22 -50 0
v -23 -50 0
v -23 -49 0
v -22 -49 0
v -23 -50 0
v -24 -50 0
v -24 -49 0
v -23 -49 0
v -24 -50 0
v -25 -50 0
v -25 -49 0
v -24 -49 0
v -25 -50 0
v -26 -50 0
v -26 -49 0
v -25 -49 0
v -20 -51 0
v -21 -51 0
v -21 -50 0
v -20 -50 0
v -21 -51 0
v -22 -51 0
v -22 -50 0
v -21 -50 0
v -22 -51 0
v -23 -51 0
v -23 -50 0
v -22 -50 0
v -23 -51 0
v -24 -51 0
v -24 -50 0
v -23 -50 0
v -24 -51 0
v -25 -51 0
v -25 -50 0
v -24 -50 0
v -25 -51 0
v -26 -51 0
v -26 -50 0
v -25 -50 0
v -19 -52 0
v -20 -52 0
v -20 -51 0
v -19 -51 0
v -20 -52 0
v -21 -52 0
v -21 -51 0
v -20 -51 0
v -21 -52 0
v -22 -52 0
v -22 -51 0
v -21 -51 0
v -22 -52 0
v -23 -52 0
v -23 -51 0
v -22 -51 0
v -23 -52 0
v -24 -52 0
v -24 -51 0
v -23 -51 0
v -19 -53 0
v -20 -53 0
v -20 -52 0
v -19 -52 0
v -20 -53 0
v -21 -53 0
v -21 -52 0
v -20 -52 0
v -21 -53 0
v -22 -53 0
v -22 -52 0
v -21 -52 0
v -22 -53 0
v -23 -53 0
v -23 -52 0
v -22 -52 0
v -23 -53 0
v -24 -53 0
v -24 -52 0
v -23 -52 0
v -18 -54 0
v -19 -54 0
v -19 -53 0
v -18 -53 0
v -19 -54 0
v -20 -54 0
v -20 -53 0
v -19 -53 0
v -20 -54 0
v -21 -54 0
v -21 -53 0
v -20 -53 0
v -21 -54 0
v -22 -54 0
v -22 -53 0
v -21 -53 0
v -22 -54 0
v -23 -54 0
v -23 -53 0
v -22 -53 0
v -23 -54 0
v -24 -54 0
v -24 -53 0
v -23 -53 0
v -18 -55 0
v -19 -55 0
v -19 -54 0
v -18 -54 0
v -19 -55 0
v -20 -55 0
v -20 -54 0
v -19 -54 0
v -20 -55 0
v -21 -55 0
v -21 -54 0
v -20 -54 0
v -21 -55 0
v -22 -55 0
v -22 -54 0
v -21 -54 0
v -22 -55 0
v -23 -55 0
v -23 -54 0
v -22 -54 0
v -23 -55 0
v -24 -55 0
v -24 -54 0
v -23 -54 0
v -18 -56 0
v -19 -56 0
v -19 -55 0
v -18 -55 0
v -19 -56 0
v -20 -56 0
v -20 -55 0
v -19 -55 0
v -20 -56 0
v -21 -56 0
v -21 -55 0
v -20 -55 0
v -21 -56 0
v -22 -56 0
v -22 -55 0
v -21 -55 0
v -22 -56 0
v -23 -56 0
v -23 -55 0
v -22 -55 0
v -18 -57 0
v -19 -57 0
v -19 -56 0
v -18 -56 0
v -19 -57 0
v -20 -57 0
v -20 -56 0
v -19 -56 0
v -20 -57 0
v -21 -57 0
v -21 -56 0
v -20 -56 0
v -21 -57 0
v -22 -57 0
v -22 -56 0
v -21 -56 0
v -22 -57 0
v -23 -57 0
v -23 -56 0
v -22 -56 0
v -16 -58 0
v -17 -58 0
v -17 -57 0
v -16 -57 0
v -17 -58 0
v -18 -58 0
v -18 -57 0
v -17 -57 0
v -18 -58 0
v -19 -58 0
v -19 -57 0
v -18 -57 0
v -19 -58 0
v -20 -58 0
v -20 -57 0
v -19 -57 0
v -20 -58 0
v -21 -58 0
v -21 -57 0
v -20 -57 0
v -16 -59 0
v -17 -59 0
v -17 -58 0
v -16 -58 0
v -17 -59 0
v -18 -59 0
v -18 -58 0
v -17 -58 0
v -18 -59 0
v -19 -59 0
v -19 -58 0
v -18 -58 0
v -19 -59 0
v -20 -59 0
v -20 -58 0
v -19 -58 0
v -20 -59 0
v -21 -59 0
v -21 -58 0
v -20 -58 0
v -16 -60 0
v -17 -60 0
v -17 -59 0
v -16 -59 0
v -17 -60 0
v -18 -60 0
v -18 -59 0
v -17 -59 0
v -18 -60 0
v -19 -60 0
v -19 -59 0
v -18 -59 0
v -19 -60 0
v -20 -60 0
v -20 -59 0
v -19 -59 0
v -20 -60 0
v -21 -60 0
v -21 -59 0
v -20 -59 0
v -16 -61 0
v -17 -61 0
v -17 -60 0
v -16 -60 0
v -17 -61 0
v -18 -61 0
v -18 -60 0
v -17 -60 0
v -18 -61 0
v -19 -61 0
v -19 -60 0
v -18 -60 0
v -19 -61 0
v -20 -61 0
v -20 -60 0
v -19 -60 0
v -20 -61 0
v -21 -61 0
v -21 -60 0
v -20 -60 0

# Texture cooridinates (Count = 64)
vt 0.005464481 0.3529412
vt 0.1803279 0.3529412
vt 0.1803279 0.5620915
vt 0.005464481 0.5620915
vt 0.1857924 0.3529412
vt 0.3606557 0.3529412
vt 0.3606557 0.5620915
vt 0.1857924 0.5620915
vt 0.3661202 0.3529412
vt 0.5409836 0.3529412
vt 0.5409836 0.5620915
vt 0.3661202 0.5620915
vt 0.005464481 0.1372549
vt 0.1803279 0.1372549
vt 0.1803279 0.3464052
vt 0.005464481 0.3464052
vt 0.1857924 0.1372549
vt 0.3606557 0.1372549
vt 0.3606557 0.3464052
vt 0.1857924 0.3464052
vt 0.3661202 0.1372549
vt 0.5409836 0.1372549
vt 0.5409836 0.3464052
vt 0.3661202 0.3464052
vt 0.005464481 0.7843137
vt 0.1803279 0.7843137
vt 0.1803279 0.9934641
vt 0.005464481 0.9934641
vt 0.1857924 0.7843137
vt 0.3606557 0.7843137
vt 0.3606557 0.9934641
vt 0.1857924 0.9934641
vt 0.3661202 0.7843137
vt 0.5409836 0.7843137
vt 0.5409836 0.9934641
vt 0.3661202 0.9934641
vt 0.005464481 0.5686275
vt 0.1803279 0.5686275
vt 0.1803279 0.7777778
vt 0.005464481 0.7777778
vt 0.1857924 0.5686275
vt 0.3606557 0.5686275
vt 0.3606557 0.7777778
vt 0.1857924 0.7777778
vt 0.3661202 0.5686275
vt 0.5409836 0.5686275
vt 0.5409836 0.7777778
vt 0.3661202 0.7777778
vt 0.5464481 0.7843137
vt 0.7213115 0.7843137
vt 0.7213115 0.9934641
vt 0.5464481 0.9934641
vt 0.7267759 0.7843137
vt 0.9016393 0.7843137
vt 0.9016393 0.9934641
vt 0.7267759 0.9934641
vt 0.5464481 0.5686275
vt 0.7213115 0.5686275
vt 0.7213115 0.7777778
vt 0.5464481 0.7777778
vt 0.7267759 0.5686275
vt 0.9016393 0.5686275
vt 0.9016393 0.7777778
vt 0.7267759 0.7777778

# Normal
vn 0 0 -1

# Mesh description
g mapbig_mesh_0010

# Faces
f 1/1/1 2/2/1 3/3/1 4/4/1
f 5/5/1 6/6/1 7/7/1 8/8/1
f 9/9/1 10/10/1 11/11/1 12/12/1
f 13/1/1 14/2/1 15/3/1 16/4/1
f 17/5/1 18/6/1 19/7/1 20/8/1
f 21/9/1 22/10/1 23/11/1 24/12/1
f 25/13/1 26/14/1 27/15/1 28/16/1
f 29/17/1 30/18/1 31/19/1 32/20/1
f 33/21/1 34/22/1 35/23/1 36/24/1
f 37/13/1 38/14/1 39/15/1 40/16/1
f 41/17/1 42/18/1 43/19/1 44/20/1
f 45/21/1 46/22/1 47/23/1 48/24/1
f 49/25/1 50/26/1 51/27/1 52/28/1
f 53/29/1 54/30/1 55/31/1 56/32/1
f 57/33/1 58/34/1 59/35/1 60/36/1
f 61/1/1 62/2/1 63/3/1 64/4/1
f 65/5/1 66/6/1 67/7/1 68/8/1
f 69/9/1 70/10/1 71/11/1 72/12/1
f 73/37/1 74/38/1 75/39/1 76/40/1
f 77/41/1 78/42/1 79/43/1 80/44/1
f 81/45/1 82/46/1 83/47/1 84/48/1
f 85/13/1 86/14/1 87/15/1 88/16/1
f 89/17/1 90/18/1 91/19/1 92/20/1
f 93/21/1 94/22/1 95/23/1 96/24/1
f 97/49/1 98/50/1 99/51/1 100/52/1
f 101/53/1 102/54/1 103/55/1 104/56/1
f 105/25/1 106/26/1 107/27/1 108/28/1
f 109/29/1 110/30/1 111/31/1 112/32/1
f 113/33/1 114/34/1 115/35/1 116/36/1
f 117/57/1 118/58/1 119/59/1 120/60/1
f 121/61/1 122/62/1 123/63/1 124/64/1
f 125/37/1 126/38/1 127/39/1 128/40/1
f 129/41/1 130/42/1 131/43/1 132/44/1
f 133/45/1 134/46/1 135/47/1 136/48/1
f 137/25/1 138/26/1 139/27/1 140/28/1
f 141/29/1 142/30/1 143/31/1 144/32/1
f 145/33/1 146/34/1 147/35/1 148/36/1
f 149/1/1 150/2/1 151/3/1 152/4/1
f 153/5/1 154/6/1 155/7/1 156/8/1
f 157/9/1 158/10/1 159/11/1 160/12/1
f 161/37/1 162/38/1 163/39/1 164/40/1
f 165/41/1 166/42/1 167/43/1 168/44/1
f 169/45/1 170/46/1 171/47/1 172/48/1
f 173/13/1 174/14/1 175/15/1 176/16/1
f 177/17/1 178/18/1 179/19/1 180/20/1
f 181/21/1 182/22/1 183/23/1 184/24/1
f 185/49/1 186/50/1 187/51/1 188/52/1
f 189/53/1 190/54/1 191/55/1 192/56/1
f 193/25/1 194/26/1 195/27/1 196/28/1
f 197/29/1 198/30/1 199/31/1 200/32/1
f 201/33/1 202/34/1 203/35/1 204/36/1
f 205/57/1 206/58/1 207/59/1 208/60/1
f 209/61/1 210/62/1 211/63/1 212/64/1
f 213/37/1 214/38/1 215/39/1 216/40/1
f 217/41/1 218/42/1 219/43/1 220/44/1
f 221/45/1 222/46/1 223/47/1 224/48/1
f 225/1/1 226/2/1 227/3/1 228/4/1
f 229/5/1 230/6/1 231/7/1 232/8/1
f 233/9/1 234/10/1 235/11/1 236/12/1
f 237/49/1 238/50/1 239/51/1 240/52/1
f 241/53/1 242/54/1 243/55/1 244/56/1
f 245/13/1 246/14/1 247/15/1 248/16/1
f 249/17/1 250/18/1 251/19/1 252/20/1
f 253/21/1 254/22/1 255/23/1 256/24/1
f 257/57/1 258/58/1 259/59/1 260/60/1
f 261/61/1 262/62/1 263/63/1 264/64/1
f 265/49/1 266/50/1 267/51/1 268/52/1
f 269/53/1 270/54/1 271/55/1 272/56/1
f 273/25/1 274/26/1 275/27/1 276/28/1
f 277/29/1 278/30/1 279/31/1 280/32/1
f 281/33/1 282/34/1 283/35/1 284/36/1
f 285/57/1 286/58/1 287/59/1 288/60/1
f 289/61/1 290/62/1 291/63/1 292/64/1
f 293/37/1 294/38/1 295/39/1 296/40/1
f 297/41/1 298/42/1 299/43/1 300/44/1
f 301/45/1 302/46/1 303/47/1 304/48/1

