# Tiled2Unity generated file. Do not modify by hand.
# Wavefront file for 'mapbig_mesh_0029.obj'

# Vertices (Count = 80)
v -80 -62 0
v -81 -62 0
v -81 -61 0
v -80 -61 0
v -82 -62 0
v -83 -62 0
v -83 -61 0
v -82 -61 0
v -83 -62 0
v -84 -62 0
v -84 -61 0
v -83 -61 0
v -85 -62 0
v -86 -62 0
v -86 -61 0
v -85 -61 0
v -80 -63 0
v -81 -63 0
v -81 -62 0
v -80 -62 0
v -82 -63 0
v -83 -63 0
v -83 -62 0
v -82 -62 0
v -83 -63 0
v -84 -63 0
v -84 -62 0
v -83 -62 0
v -85 -63 0
v -86 -63 0
v -86 -62 0
v -85 -62 0
v -78 -64 0
v -79 -64 0
v -79 -63 0
v -78 -63 0
v -79 -64 0
v -80 -64 0
v -80 -63 0
v -79 -63 0
v -92 -64 0
v -93 -64 0
v -93 -63 0
v -92 -63 0
v -93 -64 0
v -94 -64 0
v -94 -63 0
v -93 -63 0
v -78 -65 0
v -79 -65 0
v -79 -64 0
v -78 -64 0
v -79 -65 0
v -80 -65 0
v -80 -64 0
v -79 -64 0
v -92 -65 0
v -93 -65 0
v -93 -64 0
v -92 -64 0
v -93 -65 0
v -94 -65 0
v -94 -64 0
v -93 -64 0
v -86 -71 0
v -87 -71 0
v -87 -70 0
v -86 -70 0
v -87 -71 0
v -88 -71 0
v -88 -70 0
v -87 -70 0
v -86 -72 0
v -87 -72 0
v -87 -71 0
v -86 -71 0
v -87 -72 0
v -88 -72 0
v -88 -71 0
v -87 -71 0

# Texture cooridinates (Count = 80)
vt 0.002777778 0.6117647
vt 0.09166667 0.6117647
vt 0.09166667 0.9882353
vt 0.002777778 0.9882353
vt 0.09444445 0.6117647
vt 0.1833333 0.6117647
vt 0.1833333 0.9882353
vt 0.09444445 0.9882353
vt 0.1861111 0.6117647
vt 0.275 0.6117647
vt 0.275 0.9882353
vt 0.1861111 0.9882353
vt 0.2777778 0.6117647
vt 0.3666667 0.6117647
vt 0.3666667 0.9882353
vt 0.2777778 0.9882353
vt 0.002777778 0.2235294
vt 0.09166667 0.2235294
vt 0.09166667 0.6
vt 0.002777778 0.6
vt 0.09444445 0.2235294
vt 0.1833333 0.2235294
vt 0.1833333 0.6
vt 0.09444445 0.6
vt 0.1861111 0.2235294
vt 0.275 0.2235294
vt 0.275 0.6
vt 0.1861111 0.6
vt 0.2777778 0.2235294
vt 0.3666667 0.2235294
vt 0.3666667 0.6
vt 0.2777778 0.6
vt 0.3694444 0.6117647
vt 0.4583333 0.6117647
vt 0.4583333 0.9882353
vt 0.3694444 0.9882353
vt 0.4611111 0.6117647
vt 0.55 0.6117647
vt 0.55 0.9882353
vt 0.4611111 0.9882353
vt 0.7361111 0.6117647
vt 0.825 0.6117647
vt 0.825 0.9882353
vt 0.7361111 0.9882353
vt 0.8277778 0.6117647
vt 0.9166667 0.6117647
vt 0.9166667 0.9882353
vt 0.8277778 0.9882353
vt 0.3694444 0.2235294
vt 0.4583333 0.2235294
vt 0.4583333 0.6
vt 0.3694444 0.6
vt 0.4611111 0.2235294
vt 0.55 0.2235294
vt 0.55 0.6
vt 0.4611111 0.6
vt 0.7361111 0.2235294
vt 0.825 0.2235294
vt 0.825 0.6
vt 0.7361111 0.6
vt 0.8277778 0.2235294
vt 0.9166667 0.2235294
vt 0.9166667 0.6
vt 0.8277778 0.6
vt 0.5527778 0.6117647
vt 0.6416667 0.6117647
vt 0.6416667 0.9882353
vt 0.5527778 0.9882353
vt 0.6444445 0.6117647
vt 0.7333333 0.6117647
vt 0.7333333 0.9882353
vt 0.6444445 0.9882353
vt 0.5527778 0.2235294
vt 0.6416667 0.2235294
vt 0.6416667 0.6
vt 0.5527778 0.6
vt 0.6444445 0.2235294
vt 0.7333333 0.2235294
vt 0.7333333 0.6
vt 0.6444445 0.6

# Normal
vn 0 0 -1

# Mesh description
g mapbig_mesh_0029

# Faces
f 1/1/1 2/2/1 3/3/1 4/4/1
f 5/5/1 6/6/1 7/7/1 8/8/1
f 9/9/1 10/10/1 11/11/1 12/12/1
f 13/13/1 14/14/1 15/15/1 16/16/1
f 17/17/1 18/18/1 19/19/1 20/20/1
f 21/21/1 22/22/1 23/23/1 24/24/1
f 25/25/1 26/26/1 27/27/1 28/28/1
f 29/29/1 30/30/1 31/31/1 32/32/1
f 33/33/1 34/34/1 35/35/1 36/36/1
f 37/37/1 38/38/1 39/39/1 40/40/1
f 41/41/1 42/42/1 43/43/1 44/44/1
f 45/45/1 46/46/1 47/47/1 48/48/1
f 49/49/1 50/50/1 51/51/1 52/52/1
f 53/53/1 54/54/1 55/55/1 56/56/1
f 57/57/1 58/58/1 59/59/1 60/60/1
f 61/61/1 62/62/1 63/63/1 64/64/1
f 65/65/1 66/66/1 67/67/1 68/68/1
f 69/69/1 70/70/1 71/71/1 72/72/1
f 73/73/1 74/74/1 75/75/1 76/76/1
f 77/77/1 78/78/1 79/79/1 80/80/1

