# Tiled2Unity generated file. Do not modify by hand.
# Wavefront file for 'mapbig_mesh_0012.obj'

# Vertices (Count = 636)
v -6 -3 0
v -7 -3 0
v -7 -2 0
v -6 -2 0
v -12 -4 0
v -13 -4 0
v -13 -3 0
v -12 -3 0
v -13 -4 0
v -14 -4 0
v -14 -3 0
v -13 -3 0
v -14 -4 0
v -15 -4 0
v -15 -3 0
v -14 -3 0
v -3 -5 0
v -4 -5 0
v -4 -4 0
v -3 -4 0
v -13 -5 0
v -14 -5 0
v -14 -4 0
v -13 -4 0
v -2 -9 0
v -3 -9 0
v -3 -8 0
v -2 -8 0
v -86 -11 0
v -87 -11 0
v -87 -10 0
v -86 -10 0
v -87 -11 0
v -88 -11 0
v -88 -10 0
v -87 -10 0
v -3 -12 0
v -4 -12 0
v -4 -11 0
v -3 -11 0
v -13 -12 0
v -14 -12 0
v -14 -11 0
v -13 -11 0
v -1 -13 0
v -2 -13 0
v -2 -12 0
v -1 -12 0
v -11 -13 0
v -12 -13 0
v -12 -12 0
v -11 -12 0
v -96 -13 0
v -97 -13 0
v -97 -12 0
v -96 -12 0
v -106 -13 0
v -107 -13 0
v -107 -12 0
v -106 -12 0
v -111 -13 0
v -112 -13 0
v -112 -12 0
v -111 -12 0
v -5 -14 0
v -6 -14 0
v -6 -13 0
v -5 -13 0
v -8 -15 0
v -9 -15 0
v -9 -14 0
v -8 -14 0
v -11 -15 0
v -12 -15 0
v -12 -14 0
v -11 -14 0
v -110 -15 0
v -111 -15 0
v -111 -14 0
v -110 -14 0
v -4 -16 0
v -5 -16 0
v -5 -15 0
v -4 -15 0
v -4 -17 0
v -5 -17 0
v -5 -16 0
v -4 -16 0
v -110 -17 0
v -111 -17 0
v -111 -16 0
v -110 -16 0
v -7 -18 0
v -8 -18 0
v -8 -17 0
v -7 -17 0
v -116 -19 0
v -117 -19 0
v -117 -18 0
v -116 -18 0
v -37 -25 0
v -38 -25 0
v -38 -24 0
v -37 -24 0
v -18 -26 0
v -19 -26 0
v -19 -25 0
v -18 -25 0
v -19 -26 0
v -20 -26 0
v -20 -25 0
v -19 -25 0
v -33 -26 0
v -34 -26 0
v -34 -25 0
v -33 -25 0
v -37 -26 0
v -38 -26 0
v -38 -25 0
v -37 -25 0
v -16 -27 0
v -17 -27 0
v -17 -26 0
v -16 -26 0
v -19 -27 0
v -20 -27 0
v -20 -26 0
v -19 -26 0
v -37 -27 0
v -38 -27 0
v -38 -26 0
v -37 -26 0
v -16 -28 0
v -17 -28 0
v -17 -27 0
v -16 -27 0
v -19 -28 0
v -20 -28 0
v -20 -27 0
v -19 -27 0
v -37 -28 0
v -38 -28 0
v -38 -27 0
v -37 -27 0
v -39 -28 0
v -40 -28 0
v -40 -27 0
v -39 -27 0
v -15 -29 0
v -16 -29 0
v -16 -28 0
v -15 -28 0
v -16 -29 0
v -17 -29 0
v -17 -28 0
v -16 -28 0
v -17 -29 0
v -18 -29 0
v -18 -28 0
v -17 -28 0
v -18 -29 0
v -19 -29 0
v -19 -28 0
v -18 -28 0
v -19 -29 0
v -20 -29 0
v -20 -28 0
v -19 -28 0
v -41 -29 0
v -42 -29 0
v -42 -28 0
v -41 -28 0
v -15 -30 0
v -16 -30 0
v -16 -29 0
v -15 -29 0
v -17 -30 0
v -18 -30 0
v -18 -29 0
v -17 -29 0
v -18 -30 0
v -19 -30 0
v -19 -29 0
v -18 -29 0
v -17 -31 0
v -18 -31 0
v -18 -30 0
v -17 -30 0
v -31 -31 0
v -32 -31 0
v -32 -30 0
v -31 -30 0
v -32 -31 0
v -33 -31 0
v -33 -30 0
v -32 -30 0
v -39 -31 0
v -40 -31 0
v -40 -30 0
v -39 -30 0
v -40 -31 0
v -41 -31 0
v -41 -30 0
v -40 -30 0
v -45 -31 0
v -46 -31 0
v -46 -30 0
v -45 -30 0
v -3 -32 0
v -4 -32 0
v -4 -31 0
v -3 -31 0
v -30 -32 0
v -31 -32 0
v -31 -31 0
v -30 -31 0
v -12 -35 0
v -13 -35 0
v -13 -34 0
v -12 -34 0
v -13 -38 0
v -14 -38 0
v -14 -37 0
v -13 -37 0
v -44 -38 0
v -45 -38 0
v -45 -37 0
v -44 -37 0
v -24 -39 0
v -25 -39 0
v -25 -38 0
v -24 -38 0
v -26 -39 0
v -27 -39 0
v -27 -38 0
v -26 -38 0
v -50 -39 0
v -51 -39 0
v -51 -38 0
v -50 -38 0
v -112 -39 0
v -113 -39 0
v -113 -38 0
v -112 -38 0
v -113 -39 0
v -114 -39 0
v -114 -38 0
v -113 -38 0
v -114 -39 0
v -115 -39 0
v -115 -38 0
v -114 -38 0
v -15 -40 0
v -16 -40 0
v -16 -39 0
v -15 -39 0
v -111 -40 0
v -112 -40 0
v -112 -39 0
v -111 -39 0
v -112 -40 0
v -113 -40 0
v -113 -39 0
v -112 -39 0
v -15 -41 0
v -16 -41 0
v -16 -40 0
v -15 -40 0
v -16 -41 0
v -17 -41 0
v -17 -40 0
v -16 -40 0
v -17 -41 0
v -18 -41 0
v -18 -40 0
v -17 -40 0
v -17 -42 0
v -18 -42 0
v -18 -41 0
v -17 -41 0
v -37 -42 0
v -38 -42 0
v -38 -41 0
v -37 -41 0
v -3 -43 0
v -4 -43 0
v -4 -42 0
v -3 -42 0
v -9 -43 0
v -10 -43 0
v -10 -42 0
v -9 -42 0
v -17 -43 0
v -18 -43 0
v -18 -42 0
v -17 -42 0
v -35 -43 0
v -36 -43 0
v -36 -42 0
v -35 -42 0
v -36 -43 0
v -37 -43 0
v -37 -42 0
v -36 -42 0
v -38 -43 0
v -39 -43 0
v -39 -42 0
v -38 -42 0
v -69 -44 0
v -70 -44 0
v -70 -43 0
v -69 -43 0
v -2 -45 0
v -3 -45 0
v -3 -44 0
v -2 -44 0
v -110 -45 0
v -111 -45 0
v -111 -44 0
v -110 -44 0
v -111 -45 0
v -112 -45 0
v -112 -44 0
v -111 -44 0
v -40 -48 0
v -41 -48 0
v -41 -47 0
v -40 -47 0
v -112 -49 0
v -113 -49 0
v -113 -48 0
v -112 -48 0
v -18 -50 0
v -19 -50 0
v -19 -49 0
v -18 -49 0
v -104 -50 0
v -105 -50 0
v -105 -49 0
v -104 -49 0
v -108 -50 0
v -109 -50 0
v -109 -49 0
v -108 -49 0
v -16 -52 0
v -17 -52 0
v -17 -51 0
v -16 -51 0
v -51 -53 0
v -52 -53 0
v -52 -52 0
v -51 -52 0
v -105 -53 0
v -106 -53 0
v -106 -52 0
v -105 -52 0
v -8 -54 0
v -9 -54 0
v -9 -53 0
v -8 -53 0
v -16 -54 0
v -17 -54 0
v -17 -53 0
v -16 -53 0
v -100 -54 0
v -101 -54 0
v -101 -53 0
v -100 -53 0
v -101 -54 0
v -102 -54 0
v -102 -53 0
v -101 -53 0
v -7 -55 0
v -8 -55 0
v -8 -54 0
v -7 -54 0
v -9 -55 0
v -10 -55 0
v -10 -54 0
v -9 -54 0
v -16 -55 0
v -17 -55 0
v -17 -54 0
v -16 -54 0
v -110 -55 0
v -111 -55 0
v -111 -54 0
v -110 -54 0
v -6 -56 0
v -7 -56 0
v -7 -55 0
v -6 -55 0
v -10 -56 0
v -11 -56 0
v -11 -55 0
v -10 -55 0
v -112 -56 0
v -113 -56 0
v -113 -55 0
v -112 -55 0
v -112 -57 0
v -113 -57 0
v -113 -56 0
v -112 -56 0
v -38 -58 0
v -39 -58 0
v -39 -57 0
v -38 -57 0
v -39 -58 0
v -40 -58 0
v -40 -57 0
v -39 -57 0
v -109 -58 0
v -110 -58 0
v -110 -57 0
v -109 -57 0
v -116 -58 0
v -117 -58 0
v -117 -57 0
v -116 -57 0
v -39 -59 0
v -40 -59 0
v -40 -58 0
v -39 -58 0
v -32 -60 0
v -33 -60 0
v -33 -59 0
v -32 -59 0
v -33 -60 0
v -34 -60 0
v -34 -59 0
v -33 -59 0
v -40 -60 0
v -41 -60 0
v -41 -59 0
v -40 -59 0
v -105 -60 0
v -106 -60 0
v -106 -59 0
v -105 -59 0
v -110 -60 0
v -111 -60 0
v -111 -59 0
v -110 -59 0
v -1 -61 0
v -2 -61 0
v -2 -60 0
v -1 -60 0
v -12 -61 0
v -13 -61 0
v -13 -60 0
v -12 -60 0
v -39 -61 0
v -40 -61 0
v -40 -60 0
v -39 -60 0
v -40 -61 0
v -41 -61 0
v -41 -60 0
v -40 -60 0
v -108 -61 0
v -109 -61 0
v -109 -60 0
v -108 -60 0
v -46 -62 0
v -47 -62 0
v -47 -61 0
v -46 -61 0
v -101 -62 0
v -102 -62 0
v -102 -61 0
v -101 -61 0
v -102 -62 0
v -103 -62 0
v -103 -61 0
v -102 -61 0
v -11 -63 0
v -12 -63 0
v -12 -62 0
v -11 -62 0
v -102 -63 0
v -103 -63 0
v -103 -62 0
v -102 -62 0
v -11 -64 0
v -12 -64 0
v -12 -63 0
v -11 -63 0
v -24 -64 0
v -25 -64 0
v -25 -63 0
v -24 -63 0
v -112 -64 0
v -113 -64 0
v -113 -63 0
v -112 -63 0
v -13 -65 0
v -14 -65 0
v -14 -64 0
v -13 -64 0
v -110 -65 0
v -111 -65 0
v -111 -64 0
v -110 -64 0
v -114 -65 0
v -115 -65 0
v -115 -64 0
v -114 -64 0
v -114 -66 0
v -115 -66 0
v -115 -65 0
v -114 -65 0
v -10 -67 0
v -11 -67 0
v -11 -66 0
v -10 -66 0
v -11 -67 0
v -12 -67 0
v -12 -66 0
v -11 -66 0
v -102 -68 0
v -103 -68 0
v -103 -67 0
v -102 -67 0
v -106 -68 0
v -107 -68 0
v -107 -67 0
v -106 -67 0
v -107 -68 0
v -108 -68 0
v -108 -67 0
v -107 -67 0
v -102 -69 0
v -103 -69 0
v -103 -68 0
v -102 -68 0
v -108 -69 0
v -109 -69 0
v -109 -68 0
v -108 -68 0
v -109 -69 0
v -110 -69 0
v -110 -68 0
v -109 -68 0
v -9 -70 0
v -10 -70 0
v -10 -69 0
v -9 -69 0
v -45 -70 0
v -46 -70 0
v -46 -69 0
v -45 -69 0
v -102 -70 0
v -103 -70 0
v -103 -69 0
v -102 -69 0
v -106 -70 0
v -107 -70 0
v -107 -69 0
v -106 -69 0
v -29 -76 0
v -30 -76 0
v -30 -75 0
v -29 -75 0
v -72 -77 0
v -73 -77 0
v -73 -76 0
v -72 -76 0
v -97 -77 0
v -98 -77 0
v -98 -76 0
v -97 -76 0
v -98 -77 0
v -99 -77 0
v -99 -76 0
v -98 -76 0
v -58 -78 0
v -59 -78 0
v -59 -77 0
v -58 -77 0
v -71 -78 0
v -72 -78 0
v -72 -77 0
v -71 -77 0
v -72 -78 0
v -73 -78 0
v -73 -77 0
v -72 -77 0
v -97 -78 0
v -98 -78 0
v -98 -77 0
v -97 -77 0
v -98 -78 0
v -99 -78 0
v -99 -77 0
v -98 -77 0
v -57 -79 0
v -58 -79 0
v -58 -78 0
v -57 -78 0
v -58 -79 0
v -59 -79 0
v -59 -78 0
v -58 -78 0
v -59 -79 0
v -60 -79 0
v -60 -78 0
v -59 -78 0
v -71 -79 0
v -72 -79 0
v -72 -78 0
v -71 -78 0
v -72 -79 0
v -73 -79 0
v -73 -78 0
v -72 -78 0
v -73 -79 0
v -74 -79 0
v -74 -78 0
v -73 -78 0
v -93 -79 0
v -94 -79 0
v -94 -78 0
v -93 -78 0
v -94 -79 0
v -95 -79 0
v -95 -78 0
v -94 -78 0
v -77 -80 0
v -78 -80 0
v -78 -79 0
v -77 -79 0
v -92 -80 0
v -93 -80 0
v -93 -79 0
v -92 -79 0

# Texture cooridinates (Count = 20)
vt 0.2887931 0.3917051
vt 0.4267241 0.3917051
vt 0.4267241 0.5391705
vt 0.2887931 0.5391705
vt 0.8577586 0.3917051
vt 0.9956896 0.3917051
vt 0.9956896 0.5391705
vt 0.8577586 0.5391705
vt 0.8577586 0.5437788
vt 0.9956896 0.5437788
vt 0.9956896 0.6912442
vt 0.8577586 0.6912442
vt 0.7155172 0.3917051
vt 0.8534483 0.3917051
vt 0.8534483 0.5391705
vt 0.7155172 0.5391705
vt 0.5732759 0.2396314
vt 0.7112069 0.2396314
vt 0.7112069 0.3870968
vt 0.5732759 0.3870968

# Normal
vn 0 0 -1

# Mesh description
g mapbig_mesh_0012

# Faces
f 1/1/1 2/2/1 3/3/1 4/4/1
f 5/5/1 6/6/1 7/7/1 8/8/1
f 9/1/1 10/2/1 11/3/1 12/4/1
f 13/1/1 14/2/1 15/3/1 16/4/1
f 17/1/1 18/2/1 19/3/1 20/4/1
f 21/1/1 22/2/1 23/3/1 24/4/1
f 25/1/1 26/2/1 27/3/1 28/4/1
f 29/9/1 30/10/1 31/11/1 32/12/1
f 33/5/1 34/6/1 35/7/1 36/8/1
f 37/1/1 38/2/1 39/3/1 40/4/1
f 41/5/1 42/6/1 43/7/1 44/8/1
f 45/9/1 46/10/1 47/11/1 48/12/1
f 49/9/1 50/10/1 51/11/1 52/12/1
f 53/5/1 54/6/1 55/7/1 56/8/1
f 57/13/1 58/14/1 59/15/1 60/16/1
f 61/13/1 62/14/1 63/15/1 64/16/1
f 65/1/1 66/2/1 67/3/1 68/4/1
f 69/13/1 70/14/1 71/15/1 72/16/1
f 73/1/1 74/2/1 75/3/1 76/4/1
f 77/9/1 78/10/1 79/11/1 80/12/1
f 81/13/1 82/14/1 83/15/1 84/16/1
f 85/13/1 86/14/1 87/15/1 88/16/1
f 89/17/1 90/18/1 91/19/1 92/20/1
f 93/9/1 94/10/1 95/11/1 96/12/1
f 97/9/1 98/10/1 99/11/1 100/12/1
f 101/1/1 102/2/1 103/3/1 104/4/1
f 105/1/1 106/2/1 107/3/1 108/4/1
f 109/1/1 110/2/1 111/3/1 112/4/1
f 113/1/1 114/2/1 115/3/1 116/4/1
f 117/1/1 118/2/1 119/3/1 120/4/1
f 121/1/1 122/2/1 123/3/1 124/4/1
f 125/1/1 126/2/1 127/3/1 128/4/1
f 129/1/1 130/2/1 131/3/1 132/4/1
f 133/1/1 134/2/1 135/3/1 136/4/1
f 137/1/1 138/2/1 139/3/1 140/4/1
f 141/1/1 142/2/1 143/3/1 144/4/1
f 145/1/1 146/2/1 147/3/1 148/4/1
f 149/1/1 150/2/1 151/3/1 152/4/1
f 153/1/1 154/2/1 155/3/1 156/4/1
f 157/1/1 158/2/1 159/3/1 160/4/1
f 161/1/1 162/2/1 163/3/1 164/4/1
f 165/1/1 166/2/1 167/3/1 168/4/1
f 169/1/1 170/2/1 171/3/1 172/4/1
f 173/1/1 174/2/1 175/3/1 176/4/1
f 177/1/1 178/2/1 179/3/1 180/4/1
f 181/1/1 182/2/1 183/3/1 184/4/1
f 185/1/1 186/2/1 187/3/1 188/4/1
f 189/1/1 190/2/1 191/3/1 192/4/1
f 193/1/1 194/2/1 195/3/1 196/4/1
f 197/1/1 198/2/1 199/3/1 200/4/1
f 201/1/1 202/2/1 203/3/1 204/4/1
f 205/9/1 206/10/1 207/11/1 208/12/1
f 209/9/1 210/10/1 211/11/1 212/12/1
f 213/1/1 214/2/1 215/3/1 216/4/1
f 217/1/1 218/2/1 219/3/1 220/4/1
f 221/1/1 222/2/1 223/3/1 224/4/1
f 225/17/1 226/18/1 227/19/1 228/20/1
f 229/9/1 230/10/1 231/11/1 232/12/1
f 233/13/1 234/14/1 235/15/1 236/16/1
f 237/9/1 238/10/1 239/11/1 240/12/1
f 241/1/1 242/2/1 243/3/1 244/4/1
f 245/1/1 246/2/1 247/3/1 248/4/1
f 249/1/1 250/2/1 251/3/1 252/4/1
f 253/1/1 254/2/1 255/3/1 256/4/1
f 257/1/1 258/2/1 259/3/1 260/4/1
f 261/1/1 262/2/1 263/3/1 264/4/1
f 265/1/1 266/2/1 267/3/1 268/4/1
f 269/1/1 270/2/1 271/3/1 272/4/1
f 273/1/1 274/2/1 275/3/1 276/4/1
f 277/1/1 278/2/1 279/3/1 280/4/1
f 281/1/1 282/2/1 283/3/1 284/4/1
f 285/13/1 286/14/1 287/15/1 288/16/1
f 289/13/1 290/14/1 291/15/1 292/16/1
f 293/1/1 294/2/1 295/3/1 296/4/1
f 297/1/1 298/2/1 299/3/1 300/4/1
f 301/1/1 302/2/1 303/3/1 304/4/1
f 305/13/1 306/14/1 307/15/1 308/16/1
f 309/9/1 310/10/1 311/11/1 312/12/1
f 313/9/1 314/10/1 315/11/1 316/12/1
f 317/1/1 318/2/1 319/3/1 320/4/1
f 321/1/1 322/2/1 323/3/1 324/4/1
f 325/9/1 326/10/1 327/11/1 328/12/1
f 329/1/1 330/2/1 331/3/1 332/4/1
f 333/9/1 334/10/1 335/11/1 336/12/1
f 337/9/1 338/10/1 339/11/1 340/12/1
f 341/13/1 342/14/1 343/15/1 344/16/1
f 345/1/1 346/2/1 347/3/1 348/4/1
f 349/9/1 350/10/1 351/11/1 352/12/1
f 353/13/1 354/14/1 355/15/1 356/16/1
f 357/1/1 358/2/1 359/3/1 360/4/1
f 361/1/1 362/2/1 363/3/1 364/4/1
f 365/1/1 366/2/1 367/3/1 368/4/1
f 369/1/1 370/2/1 371/3/1 372/4/1
f 373/9/1 374/10/1 375/11/1 376/12/1
f 377/1/1 378/2/1 379/3/1 380/4/1
f 381/1/1 382/2/1 383/3/1 384/4/1
f 385/1/1 386/2/1 387/3/1 388/4/1
f 389/1/1 390/2/1 391/3/1 392/4/1
f 393/1/1 394/2/1 395/3/1 396/4/1
f 397/1/1 398/2/1 399/3/1 400/4/1
f 401/17/1 402/18/1 403/19/1 404/20/1
f 405/1/1 406/2/1 407/3/1 408/4/1
f 409/1/1 410/2/1 411/3/1 412/4/1
f 413/13/1 414/14/1 415/15/1 416/16/1
f 417/1/1 418/2/1 419/3/1 420/4/1
f 421/1/1 422/2/1 423/3/1 424/4/1
f 425/1/1 426/2/1 427/3/1 428/4/1
f 429/1/1 430/2/1 431/3/1 432/4/1
f 433/1/1 434/2/1 435/3/1 436/4/1
f 437/1/1 438/2/1 439/3/1 440/4/1
f 441/9/1 442/10/1 443/11/1 444/12/1
f 445/9/1 446/10/1 447/11/1 448/12/1
f 449/1/1 450/2/1 451/3/1 452/4/1
f 453/1/1 454/2/1 455/3/1 456/4/1
f 457/1/1 458/2/1 459/3/1 460/4/1
f 461/1/1 462/2/1 463/3/1 464/4/1
f 465/9/1 466/10/1 467/11/1 468/12/1
f 469/1/1 470/2/1 471/3/1 472/4/1
f 473/1/1 474/2/1 475/3/1 476/4/1
f 477/1/1 478/2/1 479/3/1 480/4/1
f 481/1/1 482/2/1 483/3/1 484/4/1
f 485/1/1 486/2/1 487/3/1 488/4/1
f 489/9/1 490/10/1 491/11/1 492/12/1
f 493/1/1 494/2/1 495/3/1 496/4/1
f 497/1/1 498/2/1 499/3/1 500/4/1
f 501/13/1 502/14/1 503/15/1 504/16/1
f 505/1/1 506/2/1 507/3/1 508/4/1
f 509/9/1 510/10/1 511/11/1 512/12/1
f 513/1/1 514/2/1 515/3/1 516/4/1
f 517/1/1 518/2/1 519/3/1 520/4/1
f 521/1/1 522/2/1 523/3/1 524/4/1
f 525/1/1 526/2/1 527/3/1 528/4/1
f 529/1/1 530/2/1 531/3/1 532/4/1
f 533/1/1 534/2/1 535/3/1 536/4/1
f 537/1/1 538/2/1 539/3/1 540/4/1
f 541/1/1 542/2/1 543/3/1 544/4/1
f 545/13/1 546/14/1 547/15/1 548/16/1
f 549/9/1 550/10/1 551/11/1 552/12/1
f 553/1/1 554/2/1 555/3/1 556/4/1
f 557/9/1 558/10/1 559/11/1 560/12/1
f 561/13/1 562/14/1 563/15/1 564/16/1
f 565/9/1 566/10/1 567/11/1 568/12/1
f 569/1/1 570/2/1 571/3/1 572/4/1
f 573/1/1 574/2/1 575/3/1 576/4/1
f 577/1/1 578/2/1 579/3/1 580/4/1
f 581/1/1 582/2/1 583/3/1 584/4/1
f 585/1/1 586/2/1 587/3/1 588/4/1
f 589/1/1 590/2/1 591/3/1 592/4/1
f 593/1/1 594/2/1 595/3/1 596/4/1
f 597/1/1 598/2/1 599/3/1 600/4/1
f 601/9/1 602/10/1 603/11/1 604/12/1
f 605/1/1 606/2/1 607/3/1 608/4/1
f 609/1/1 610/2/1 611/3/1 612/4/1
f 613/1/1 614/2/1 615/3/1 616/4/1
f 617/1/1 618/2/1 619/3/1 620/4/1
f 621/1/1 622/2/1 623/3/1 624/4/1
f 625/1/1 626/2/1 627/3/1 628/4/1
f 629/9/1 630/10/1 631/11/1 632/12/1
f 633/9/1 634/10/1 635/11/1 636/12/1

