# Tiled2Unity generated file. Do not modify by hand.
# Wavefront file for 'mapbig_mesh_0022.obj'

# Vertices (Count = 12)
v -46 -4 0
v -47 -4 0
v -47 -3 0
v -46 -3 0
v -46 -5 0
v -47 -5 0
v -47 -4 0
v -46 -4 0
v -46 -20 0
v -47 -20 0
v -47 -19 0
v -46 -19 0

# Texture cooridinates (Count = 4)
vt 0.09824047 0.8465116
vt 0.1451613 0.8465116
vt 0.1451613 0.9209302
vt 0.09824047 0.9209302

# Normal
vn 0 0 -1

# Mesh description
g mapbig_mesh_0022

# Faces
f 1/1/1 2/2/1 3/3/1 4/4/1
f 5/1/1 6/2/1 7/3/1 8/4/1
f 9/1/1 10/2/1 11/3/1 12/4/1

