# Tiled2Unity generated file. Do not modify by hand.
# Wavefront file for 'bigmap_mesh_0033.obj'

# Vertices (Count = 532)
v -44 -88 0
v -46 -88 0
v -46 -86 0
v -44 -86 0
v -46 -88 0
v -48 -88 0
v -48 -86 0
v -46 -86 0
v -48 -88 0
v -50 -88 0
v -50 -86 0
v -48 -86 0
v -50 -88 0
v -52 -88 0
v -52 -86 0
v -50 -86 0
v -52 -88 0
v -54 -88 0
v -54 -86 0
v -52 -86 0
v -44 -90 0
v -46 -90 0
v -46 -88 0
v -44 -88 0
v -46 -90 0
v -48 -90 0
v -48 -88 0
v -46 -88 0
v -48 -90 0
v -50 -90 0
v -50 -88 0
v -48 -88 0
v -50 -90 0
v -52 -90 0
v -52 -88 0
v -50 -88 0
v -52 -90 0
v -54 -90 0
v -54 -88 0
v -52 -88 0
v -44 -92 0
v -46 -92 0
v -46 -90 0
v -44 -90 0
v -46 -92 0
v -48 -92 0
v -48 -90 0
v -46 -90 0
v -48 -92 0
v -50 -92 0
v -50 -90 0
v -48 -90 0
v -50 -92 0
v -52 -92 0
v -52 -90 0
v -50 -90 0
v -52 -92 0
v -54 -92 0
v -54 -90 0
v -52 -90 0
v -150 -96 0
v -152 -96 0
v -152 -94 0
v -150 -94 0
v -152 -96 0
v -154 -96 0
v -154 -94 0
v -152 -94 0
v -154 -96 0
v -156 -96 0
v -156 -94 0
v -154 -94 0
v -156 -96 0
v -158 -96 0
v -158 -94 0
v -156 -94 0
v -158 -96 0
v -160 -96 0
v -160 -94 0
v -158 -94 0
v -150 -98 0
v -152 -98 0
v -152 -96 0
v -150 -96 0
v -152 -98 0
v -154 -98 0
v -154 -96 0
v -152 -96 0
v -154 -98 0
v -156 -98 0
v -156 -96 0
v -154 -96 0
v -156 -98 0
v -158 -98 0
v -158 -96 0
v -156 -96 0
v -158 -98 0
v -160 -98 0
v -160 -96 0
v -158 -96 0
v -150 -100 0
v -152 -100 0
v -152 -98 0
v -150 -98 0
v -152 -100 0
v -154 -100 0
v -154 -98 0
v -152 -98 0
v -154 -100 0
v -156 -100 0
v -156 -98 0
v -154 -98 0
v -156 -100 0
v -158 -100 0
v -158 -98 0
v -156 -98 0
v -158 -100 0
v -160 -100 0
v -160 -98 0
v -158 -98 0
v -150 -102 0
v -152 -102 0
v -152 -100 0
v -150 -100 0
v -152 -102 0
v -154 -102 0
v -154 -100 0
v -152 -100 0
v -154 -102 0
v -156 -102 0
v -156 -100 0
v -154 -100 0
v -156 -102 0
v -158 -102 0
v -158 -100 0
v -156 -100 0
v -158 -102 0
v -160 -102 0
v -160 -100 0
v -158 -100 0
v -112 -106 0
v -114 -106 0
v -114 -104 0
v -112 -104 0
v -114 -106 0
v -116 -106 0
v -116 -104 0
v -114 -104 0
v -116 -106 0
v -118 -106 0
v -118 -104 0
v -116 -104 0
v -118 -106 0
v -120 -106 0
v -120 -104 0
v -118 -104 0
v -120 -106 0
v -122 -106 0
v -122 -104 0
v -120 -104 0
v -112 -108 0
v -114 -108 0
v -114 -106 0
v -112 -106 0
v -114 -108 0
v -116 -108 0
v -116 -106 0
v -114 -106 0
v -116 -108 0
v -118 -108 0
v -118 -106 0
v -116 -106 0
v -118 -108 0
v -120 -108 0
v -120 -106 0
v -118 -106 0
v -120 -108 0
v -122 -108 0
v -122 -106 0
v -120 -106 0
v -112 -110 0
v -114 -110 0
v -114 -108 0
v -112 -108 0
v -114 -110 0
v -116 -110 0
v -116 -108 0
v -114 -108 0
v -116 -110 0
v -118 -110 0
v -118 -108 0
v -116 -108 0
v -118 -110 0
v -120 -110 0
v -120 -108 0
v -118 -108 0
v -120 -110 0
v -122 -110 0
v -122 -108 0
v -120 -108 0
v -112 -112 0
v -114 -112 0
v -114 -110 0
v -112 -110 0
v -114 -112 0
v -116 -112 0
v -116 -110 0
v -114 -110 0
v -116 -112 0
v -118 -112 0
v -118 -110 0
v -116 -110 0
v -118 -112 0
v -120 -112 0
v -120 -110 0
v -118 -110 0
v -120 -112 0
v -122 -112 0
v -122 -110 0
v -120 -110 0
v -142 -112 0
v -144 -112 0
v -144 -110 0
v -142 -110 0
v -144 -112 0
v -146 -112 0
v -146 -110 0
v -144 -110 0
v -98 -114 0
v -100 -114 0
v -100 -112 0
v -98 -112 0
v -100 -114 0
v -102 -114 0
v -102 -112 0
v -100 -112 0
v -102 -114 0
v -104 -114 0
v -104 -112 0
v -102 -112 0
v -104 -114 0
v -106 -114 0
v -106 -112 0
v -104 -112 0
v -106 -114 0
v -108 -114 0
v -108 -112 0
v -106 -112 0
v -142 -114 0
v -144 -114 0
v -144 -112 0
v -142 -112 0
v -144 -114 0
v -146 -114 0
v -146 -112 0
v -144 -112 0
v -98 -116 0
v -100 -116 0
v -100 -114 0
v -98 -114 0
v -100 -116 0
v -102 -116 0
v -102 -114 0
v -100 -114 0
v -102 -116 0
v -104 -116 0
v -104 -114 0
v -102 -114 0
v -104 -116 0
v -106 -116 0
v -106 -114 0
v -104 -114 0
v -106 -116 0
v -108 -116 0
v -108 -114 0
v -106 -114 0
v -142 -116 0
v -144 -116 0
v -144 -114 0
v -142 -114 0
v -144 -116 0
v -146 -116 0
v -146 -114 0
v -144 -114 0
v -98 -118 0
v -100 -118 0
v -100 -116 0
v -98 -116 0
v -100 -118 0
v -102 -118 0
v -102 -116 0
v -100 -116 0
v -102 -118 0
v -104 -118 0
v -104 -116 0
v -102 -116 0
v -104 -118 0
v -106 -118 0
v -106 -116 0
v -104 -116 0
v -106 -118 0
v -108 -118 0
v -108 -116 0
v -106 -116 0
v -166 -118 0
v -168 -118 0
v -168 -116 0
v -166 -116 0
v -168 -118 0
v -170 -118 0
v -170 -116 0
v -168 -116 0
v -196 -118 0
v -198 -118 0
v -198 -116 0
v -196 -116 0
v -198 -118 0
v -200 -118 0
v -200 -116 0
v -198 -116 0
v -98 -120 0
v -100 -120 0
v -100 -118 0
v -98 -118 0
v -100 -120 0
v -102 -120 0
v -102 -118 0
v -100 -118 0
v -102 -120 0
v -104 -120 0
v -104 -118 0
v -102 -118 0
v -104 -120 0
v -106 -120 0
v -106 -118 0
v -104 -118 0
v -106 -120 0
v -108 -120 0
v -108 -118 0
v -106 -118 0
v -154 -120 0
v -156 -120 0
v -156 -118 0
v -154 -118 0
v -156 -120 0
v -158 -120 0
v -158 -118 0
v -156 -118 0
v -166 -120 0
v -168 -120 0
v -168 -118 0
v -166 -118 0
v -168 -120 0
v -170 -120 0
v -170 -118 0
v -168 -118 0
v -190 -120 0
v -192 -120 0
v -192 -118 0
v -190 -118 0
v -192 -120 0
v -194 -120 0
v -194 -118 0
v -192 -118 0
v -196 -120 0
v -198 -120 0
v -198 -118 0
v -196 -118 0
v -198 -120 0
v -200 -120 0
v -200 -118 0
v -198 -118 0
v -154 -122 0
v -156 -122 0
v -156 -120 0
v -154 -120 0
v -156 -122 0
v -158 -122 0
v -158 -120 0
v -156 -120 0
v -190 -122 0
v -192 -122 0
v -192 -120 0
v -190 -120 0
v -192 -122 0
v -194 -122 0
v -194 -120 0
v -192 -120 0
v -142 -124 0
v -144 -124 0
v -144 -122 0
v -142 -122 0
v -144 -124 0
v -146 -124 0
v -146 -122 0
v -144 -122 0
v -142 -126 0
v -144 -126 0
v -144 -124 0
v -142 -124 0
v -144 -126 0
v -146 -126 0
v -146 -124 0
v -144 -124 0
v -142 -128 0
v -144 -128 0
v -144 -126 0
v -142 -126 0
v -144 -128 0
v -146 -128 0
v -146 -126 0
v -144 -126 0
v -98 -132 0
v -100 -132 0
v -100 -130 0
v -98 -130 0
v -100 -132 0
v -102 -132 0
v -102 -130 0
v -100 -130 0
v -152 -132 0
v -154 -132 0
v -154 -130 0
v -152 -130 0
v -154 -132 0
v -156 -132 0
v -156 -130 0
v -154 -130 0
v -98 -134 0
v -100 -134 0
v -100 -132 0
v -98 -132 0
v -100 -134 0
v -102 -134 0
v -102 -132 0
v -100 -132 0
v -152 -134 0
v -154 -134 0
v -154 -132 0
v -152 -132 0
v -154 -134 0
v -156 -134 0
v -156 -132 0
v -154 -132 0
v -98 -136 0
v -100 -136 0
v -100 -134 0
v -98 -134 0
v -100 -136 0
v -102 -136 0
v -102 -134 0
v -100 -134 0
v -152 -142 0
v -154 -142 0
v -154 -140 0
v -152 -140 0
v -154 -142 0
v -156 -142 0
v -156 -140 0
v -154 -140 0
v -196 -142 0
v -198 -142 0
v -198 -140 0
v -196 -140 0
v -198 -142 0
v -200 -142 0
v -200 -140 0
v -198 -140 0
v -152 -144 0
v -154 -144 0
v -154 -142 0
v -152 -142 0
v -154 -144 0
v -156 -144 0
v -156 -142 0
v -154 -142 0
v -196 -144 0
v -198 -144 0
v -198 -142 0
v -196 -142 0
v -198 -144 0
v -200 -144 0
v -200 -142 0
v -198 -142 0
v -98 -150 0
v -100 -150 0
v -100 -148 0
v -98 -148 0
v -100 -150 0
v -102 -150 0
v -102 -148 0
v -100 -148 0
v -98 -152 0
v -100 -152 0
v -100 -150 0
v -98 -150 0
v -100 -152 0
v -102 -152 0
v -102 -150 0
v -100 -150 0
v -98 -154 0
v -100 -154 0
v -100 -152 0
v -98 -152 0
v -100 -154 0
v -102 -154 0
v -102 -152 0
v -100 -152 0
v -18 -160 0
v -20 -160 0
v -20 -158 0
v -18 -158 0
v -20 -160 0
v -22 -160 0
v -22 -158 0
v -20 -158 0
v -18 -162 0
v -20 -162 0
v -20 -160 0
v -18 -160 0
v -20 -162 0
v -22 -162 0
v -22 -160 0
v -20 -160 0
v -18 -164 0
v -20 -164 0
v -20 -162 0
v -18 -162 0
v -20 -164 0
v -22 -164 0
v -22 -162 0
v -20 -162 0

# Texture cooridinates (Count = 176)
vt 0.4648438 0.7597088
vt 0.4898438 0.7597088
vt 0.4898438 0.7985437
vt 0.4648438 0.7985437
vt 0.490625 0.7597088
vt 0.515625 0.7597088
vt 0.515625 0.7985437
vt 0.490625 0.7985437
vt 0.5164062 0.7597088
vt 0.5414063 0.7597088
vt 0.5414063 0.7985437
vt 0.5164062 0.7985437
vt 0.5421875 0.7597088
vt 0.5671875 0.7597088
vt 0.5671875 0.7985437
vt 0.5421875 0.7985437
vt 0.5679687 0.7597088
vt 0.5929688 0.7597088
vt 0.5929688 0.7985437
vt 0.5679687 0.7985437
vt 0.4648438 0.7196602
vt 0.4898438 0.7196602
vt 0.4898438 0.7584952
vt 0.4648438 0.7584952
vt 0.490625 0.7196602
vt 0.515625 0.7196602
vt 0.515625 0.7584952
vt 0.490625 0.7584952
vt 0.5164062 0.7196602
vt 0.5414063 0.7196602
vt 0.5414063 0.7584952
vt 0.5164062 0.7584952
vt 0.5421875 0.7196602
vt 0.5671875 0.7196602
vt 0.5671875 0.7584952
vt 0.5421875 0.7584952
vt 0.5679687 0.7196602
vt 0.5929688 0.7196602
vt 0.5929688 0.7584952
vt 0.5679687 0.7584952
vt 0.4648438 0.6796117
vt 0.4898438 0.6796117
vt 0.4898438 0.7184466
vt 0.4648438 0.7184466
vt 0.490625 0.6796117
vt 0.515625 0.6796117
vt 0.515625 0.7184466
vt 0.490625 0.7184466
vt 0.5164062 0.6796117
vt 0.5414063 0.6796117
vt 0.5414063 0.7184466
vt 0.5164062 0.7184466
vt 0.5421875 0.6796117
vt 0.5671875 0.6796117
vt 0.5671875 0.7184466
vt 0.5421875 0.7184466
vt 0.5679687 0.6796117
vt 0.5929688 0.6796117
vt 0.5929688 0.7184466
vt 0.5679687 0.7184466
vt 0.4648438 0.6395631
vt 0.4898438 0.6395631
vt 0.4898438 0.6783981
vt 0.4648438 0.6783981
vt 0.490625 0.6395631
vt 0.515625 0.6395631
vt 0.515625 0.6783981
vt 0.490625 0.6783981
vt 0.5164062 0.6395631
vt 0.5414063 0.6395631
vt 0.5414063 0.6783981
vt 0.5164062 0.6783981
vt 0.5421875 0.6395631
vt 0.5671875 0.6395631
vt 0.5671875 0.6783981
vt 0.5421875 0.6783981
vt 0.5679687 0.6395631
vt 0.5929688 0.6395631
vt 0.5929688 0.6783981
vt 0.5679687 0.6783981
vt 0.5679687 0.5194175
vt 0.5929688 0.5194175
vt 0.5929688 0.5582525
vt 0.5679687 0.5582525
vt 0.59375 0.5194175
vt 0.61875 0.5194175
vt 0.61875 0.5582525
vt 0.59375 0.5582525
vt 0.5679687 0.4793689
vt 0.5929688 0.4793689
vt 0.5929688 0.5182039
vt 0.5679687 0.5182039
vt 0.59375 0.4793689
vt 0.61875 0.4793689
vt 0.61875 0.5182039
vt 0.59375 0.5182039
vt 0.5679687 0.4393204
vt 0.5929688 0.4393204
vt 0.5929688 0.4781553
vt 0.5679687 0.4781553
vt 0.59375 0.4393204
vt 0.61875 0.4393204
vt 0.61875 0.4781553
vt 0.59375 0.4781553
vt 0.4648438 0.3992718
vt 0.4898438 0.3992718
vt 0.4898438 0.4381068
vt 0.4648438 0.4381068
vt 0.490625 0.3992718
vt 0.515625 0.3992718
vt 0.515625 0.4381068
vt 0.490625 0.4381068
vt 0.4648438 0.3592233
vt 0.4898438 0.3592233
vt 0.4898438 0.3980582
vt 0.4648438 0.3980582
vt 0.490625 0.3592233
vt 0.515625 0.3592233
vt 0.515625 0.3980582
vt 0.490625 0.3980582
vt 0.3875 0.5194175
vt 0.4125 0.5194175
vt 0.4125 0.5582525
vt 0.3875 0.5582525
vt 0.4132813 0.5194175
vt 0.4382812 0.5194175
vt 0.4382812 0.5582525
vt 0.4132813 0.5582525
vt 0.4132813 0.3191748
vt 0.4382812 0.3191748
vt 0.4382812 0.3580097
vt 0.4132813 0.3580097
vt 0.4390625 0.3191748
vt 0.4640625 0.3191748
vt 0.4640625 0.3580097
vt 0.4390625 0.3580097
vt 0.3875 0.4793689
vt 0.4125 0.4793689
vt 0.4125 0.5182039
vt 0.3875 0.5182039
vt 0.4132813 0.4793689
vt 0.4382812 0.4793689
vt 0.4382812 0.5182039
vt 0.4132813 0.5182039
vt 0.4132813 0.2791262
vt 0.4382812 0.2791262
vt 0.4382812 0.3179612
vt 0.4132813 0.3179612
vt 0.4390625 0.2791262
vt 0.4640625 0.2791262
vt 0.4640625 0.3179612
vt 0.4390625 0.3179612
vt 0.3875 0.4393204
vt 0.4125 0.4393204
vt 0.4125 0.4781553
vt 0.3875 0.4781553
vt 0.4132813 0.4393204
vt 0.4382812 0.4393204
vt 0.4382812 0.4781553
vt 0.4132813 0.4781553
vt 0.5164062 0.3191748
vt 0.5414063 0.3191748
vt 0.5414063 0.3580097
vt 0.5164062 0.3580097
vt 0.5421875 0.3191748
vt 0.5671875 0.3191748
vt 0.5671875 0.3580097
vt 0.5421875 0.3580097
vt 0.5164062 0.2791262
vt 0.5414063 0.2791262
vt 0.5414063 0.3179612
vt 0.5164062 0.3179612
vt 0.5421875 0.2791262
vt 0.5671875 0.2791262
vt 0.5671875 0.3179612
vt 0.5421875 0.3179612

# Normal
vn 0 0 -1

# Mesh description
g bigmap_mesh_0033

# Faces
f 1/1/1 2/2/1 3/3/1 4/4/1
f 5/5/1 6/6/1 7/7/1 8/8/1
f 9/9/1 10/10/1 11/11/1 12/12/1
f 13/13/1 14/14/1 15/15/1 16/16/1
f 17/17/1 18/18/1 19/19/1 20/20/1
f 21/21/1 22/22/1 23/23/1 24/24/1
f 25/25/1 26/26/1 27/27/1 28/28/1
f 29/29/1 30/30/1 31/31/1 32/32/1
f 33/33/1 34/34/1 35/35/1 36/36/1
f 37/37/1 38/38/1 39/39/1 40/40/1
f 41/41/1 42/42/1 43/43/1 44/44/1
f 45/45/1 46/46/1 47/47/1 48/48/1
f 49/49/1 50/50/1 51/51/1 52/52/1
f 53/53/1 54/54/1 55/55/1 56/56/1
f 57/57/1 58/58/1 59/59/1 60/60/1
f 61/1/1 62/2/1 63/3/1 64/4/1
f 65/5/1 66/6/1 67/7/1 68/8/1
f 69/9/1 70/10/1 71/11/1 72/12/1
f 73/13/1 74/14/1 75/15/1 76/16/1
f 77/17/1 78/18/1 79/19/1 80/20/1
f 81/21/1 82/22/1 83/23/1 84/24/1
f 85/25/1 86/26/1 87/27/1 88/28/1
f 89/29/1 90/30/1 91/31/1 92/32/1
f 93/33/1 94/34/1 95/35/1 96/36/1
f 97/37/1 98/38/1 99/39/1 100/40/1
f 101/41/1 102/42/1 103/43/1 104/44/1
f 105/45/1 106/46/1 107/47/1 108/48/1
f 109/49/1 110/50/1 111/51/1 112/52/1
f 113/53/1 114/54/1 115/55/1 116/56/1
f 117/57/1 118/58/1 119/59/1 120/60/1
f 121/61/1 122/62/1 123/63/1 124/64/1
f 125/65/1 126/66/1 127/67/1 128/68/1
f 129/69/1 130/70/1 131/71/1 132/72/1
f 133/73/1 134/74/1 135/75/1 136/76/1
f 137/77/1 138/78/1 139/79/1 140/80/1
f 141/1/1 142/2/1 143/3/1 144/4/1
f 145/5/1 146/6/1 147/7/1 148/8/1
f 149/9/1 150/10/1 151/11/1 152/12/1
f 153/13/1 154/14/1 155/15/1 156/16/1
f 157/17/1 158/18/1 159/19/1 160/20/1
f 161/21/1 162/22/1 163/23/1 164/24/1
f 165/25/1 166/26/1 167/27/1 168/28/1
f 169/29/1 170/30/1 171/31/1 172/32/1
f 173/33/1 174/34/1 175/35/1 176/36/1
f 177/37/1 178/38/1 179/39/1 180/40/1
f 181/41/1 182/42/1 183/43/1 184/44/1
f 185/45/1 186/46/1 187/47/1 188/48/1
f 189/49/1 190/50/1 191/51/1 192/52/1
f 193/53/1 194/54/1 195/55/1 196/56/1
f 197/57/1 198/58/1 199/59/1 200/60/1
f 201/61/1 202/62/1 203/63/1 204/64/1
f 205/65/1 206/66/1 207/67/1 208/68/1
f 209/69/1 210/70/1 211/71/1 212/72/1
f 213/73/1 214/74/1 215/75/1 216/76/1
f 217/77/1 218/78/1 219/79/1 220/80/1
f 221/81/1 222/82/1 223/83/1 224/84/1
f 225/85/1 226/86/1 227/87/1 228/88/1
f 229/1/1 230/2/1 231/3/1 232/4/1
f 233/5/1 234/6/1 235/7/1 236/8/1
f 237/9/1 238/10/1 239/11/1 240/12/1
f 241/13/1 242/14/1 243/15/1 244/16/1
f 245/17/1 246/18/1 247/19/1 248/20/1
f 249/89/1 250/90/1 251/91/1 252/92/1
f 253/93/1 254/94/1 255/95/1 256/96/1
f 257/21/1 258/22/1 259/23/1 260/24/1
f 261/25/1 262/26/1 263/27/1 264/28/1
f 265/29/1 266/30/1 267/31/1 268/32/1
f 269/33/1 270/34/1 271/35/1 272/36/1
f 273/37/1 274/38/1 275/39/1 276/40/1
f 277/97/1 278/98/1 279/99/1 280/100/1
f 281/101/1 282/102/1 283/103/1 284/104/1
f 285/41/1 286/42/1 287/43/1 288/44/1
f 289/45/1 290/46/1 291/47/1 292/48/1
f 293/49/1 294/50/1 295/51/1 296/52/1
f 297/53/1 298/54/1 299/55/1 300/56/1
f 301/57/1 302/58/1 303/59/1 304/60/1
f 305/105/1 306/106/1 307/107/1 308/108/1
f 309/109/1 310/110/1 311/111/1 312/112/1
f 313/105/1 314/106/1 315/107/1 316/108/1
f 317/109/1 318/110/1 319/111/1 320/112/1
f 321/61/1 322/62/1 323/63/1 324/64/1
f 325/65/1 326/66/1 327/67/1 328/68/1
f 329/69/1 330/70/1 331/71/1 332/72/1
f 333/73/1 334/74/1 335/75/1 336/76/1
f 337/77/1 338/78/1 339/79/1 340/80/1
f 341/105/1 342/106/1 343/107/1 344/108/1
f 345/109/1 346/110/1 347/111/1 348/112/1
f 349/113/1 350/114/1 351/115/1 352/116/1
f 353/117/1 354/118/1 355/119/1 356/120/1
f 357/105/1 358/106/1 359/107/1 360/108/1
f 361/109/1 362/110/1 363/111/1 364/112/1
f 365/113/1 366/114/1 367/115/1 368/116/1
f 369/117/1 370/118/1 371/119/1 372/120/1
f 373/113/1 374/114/1 375/115/1 376/116/1
f 377/117/1 378/118/1 379/119/1 380/120/1
f 381/113/1 382/114/1 383/115/1 384/116/1
f 385/117/1 386/118/1 387/119/1 388/120/1
f 389/81/1 390/82/1 391/83/1 392/84/1
f 393/85/1 394/86/1 395/87/1 396/88/1
f 397/89/1 398/90/1 399/91/1 400/92/1
f 401/93/1 402/94/1 403/95/1 404/96/1
f 405/97/1 406/98/1 407/99/1 408/100/1
f 409/101/1 410/102/1 411/103/1 412/104/1
f 413/121/1 414/122/1 415/123/1 416/124/1
f 417/125/1 418/126/1 419/127/1 420/128/1
f 421/129/1 422/130/1 423/131/1 424/132/1
f 425/133/1 426/134/1 427/135/1 428/136/1
f 429/137/1 430/138/1 431/139/1 432/140/1
f 433/141/1 434/142/1 435/143/1 436/144/1
f 437/145/1 438/146/1 439/147/1 440/148/1
f 441/149/1 442/150/1 443/151/1 444/152/1
f 445/153/1 446/154/1 447/155/1 448/156/1
f 449/157/1 450/158/1 451/159/1 452/160/1
f 453/129/1 454/130/1 455/131/1 456/132/1
f 457/133/1 458/134/1 459/135/1 460/136/1
f 461/161/1 462/162/1 463/163/1 464/164/1
f 465/165/1 466/166/1 467/167/1 468/168/1
f 469/145/1 470/146/1 471/147/1 472/148/1
f 473/149/1 474/150/1 475/151/1 476/152/1
f 477/169/1 478/170/1 479/171/1 480/172/1
f 481/173/1 482/174/1 483/175/1 484/176/1
f 485/121/1 486/122/1 487/123/1 488/124/1
f 489/125/1 490/126/1 491/127/1 492/128/1
f 493/137/1 494/138/1 495/139/1 496/140/1
f 497/141/1 498/142/1 499/143/1 500/144/1
f 501/153/1 502/154/1 503/155/1 504/156/1
f 505/157/1 506/158/1 507/159/1 508/160/1
f 509/81/1 510/82/1 511/83/1 512/84/1
f 513/85/1 514/86/1 515/87/1 516/88/1
f 517/89/1 518/90/1 519/91/1 520/92/1
f 521/93/1 522/94/1 523/95/1 524/96/1
f 525/97/1 526/98/1 527/99/1 528/100/1
f 529/101/1 530/102/1 531/103/1 532/104/1

