# Tiled2Unity generated file. Do not modify by hand.
# Wavefront file for 'bigmap_mesh_0025.obj'

# Vertices (Count = 12)
v -92 -8 0
v -94 -8 0
v -94 -6 0
v -92 -6 0
v -92 -10 0
v -94 -10 0
v -94 -8 0
v -92 -8 0
v -92 -40 0
v -94 -40 0
v -94 -38 0
v -92 -38 0

# Texture cooridinates (Count = 4)
vt 0.09824047 0.8465116
vt 0.1451613 0.8465116
vt 0.1451613 0.9209302
vt 0.09824047 0.9209302

# Normal
vn 0 0 -1

# Mesh description
g bigmap_mesh_0025

# Faces
f 1/1/1 2/2/1 3/3/1 4/4/1
f 5/1/1 6/2/1 7/3/1 8/4/1
f 9/1/1 10/2/1 11/3/1 12/4/1

