# Tiled2Unity generated file. Do not modify by hand.
# Wavefront file for 'bigmap_mesh_0002.obj'

# Vertices (Count = 92)
v -180 -48 0
v -182 -48 0
v -182 -46 0
v -180 -46 0
v -182 -48 0
v -184 -48 0
v -184 -46 0
v -182 -46 0
v -184 -48 0
v -186 -48 0
v -186 -46 0
v -184 -46 0
v -186 -48 0
v -188 -48 0
v -188 -46 0
v -186 -46 0
v -188 -48 0
v -190 -48 0
v -190 -46 0
v -188 -46 0
v -190 -48 0
v -192 -48 0
v -192 -46 0
v -190 -46 0
v -228 -48 0
v -230 -48 0
v -230 -46 0
v -228 -46 0
v -230 -48 0
v -232 -48 0
v -232 -46 0
v -230 -46 0
v -232 -48 0
v -234 -48 0
v -234 -46 0
v -232 -46 0
v -234 -48 0
v -236 -48 0
v -236 -46 0
v -234 -46 0
v -180 -50 0
v -182 -50 0
v -182 -48 0
v -180 -48 0
v -182 -50 0
v -184 -50 0
v -184 -48 0
v -182 -48 0
v -186 -50 0
v -188 -50 0
v -188 -48 0
v -186 -48 0
v -188 -50 0
v -190 -50 0
v -190 -48 0
v -188 -48 0
v -194 -50 0
v -196 -50 0
v -196 -48 0
v -194 -48 0
v -230 -50 0
v -232 -50 0
v -232 -48 0
v -230 -48 0
v -232 -50 0
v -234 -50 0
v -234 -48 0
v -232 -48 0
v -180 -52 0
v -182 -52 0
v -182 -50 0
v -180 -50 0
v -182 -52 0
v -184 -52 0
v -184 -50 0
v -182 -50 0
v -186 -52 0
v -188 -52 0
v -188 -50 0
v -186 -50 0
v -230 -52 0
v -232 -52 0
v -232 -50 0
v -230 -50 0
v -232 -52 0
v -234 -52 0
v -234 -50 0
v -232 -50 0
v -230 -54 0
v -232 -54 0
v -232 -52 0
v -230 -52 0

# Texture cooridinates (Count = 92)
vt 0.00078125 0.9541667
vt 0.02578125 0.9541667
vt 0.02578125 0.9986111
vt 0.00078125 0.9986111
vt 0.0265625 0.9541667
vt 0.0515625 0.9541667
vt 0.0515625 0.9986111
vt 0.0265625 0.9986111
vt 0.05234375 0.9541667
vt 0.07734375 0.9541667
vt 0.07734375 0.9986111
vt 0.05234375 0.9986111
vt 0.078125 0.9541667
vt 0.103125 0.9541667
vt 0.103125 0.9986111
vt 0.078125 0.9986111
vt 0.1039063 0.9541667
vt 0.1289063 0.9541667
vt 0.1289063 0.9986111
vt 0.1039063 0.9986111
vt 0.1296875 0.9541667
vt 0.1546875 0.9541667
vt 0.1546875 0.9986111
vt 0.1296875 0.9986111
vt 0.6195313 0.9541667
vt 0.6445313 0.9541667
vt 0.6445313 0.9986111
vt 0.6195313 0.9986111
vt 0.6453125 0.9541667
vt 0.6703125 0.9541667
vt 0.6703125 0.9986111
vt 0.6453125 0.9986111
vt 0.6710938 0.9541667
vt 0.6960937 0.9541667
vt 0.6960937 0.9986111
vt 0.6710938 0.9986111
vt 0.696875 0.9541667
vt 0.721875 0.9541667
vt 0.721875 0.9986111
vt 0.696875 0.9986111
vt 0.00078125 0.9083333
vt 0.02578125 0.9083333
vt 0.02578125 0.9527778
vt 0.00078125 0.9527778
vt 0.0265625 0.9083333
vt 0.0515625 0.9083333
vt 0.0515625 0.9527778
vt 0.0265625 0.9527778
vt 0.078125 0.9083333
vt 0.103125 0.9083333
vt 0.103125 0.9527778
vt 0.078125 0.9527778
vt 0.1039063 0.9083333
vt 0.1289063 0.9083333
vt 0.1289063 0.9527778
vt 0.1039063 0.9527778
vt 0.18125 0.9083333
vt 0.20625 0.9083333
vt 0.20625 0.9527778
vt 0.18125 0.9527778
vt 0.6453125 0.9083333
vt 0.6703125 0.9083333
vt 0.6703125 0.9527778
vt 0.6453125 0.9527778
vt 0.6710938 0.9083333
vt 0.6960937 0.9083333
vt 0.6960937 0.9527778
vt 0.6710938 0.9527778
vt 0.00078125 0.8625
vt 0.02578125 0.8625
vt 0.02578125 0.9069445
vt 0.00078125 0.9069445
vt 0.0265625 0.8625
vt 0.0515625 0.8625
vt 0.0515625 0.9069445
vt 0.0265625 0.9069445
vt 0.078125 0.8625
vt 0.103125 0.8625
vt 0.103125 0.9069445
vt 0.078125 0.9069445
vt 0.6453125 0.8625
vt 0.6703125 0.8625
vt 0.6703125 0.9069445
vt 0.6453125 0.9069445
vt 0.6710938 0.8625
vt 0.6960937 0.8625
vt 0.6960937 0.9069445
vt 0.6710938 0.9069445
vt 0.6453125 0.8166667
vt 0.6703125 0.8166667
vt 0.6703125 0.8611111
vt 0.6453125 0.8611111

# Normal
vn 0 0 -1

# Mesh description
g bigmap_mesh_0002

# Faces
f 1/1/1 2/2/1 3/3/1 4/4/1
f 5/5/1 6/6/1 7/7/1 8/8/1
f 9/9/1 10/10/1 11/11/1 12/12/1
f 13/13/1 14/14/1 15/15/1 16/16/1
f 17/17/1 18/18/1 19/19/1 20/20/1
f 21/21/1 22/22/1 23/23/1 24/24/1
f 25/25/1 26/26/1 27/27/1 28/28/1
f 29/29/1 30/30/1 31/31/1 32/32/1
f 33/33/1 34/34/1 35/35/1 36/36/1
f 37/37/1 38/38/1 39/39/1 40/40/1
f 41/41/1 42/42/1 43/43/1 44/44/1
f 45/45/1 46/46/1 47/47/1 48/48/1
f 49/49/1 50/50/1 51/51/1 52/52/1
f 53/53/1 54/54/1 55/55/1 56/56/1
f 57/57/1 58/58/1 59/59/1 60/60/1
f 61/61/1 62/62/1 63/63/1 64/64/1
f 65/65/1 66/66/1 67/67/1 68/68/1
f 69/69/1 70/70/1 71/71/1 72/72/1
f 73/73/1 74/74/1 75/75/1 76/76/1
f 77/77/1 78/78/1 79/79/1 80/80/1
f 81/81/1 82/82/1 83/83/1 84/84/1
f 85/85/1 86/86/1 87/87/1 88/88/1
f 89/89/1 90/90/1 91/91/1 92/92/1

