# Tiled2Unity generated file. Do not modify by hand.
# Wavefront file for '???_mesh_0009.obj'

# Vertices (Count = 128)
v -62 -44 0
v -63 -44 0
v -63 -43 0
v -62 -43 0
v -63 -44 0
v -64 -44 0
v -64 -43 0
v -63 -43 0
v -64 -44 0
v -65 -44 0
v -65 -43 0
v -64 -43 0
v -62 -45 0
v -63 -45 0
v -63 -44 0
v -62 -44 0
v -63 -45 0
v -64 -45 0
v -64 -44 0
v -63 -44 0
v -64 -45 0
v -65 -45 0
v -65 -44 0
v -64 -44 0
v -61 -46 0
v -62 -46 0
v -62 -45 0
v -61 -45 0
v -62 -46 0
v -63 -46 0
v -63 -45 0
v -62 -45 0
v -63 -46 0
v -64 -46 0
v -64 -45 0
v -63 -45 0
v -61 -47 0
v -62 -47 0
v -62 -46 0
v -61 -46 0
v -62 -47 0
v -63 -47 0
v -63 -46 0
v -62 -46 0
v -63 -47 0
v -64 -47 0
v -64 -46 0
v -63 -46 0
v -62 -48 0
v -63 -48 0
v -63 -47 0
v -62 -47 0
v -63 -48 0
v -64 -48 0
v -64 -47 0
v -63 -47 0
v -64 -48 0
v -65 -48 0
v -65 -47 0
v -64 -47 0
v -62 -49 0
v -63 -49 0
v -63 -48 0
v -62 -48 0
v -63 -49 0
v -64 -49 0
v -64 -48 0
v -63 -48 0
v -64 -49 0
v -65 -49 0
v -65 -48 0
v -64 -48 0
v -60 -50 0
v -61 -50 0
v -61 -49 0
v -60 -49 0
v -61 -50 0
v -62 -50 0
v -62 -49 0
v -61 -49 0
v -62 -50 0
v -63 -50 0
v -63 -49 0
v -62 -49 0
v -60 -51 0
v -61 -51 0
v -61 -50 0
v -60 -50 0
v -61 -51 0
v -62 -51 0
v -62 -50 0
v -61 -50 0
v -62 -51 0
v -63 -51 0
v -63 -50 0
v -62 -50 0
v -61 -52 0
v -62 -52 0
v -62 -51 0
v -61 -51 0
v -62 -52 0
v -63 -52 0
v -63 -51 0
v -62 -51 0
v -63 -52 0
v -64 -52 0
v -64 -51 0
v -63 -51 0
v -64 -52 0
v -65 -52 0
v -65 -51 0
v -64 -51 0
v -61 -53 0
v -62 -53 0
v -62 -52 0
v -61 -52 0
v -62 -53 0
v -63 -53 0
v -63 -52 0
v -62 -52 0
v -63 -53 0
v -64 -53 0
v -64 -52 0
v -63 -52 0
v -64 -53 0
v -65 -53 0
v -65 -52 0
v -64 -52 0

# Texture cooridinates (Count = 72)
vt 0.00078125 0.3992718
vt 0.02578125 0.3992718
vt 0.02578125 0.4381068
vt 0.00078125 0.4381068
vt 0.0265625 0.3992718
vt 0.0515625 0.3992718
vt 0.0515625 0.4381068
vt 0.0265625 0.4381068
vt 0.05234375 0.3992718
vt 0.07734375 0.3992718
vt 0.07734375 0.4381068
vt 0.05234375 0.4381068
vt 0.00078125 0.3592233
vt 0.02578125 0.3592233
vt 0.02578125 0.3980582
vt 0.00078125 0.3980582
vt 0.0265625 0.3592233
vt 0.0515625 0.3592233
vt 0.0515625 0.3980582
vt 0.0265625 0.3980582
vt 0.05234375 0.3592233
vt 0.07734375 0.3592233
vt 0.07734375 0.3980582
vt 0.05234375 0.3980582
vt 0.00078125 0.3191748
vt 0.02578125 0.3191748
vt 0.02578125 0.3580097
vt 0.00078125 0.3580097
vt 0.0265625 0.3191748
vt 0.0515625 0.3191748
vt 0.0515625 0.3580097
vt 0.0265625 0.3580097
vt 0.05234375 0.3191748
vt 0.07734375 0.3191748
vt 0.07734375 0.3580097
vt 0.05234375 0.3580097
vt 0.00078125 0.2791262
vt 0.02578125 0.2791262
vt 0.02578125 0.3179612
vt 0.00078125 0.3179612
vt 0.0265625 0.2791262
vt 0.0515625 0.2791262
vt 0.0515625 0.3179612
vt 0.0265625 0.3179612
vt 0.05234375 0.2791262
vt 0.07734375 0.2791262
vt 0.07734375 0.3179612
vt 0.05234375 0.3179612
vt 0.078125 0.3992718
vt 0.103125 0.3992718
vt 0.103125 0.4381068
vt 0.078125 0.4381068
vt 0.1039063 0.3992718
vt 0.1289063 0.3992718
vt 0.1289063 0.4381068
vt 0.1039063 0.4381068
vt 0.1296875 0.3992718
vt 0.1546875 0.3992718
vt 0.1546875 0.4381068
vt 0.1296875 0.4381068
vt 0.078125 0.3592233
vt 0.103125 0.3592233
vt 0.103125 0.3980582
vt 0.078125 0.3980582
vt 0.1039063 0.3592233
vt 0.1289063 0.3592233
vt 0.1289063 0.3980582
vt 0.1039063 0.3980582
vt 0.1296875 0.3592233
vt 0.1546875 0.3592233
vt 0.1546875 0.3980582
vt 0.1296875 0.3980582

# Normal
vn 0 0 -1

# Mesh description
g ???_mesh_0009

# Faces
f 1/1/1 2/2/1 3/3/1 4/4/1
f 5/5/1 6/6/1 7/7/1 8/8/1
f 9/9/1 10/10/1 11/11/1 12/12/1
f 13/13/1 14/14/1 15/15/1 16/16/1
f 17/17/1 18/18/1 19/19/1 20/20/1
f 21/21/1 22/22/1 23/23/1 24/24/1
f 25/1/1 26/2/1 27/3/1 28/4/1
f 29/5/1 30/6/1 31/7/1 32/8/1
f 33/9/1 34/10/1 35/11/1 36/12/1
f 37/13/1 38/14/1 39/15/1 40/16/1
f 41/17/1 42/18/1 43/19/1 44/20/1
f 45/21/1 46/22/1 47/23/1 48/24/1
f 49/25/1 50/26/1 51/27/1 52/28/1
f 53/29/1 54/30/1 55/31/1 56/32/1
f 57/33/1 58/34/1 59/35/1 60/36/1
f 61/37/1 62/38/1 63/39/1 64/40/1
f 65/41/1 66/42/1 67/43/1 68/44/1
f 69/45/1 70/46/1 71/47/1 72/48/1
f 73/49/1 74/50/1 75/51/1 76/52/1
f 77/53/1 78/54/1 79/55/1 80/56/1
f 81/57/1 82/58/1 83/59/1 84/60/1
f 85/61/1 86/62/1 87/63/1 88/64/1
f 89/65/1 90/66/1 91/67/1 92/68/1
f 93/69/1 94/70/1 95/71/1 96/72/1
f 97/25/1 98/26/1 99/27/1 100/28/1
f 101/29/1 102/30/1 103/31/1 104/32/1
f 105/33/1 106/34/1 107/35/1 108/36/1
f 109/9/1 110/10/1 111/11/1 112/12/1
f 113/37/1 114/38/1 115/39/1 116/40/1
f 117/41/1 118/42/1 119/43/1 120/44/1
f 121/45/1 122/46/1 123/47/1 124/48/1
f 125/21/1 126/22/1 127/23/1 128/24/1

