# Tiled2Unity generated file. Do not modify by hand.
# Wavefront file for '???_mesh_0023.obj'

# Vertices (Count = 820)
v -71 -63 0
v -72 -63 0
v -72 -62 0
v -71 -62 0
v -57 -65 0
v -58 -65 0
v -58 -64 0
v -57 -64 0
v -58 -65 0
v -59 -65 0
v -59 -64 0
v -58 -64 0
v -59 -65 0
v -60 -65 0
v -60 -64 0
v -59 -64 0
v -60 -65 0
v -61 -65 0
v -61 -64 0
v -60 -64 0
v -61 -65 0
v -62 -65 0
v -62 -64 0
v -61 -64 0
v -62 -65 0
v -63 -65 0
v -63 -64 0
v -62 -64 0
v -63 -65 0
v -64 -65 0
v -64 -64 0
v -63 -64 0
v -64 -65 0
v -65 -65 0
v -65 -64 0
v -64 -64 0
v -65 -65 0
v -66 -65 0
v -66 -64 0
v -65 -64 0
v -66 -65 0
v -67 -65 0
v -67 -64 0
v -66 -64 0
v -67 -65 0
v -68 -65 0
v -68 -64 0
v -67 -64 0
v -68 -65 0
v -69 -65 0
v -69 -64 0
v -68 -64 0
v -69 -65 0
v -70 -65 0
v -70 -64 0
v -69 -64 0
v -70 -65 0
v -71 -65 0
v -71 -64 0
v -70 -64 0
v -71 -65 0
v -72 -65 0
v -72 -64 0
v -71 -64 0
v -72 -65 0
v -73 -65 0
v -73 -64 0
v -72 -64 0
v -57 -66 0
v -58 -66 0
v -58 -65 0
v -57 -65 0
v -58 -66 0
v -59 -66 0
v -59 -65 0
v -58 -65 0
v -59 -66 0
v -60 -66 0
v -60 -65 0
v -59 -65 0
v -60 -66 0
v -61 -66 0
v -61 -65 0
v -60 -65 0
v -61 -66 0
v -62 -66 0
v -62 -65 0
v -61 -65 0
v -62 -66 0
v -63 -66 0
v -63 -65 0
v -62 -65 0
v -63 -66 0
v -64 -66 0
v -64 -65 0
v -63 -65 0
v -64 -66 0
v -65 -66 0
v -65 -65 0
v -64 -65 0
v -65 -66 0
v -66 -66 0
v -66 -65 0
v -65 -65 0
v -66 -66 0
v -67 -66 0
v -67 -65 0
v -66 -65 0
v -67 -66 0
v -68 -66 0
v -68 -65 0
v -67 -65 0
v -68 -66 0
v -69 -66 0
v -69 -65 0
v -68 -65 0
v -69 -66 0
v -70 -66 0
v -70 -65 0
v -69 -65 0
v -70 -66 0
v -71 -66 0
v -71 -65 0
v -70 -65 0
v -71 -66 0
v -72 -66 0
v -72 -65 0
v -71 -65 0
v -72 -66 0
v -73 -66 0
v -73 -65 0
v -72 -65 0
v -57 -67 0
v -58 -67 0
v -58 -66 0
v -57 -66 0
v -58 -67 0
v -59 -67 0
v -59 -66 0
v -58 -66 0
v -59 -67 0
v -60 -67 0
v -60 -66 0
v -59 -66 0
v -60 -67 0
v -61 -67 0
v -61 -66 0
v -60 -66 0
v -61 -67 0
v -62 -67 0
v -62 -66 0
v -61 -66 0
v -62 -67 0
v -63 -67 0
v -63 -66 0
v -62 -66 0
v -63 -67 0
v -64 -67 0
v -64 -66 0
v -63 -66 0
v -64 -67 0
v -65 -67 0
v -65 -66 0
v -64 -66 0
v -65 -67 0
v -66 -67 0
v -66 -66 0
v -65 -66 0
v -66 -67 0
v -67 -67 0
v -67 -66 0
v -66 -66 0
v -67 -67 0
v -68 -67 0
v -68 -66 0
v -67 -66 0
v -68 -67 0
v -69 -67 0
v -69 -66 0
v -68 -66 0
v -69 -67 0
v -70 -67 0
v -70 -66 0
v -69 -66 0
v -70 -67 0
v -71 -67 0
v -71 -66 0
v -70 -66 0
v -71 -67 0
v -72 -67 0
v -72 -66 0
v -71 -66 0
v -72 -67 0
v -73 -67 0
v -73 -66 0
v -72 -66 0
v -57 -68 0
v -58 -68 0
v -58 -67 0
v -57 -67 0
v -58 -68 0
v -59 -68 0
v -59 -67 0
v -58 -67 0
v -59 -68 0
v -60 -68 0
v -60 -67 0
v -59 -67 0
v -60 -68 0
v -61 -68 0
v -61 -67 0
v -60 -67 0
v -61 -68 0
v -62 -68 0
v -62 -67 0
v -61 -67 0
v -62 -68 0
v -63 -68 0
v -63 -67 0
v -62 -67 0
v -63 -68 0
v -64 -68 0
v -64 -67 0
v -63 -67 0
v -64 -68 0
v -65 -68 0
v -65 -67 0
v -64 -67 0
v -65 -68 0
v -66 -68 0
v -66 -67 0
v -65 -67 0
v -66 -68 0
v -67 -68 0
v -67 -67 0
v -66 -67 0
v -67 -68 0
v -68 -68 0
v -68 -67 0
v -67 -67 0
v -68 -68 0
v -69 -68 0
v -69 -67 0
v -68 -67 0
v -69 -68 0
v -70 -68 0
v -70 -67 0
v -69 -67 0
v -70 -68 0
v -71 -68 0
v -71 -67 0
v -70 -67 0
v -71 -68 0
v -72 -68 0
v -72 -67 0
v -71 -67 0
v -72 -68 0
v -73 -68 0
v -73 -67 0
v -72 -67 0
v -57 -69 0
v -58 -69 0
v -58 -68 0
v -57 -68 0
v -58 -69 0
v -59 -69 0
v -59 -68 0
v -58 -68 0
v -59 -69 0
v -60 -69 0
v -60 -68 0
v -59 -68 0
v -60 -69 0
v -61 -69 0
v -61 -68 0
v -60 -68 0
v -61 -69 0
v -62 -69 0
v -62 -68 0
v -61 -68 0
v -62 -69 0
v -63 -69 0
v -63 -68 0
v -62 -68 0
v -63 -69 0
v -64 -69 0
v -64 -68 0
v -63 -68 0
v -64 -69 0
v -65 -69 0
v -65 -68 0
v -64 -68 0
v -65 -69 0
v -66 -69 0
v -66 -68 0
v -65 -68 0
v -66 -69 0
v -67 -69 0
v -67 -68 0
v -66 -68 0
v -67 -69 0
v -68 -69 0
v -68 -68 0
v -67 -68 0
v -68 -69 0
v -69 -69 0
v -69 -68 0
v -68 -68 0
v -69 -69 0
v -70 -69 0
v -70 -68 0
v -69 -68 0
v -70 -69 0
v -71 -69 0
v -71 -68 0
v -70 -68 0
v -71 -69 0
v -72 -69 0
v -72 -68 0
v -71 -68 0
v -72 -69 0
v -73 -69 0
v -73 -68 0
v -72 -68 0
v -57 -70 0
v -58 -70 0
v -58 -69 0
v -57 -69 0
v -58 -70 0
v -59 -70 0
v -59 -69 0
v -58 -69 0
v -59 -70 0
v -60 -70 0
v -60 -69 0
v -59 -69 0
v -60 -70 0
v -61 -70 0
v -61 -69 0
v -60 -69 0
v -61 -70 0
v -62 -70 0
v -62 -69 0
v -61 -69 0
v -62 -70 0
v -63 -70 0
v -63 -69 0
v -62 -69 0
v -63 -70 0
v -64 -70 0
v -64 -69 0
v -63 -69 0
v -64 -70 0
v -65 -70 0
v -65 -69 0
v -64 -69 0
v -65 -70 0
v -66 -70 0
v -66 -69 0
v -65 -69 0
v -66 -70 0
v -67 -70 0
v -67 -69 0
v -66 -69 0
v -67 -70 0
v -68 -70 0
v -68 -69 0
v -67 -69 0
v -68 -70 0
v -69 -70 0
v -69 -69 0
v -68 -69 0
v -69 -70 0
v -70 -70 0
v -70 -69 0
v -69 -69 0
v -70 -70 0
v -71 -70 0
v -71 -69 0
v -70 -69 0
v -71 -70 0
v -72 -70 0
v -72 -69 0
v -71 -69 0
v -72 -70 0
v -73 -70 0
v -73 -69 0
v -72 -69 0
v -57 -71 0
v -58 -71 0
v -58 -70 0
v -57 -70 0
v -58 -71 0
v -59 -71 0
v -59 -70 0
v -58 -70 0
v -59 -71 0
v -60 -71 0
v -60 -70 0
v -59 -70 0
v -60 -71 0
v -61 -71 0
v -61 -70 0
v -60 -70 0
v -61 -71 0
v -62 -71 0
v -62 -70 0
v -61 -70 0
v -62 -71 0
v -63 -71 0
v -63 -70 0
v -62 -70 0
v -63 -71 0
v -64 -71 0
v -64 -70 0
v -63 -70 0
v -64 -71 0
v -65 -71 0
v -65 -70 0
v -64 -70 0
v -65 -71 0
v -66 -71 0
v -66 -70 0
v -65 -70 0
v -66 -71 0
v -67 -71 0
v -67 -70 0
v -66 -70 0
v -67 -71 0
v -68 -71 0
v -68 -70 0
v -67 -70 0
v -68 -71 0
v -69 -71 0
v -69 -70 0
v -68 -70 0
v -69 -71 0
v -70 -71 0
v -70 -70 0
v -69 -70 0
v -70 -71 0
v -71 -71 0
v -71 -70 0
v -70 -70 0
v -71 -71 0
v -72 -71 0
v -72 -70 0
v -71 -70 0
v -72 -71 0
v -73 -71 0
v -73 -70 0
v -72 -70 0
v -57 -72 0
v -58 -72 0
v -58 -71 0
v -57 -71 0
v -58 -72 0
v -59 -72 0
v -59 -71 0
v -58 -71 0
v -59 -72 0
v -60 -72 0
v -60 -71 0
v -59 -71 0
v -60 -72 0
v -61 -72 0
v -61 -71 0
v -60 -71 0
v -61 -72 0
v -62 -72 0
v -62 -71 0
v -61 -71 0
v -62 -72 0
v -63 -72 0
v -63 -71 0
v -62 -71 0
v -63 -72 0
v -64 -72 0
v -64 -71 0
v -63 -71 0
v -64 -72 0
v -65 -72 0
v -65 -71 0
v -64 -71 0
v -65 -72 0
v -66 -72 0
v -66 -71 0
v -65 -71 0
v -66 -72 0
v -67 -72 0
v -67 -71 0
v -66 -71 0
v -67 -72 0
v -68 -72 0
v -68 -71 0
v -67 -71 0
v -68 -72 0
v -69 -72 0
v -69 -71 0
v -68 -71 0
v -69 -72 0
v -70 -72 0
v -70 -71 0
v -69 -71 0
v -70 -72 0
v -71 -72 0
v -71 -71 0
v -70 -71 0
v -71 -72 0
v -72 -72 0
v -72 -71 0
v -71 -71 0
v -72 -72 0
v -73 -72 0
v -73 -71 0
v -72 -71 0
v -57 -73 0
v -58 -73 0
v -58 -72 0
v -57 -72 0
v -58 -73 0
v -59 -73 0
v -59 -72 0
v -58 -72 0
v -59 -73 0
v -60 -73 0
v -60 -72 0
v -59 -72 0
v -60 -73 0
v -61 -73 0
v -61 -72 0
v -60 -72 0
v -61 -73 0
v -62 -73 0
v -62 -72 0
v -61 -72 0
v -62 -73 0
v -63 -73 0
v -63 -72 0
v -62 -72 0
v -63 -73 0
v -64 -73 0
v -64 -72 0
v -63 -72 0
v -64 -73 0
v -65 -73 0
v -65 -72 0
v -64 -72 0
v -65 -73 0
v -66 -73 0
v -66 -72 0
v -65 -72 0
v -66 -73 0
v -67 -73 0
v -67 -72 0
v -66 -72 0
v -67 -73 0
v -68 -73 0
v -68 -72 0
v -67 -72 0
v -68 -73 0
v -69 -73 0
v -69 -72 0
v -68 -72 0
v -69 -73 0
v -70 -73 0
v -70 -72 0
v -69 -72 0
v -70 -73 0
v -71 -73 0
v -71 -72 0
v -70 -72 0
v -71 -73 0
v -72 -73 0
v -72 -72 0
v -71 -72 0
v -72 -73 0
v -73 -73 0
v -73 -72 0
v -72 -72 0
v -57 -74 0
v -58 -74 0
v -58 -73 0
v -57 -73 0
v -58 -74 0
v -59 -74 0
v -59 -73 0
v -58 -73 0
v -59 -74 0
v -60 -74 0
v -60 -73 0
v -59 -73 0
v -60 -74 0
v -61 -74 0
v -61 -73 0
v -60 -73 0
v -61 -74 0
v -62 -74 0
v -62 -73 0
v -61 -73 0
v -62 -74 0
v -63 -74 0
v -63 -73 0
v -62 -73 0
v -63 -74 0
v -64 -74 0
v -64 -73 0
v -63 -73 0
v -64 -74 0
v -65 -74 0
v -65 -73 0
v -64 -73 0
v -65 -74 0
v -66 -74 0
v -66 -73 0
v -65 -73 0
v -66 -74 0
v -67 -74 0
v -67 -73 0
v -66 -73 0
v -67 -74 0
v -68 -74 0
v -68 -73 0
v -67 -73 0
v -68 -74 0
v -69 -74 0
v -69 -73 0
v -68 -73 0
v -69 -74 0
v -70 -74 0
v -70 -73 0
v -69 -73 0
v -70 -74 0
v -71 -74 0
v -71 -73 0
v -70 -73 0
v -71 -74 0
v -72 -74 0
v -72 -73 0
v -71 -73 0
v -72 -74 0
v -73 -74 0
v -73 -73 0
v -72 -73 0
v -57 -75 0
v -58 -75 0
v -58 -74 0
v -57 -74 0
v -58 -75 0
v -59 -75 0
v -59 -74 0
v -58 -74 0
v -59 -75 0
v -60 -75 0
v -60 -74 0
v -59 -74 0
v -60 -75 0
v -61 -75 0
v -61 -74 0
v -60 -74 0
v -61 -75 0
v -62 -75 0
v -62 -74 0
v -61 -74 0
v -62 -75 0
v -63 -75 0
v -63 -74 0
v -62 -74 0
v -63 -75 0
v -64 -75 0
v -64 -74 0
v -63 -74 0
v -64 -75 0
v -65 -75 0
v -65 -74 0
v -64 -74 0
v -65 -75 0
v -66 -75 0
v -66 -74 0
v -65 -74 0
v -66 -75 0
v -67 -75 0
v -67 -74 0
v -66 -74 0
v -67 -75 0
v -68 -75 0
v -68 -74 0
v -67 -74 0
v -68 -75 0
v -69 -75 0
v -69 -74 0
v -68 -74 0
v -69 -75 0
v -70 -75 0
v -70 -74 0
v -69 -74 0
v -70 -75 0
v -71 -75 0
v -71 -74 0
v -70 -74 0
v -71 -75 0
v -72 -75 0
v -72 -74 0
v -71 -74 0
v -72 -75 0
v -73 -75 0
v -73 -74 0
v -72 -74 0
v -57 -76 0
v -58 -76 0
v -58 -75 0
v -57 -75 0
v -58 -76 0
v -59 -76 0
v -59 -75 0
v -58 -75 0
v -59 -76 0
v -60 -76 0
v -60 -75 0
v -59 -75 0
v -60 -76 0
v -61 -76 0
v -61 -75 0
v -60 -75 0
v -61 -76 0
v -62 -76 0
v -62 -75 0
v -61 -75 0
v -62 -76 0
v -63 -76 0
v -63 -75 0
v -62 -75 0
v -63 -76 0
v -64 -76 0
v -64 -75 0
v -63 -75 0
v -64 -76 0
v -65 -76 0
v -65 -75 0
v -64 -75 0
v -65 -76 0
v -66 -76 0
v -66 -75 0
v -65 -75 0
v -66 -76 0
v -67 -76 0
v -67 -75 0
v -66 -75 0
v -67 -76 0
v -68 -76 0
v -68 -75 0
v -67 -75 0
v -68 -76 0
v -69 -76 0
v -69 -75 0
v -68 -75 0
v -69 -76 0
v -70 -76 0
v -70 -75 0
v -69 -75 0
v -70 -76 0
v -71 -76 0
v -71 -75 0
v -70 -75 0
v -71 -76 0
v -72 -76 0
v -72 -75 0
v -71 -75 0
v -72 -76 0
v -73 -76 0
v -73 -75 0
v -72 -75 0
v -62 -77 0
v -63 -77 0
v -63 -76 0
v -62 -76 0
v -63 -77 0
v -64 -77 0
v -64 -76 0
v -63 -76 0
v -64 -77 0
v -65 -77 0
v -65 -76 0
v -64 -76 0
v -65 -77 0
v -66 -77 0
v -66 -76 0
v -65 -76 0
v -66 -77 0
v -67 -77 0
v -67 -76 0
v -66 -76 0
v -67 -77 0
v -68 -77 0
v -68 -76 0
v -67 -76 0
v -62 -78 0
v -63 -78 0
v -63 -77 0
v -62 -77 0
v -63 -78 0
v -64 -78 0
v -64 -77 0
v -63 -77 0
v -64 -78 0
v -65 -78 0
v -65 -77 0
v -64 -77 0
v -65 -78 0
v -66 -78 0
v -66 -77 0
v -65 -77 0
v -66 -78 0
v -67 -78 0
v -67 -77 0
v -66 -77 0
v -67 -78 0
v -68 -78 0
v -68 -77 0
v -67 -77 0

# Texture cooridinates (Count = 392)
vt 0.332 0.868
vt 0.396 0.868
vt 0.396 0.932
vt 0.332 0.932
vt 0.002 0.934
vt 0.066 0.934
vt 0.066 0.998
vt 0.002 0.998
vt 0.53 0.934
vt 0.594 0.934
vt 0.594 0.998
vt 0.53 0.998
vt 0.596 0.934
vt 0.66 0.934
vt 0.66 0.998
vt 0.596 0.998
vt 0.662 0.934
vt 0.726 0.934
vt 0.726 0.998
vt 0.662 0.998
vt 0.728 0.934
vt 0.792 0.934
vt 0.792 0.998
vt 0.728 0.998
vt 0.002 0.868
vt 0.066 0.868
vt 0.066 0.932
vt 0.002 0.932
vt 0.068 0.868
vt 0.132 0.868
vt 0.132 0.932
vt 0.068 0.932
vt 0.134 0.868
vt 0.198 0.868
vt 0.198 0.932
vt 0.134 0.932
vt 0.53 0.868
vt 0.594 0.868
vt 0.594 0.932
vt 0.53 0.932
vt 0.596 0.868
vt 0.66 0.868
vt 0.66 0.932
vt 0.596 0.932
vt 0.662 0.868
vt 0.726 0.868
vt 0.726 0.932
vt 0.662 0.932
vt 0.728 0.868
vt 0.792 0.868
vt 0.792 0.932
vt 0.728 0.932
vt 0.2 0.868
vt 0.264 0.868
vt 0.264 0.932
vt 0.2 0.932
vt 0.002 0.802
vt 0.066 0.802
vt 0.066 0.866
vt 0.002 0.866
vt 0.068 0.802
vt 0.132 0.802
vt 0.132 0.866
vt 0.068 0.866
vt 0.134 0.802
vt 0.198 0.802
vt 0.198 0.866
vt 0.134 0.866
vt 0.2 0.802
vt 0.264 0.802
vt 0.264 0.866
vt 0.2 0.866
vt 0.53 0.802
vt 0.594 0.802
vt 0.594 0.866
vt 0.53 0.866
vt 0.596 0.802
vt 0.66 0.802
vt 0.66 0.866
vt 0.596 0.866
vt 0.662 0.802
vt 0.726 0.802
vt 0.726 0.866
vt 0.662 0.866
vt 0.728 0.802
vt 0.792 0.802
vt 0.792 0.866
vt 0.728 0.866
vt 0.002 0.736
vt 0.066 0.736
vt 0.066 0.8
vt 0.002 0.8
vt 0.068 0.736
vt 0.132 0.736
vt 0.132 0.8
vt 0.068 0.8
vt 0.134 0.736
vt 0.198 0.736
vt 0.198 0.8
vt 0.134 0.8
vt 0.2 0.736
vt 0.264 0.736
vt 0.264 0.8
vt 0.2 0.8
vt 0.53 0.736
vt 0.594 0.736
vt 0.594 0.8
vt 0.53 0.8
vt 0.596 0.736
vt 0.66 0.736
vt 0.66 0.8
vt 0.596 0.8
vt 0.662 0.736
vt 0.726 0.736
vt 0.726 0.8
vt 0.662 0.8
vt 0.728 0.736
vt 0.792 0.736
vt 0.792 0.8
vt 0.728 0.8
vt 0.002 0.67
vt 0.066 0.67
vt 0.066 0.734
vt 0.002 0.734
vt 0.068 0.67
vt 0.132 0.67
vt 0.132 0.734
vt 0.068 0.734
vt 0.134 0.67
vt 0.198 0.67
vt 0.198 0.734
vt 0.134 0.734
vt 0.2 0.67
vt 0.264 0.67
vt 0.264 0.734
vt 0.2 0.734
vt 0.53 0.67
vt 0.594 0.67
vt 0.594 0.734
vt 0.53 0.734
vt 0.596 0.67
vt 0.66 0.67
vt 0.66 0.734
vt 0.596 0.734
vt 0.662 0.67
vt 0.726 0.67
vt 0.726 0.734
vt 0.662 0.734
vt 0.728 0.67
vt 0.792 0.67
vt 0.792 0.734
vt 0.728 0.734
vt 0.002 0.604
vt 0.066 0.604
vt 0.066 0.668
vt 0.002 0.668
vt 0.068 0.604
vt 0.132 0.604
vt 0.132 0.668
vt 0.068 0.668
vt 0.134 0.604
vt 0.198 0.604
vt 0.198 0.668
vt 0.134 0.668
vt 0.2 0.604
vt 0.264 0.604
vt 0.264 0.668
vt 0.2 0.668
vt 0.266 0.604
vt 0.33 0.604
vt 0.33 0.668
vt 0.266 0.668
vt 0.332 0.604
vt 0.396 0.604
vt 0.396 0.668
vt 0.332 0.668
vt 0.398 0.604
vt 0.462 0.604
vt 0.462 0.668
vt 0.398 0.668
vt 0.464 0.604
vt 0.528 0.604
vt 0.528 0.668
vt 0.464 0.668
vt 0.53 0.604
vt 0.594 0.604
vt 0.594 0.668
vt 0.53 0.668
vt 0.596 0.604
vt 0.66 0.604
vt 0.66 0.668
vt 0.596 0.668
vt 0.662 0.604
vt 0.726 0.604
vt 0.726 0.668
vt 0.662 0.668
vt 0.728 0.604
vt 0.792 0.604
vt 0.792 0.668
vt 0.728 0.668
vt 0.002 0.538
vt 0.066 0.538
vt 0.066 0.602
vt 0.002 0.602
vt 0.068 0.538
vt 0.132 0.538
vt 0.132 0.602
vt 0.068 0.602
vt 0.134 0.538
vt 0.198 0.538
vt 0.198 0.602
vt 0.134 0.602
vt 0.2 0.538
vt 0.264 0.538
vt 0.264 0.602
vt 0.2 0.602
vt 0.266 0.538
vt 0.33 0.538
vt 0.33 0.602
vt 0.266 0.602
vt 0.332 0.538
vt 0.396 0.538
vt 0.396 0.602
vt 0.332 0.602
vt 0.398 0.538
vt 0.462 0.538
vt 0.462 0.602
vt 0.398 0.602
vt 0.464 0.538
vt 0.528 0.538
vt 0.528 0.602
vt 0.464 0.602
vt 0.53 0.538
vt 0.594 0.538
vt 0.594 0.602
vt 0.53 0.602
vt 0.596 0.538
vt 0.66 0.538
vt 0.66 0.602
vt 0.596 0.602
vt 0.662 0.538
vt 0.726 0.538
vt 0.726 0.602
vt 0.662 0.602
vt 0.728 0.538
vt 0.792 0.538
vt 0.792 0.602
vt 0.728 0.602
vt 0.002 0.472
vt 0.066 0.472
vt 0.066 0.536
vt 0.002 0.536
vt 0.068 0.472
vt 0.132 0.472
vt 0.132 0.536
vt 0.068 0.536
vt 0.134 0.472
vt 0.198 0.472
vt 0.198 0.536
vt 0.134 0.536
vt 0.2 0.472
vt 0.264 0.472
vt 0.264 0.536
vt 0.2 0.536
vt 0.266 0.472
vt 0.33 0.472
vt 0.33 0.536
vt 0.266 0.536
vt 0.332 0.472
vt 0.396 0.472
vt 0.396 0.536
vt 0.332 0.536
vt 0.398 0.472
vt 0.462 0.472
vt 0.462 0.536
vt 0.398 0.536
vt 0.464 0.472
vt 0.528 0.472
vt 0.528 0.536
vt 0.464 0.536
vt 0.53 0.472
vt 0.594 0.472
vt 0.594 0.536
vt 0.53 0.536
vt 0.596 0.472
vt 0.66 0.472
vt 0.66 0.536
vt 0.596 0.536
vt 0.662 0.472
vt 0.726 0.472
vt 0.726 0.536
vt 0.662 0.536
vt 0.728 0.472
vt 0.792 0.472
vt 0.792 0.536
vt 0.728 0.536
vt 0.002 0.406
vt 0.066 0.406
vt 0.066 0.47
vt 0.002 0.47
vt 0.068 0.406
vt 0.132 0.406
vt 0.132 0.47
vt 0.068 0.47
vt 0.134 0.406
vt 0.198 0.406
vt 0.198 0.47
vt 0.134 0.47
vt 0.2 0.406
vt 0.264 0.406
vt 0.264 0.47
vt 0.2 0.47
vt 0.266 0.406
vt 0.33 0.406
vt 0.33 0.47
vt 0.266 0.47
vt 0.332 0.406
vt 0.396 0.406
vt 0.396 0.47
vt 0.332 0.47
vt 0.398 0.406
vt 0.462 0.406
vt 0.462 0.47
vt 0.398 0.47
vt 0.464 0.406
vt 0.528 0.406
vt 0.528 0.47
vt 0.464 0.47
vt 0.53 0.406
vt 0.594 0.406
vt 0.594 0.47
vt 0.53 0.47
vt 0.596 0.406
vt 0.66 0.406
vt 0.66 0.47
vt 0.596 0.47
vt 0.662 0.406
vt 0.726 0.406
vt 0.726 0.47
vt 0.662 0.47
vt 0.728 0.406
vt 0.792 0.406
vt 0.792 0.47
vt 0.728 0.47
vt 0.2 0.34
vt 0.264 0.34
vt 0.264 0.404
vt 0.2 0.404
vt 0.266 0.34
vt 0.33 0.34
vt 0.33 0.404
vt 0.266 0.404
vt 0.332 0.34
vt 0.396 0.34
vt 0.396 0.404
vt 0.332 0.404
vt 0.398 0.34
vt 0.462 0.34
vt 0.462 0.404
vt 0.398 0.404
vt 0.464 0.34
vt 0.528 0.34
vt 0.528 0.404
vt 0.464 0.404
vt 0.53 0.34
vt 0.594 0.34
vt 0.594 0.404
vt 0.53 0.404
vt 0.2 0.274
vt 0.264 0.274
vt 0.264 0.338
vt 0.2 0.338
vt 0.266 0.274
vt 0.33 0.274
vt 0.33 0.338
vt 0.266 0.338
vt 0.332 0.274
vt 0.396 0.274
vt 0.396 0.338
vt 0.332 0.338
vt 0.398 0.274
vt 0.462 0.274
vt 0.462 0.338
vt 0.398 0.338
vt 0.464 0.274
vt 0.528 0.274
vt 0.528 0.338
vt 0.464 0.338
vt 0.53 0.274
vt 0.594 0.274
vt 0.594 0.338
vt 0.53 0.338

# Normal
vn 0 0 -1

# Mesh description
g ???_mesh_0023

# Faces
f 1/1/1 2/2/1 3/3/1 4/4/1
f 5/5/1 6/6/1 7/7/1 8/8/1
f 9/9/1 10/10/1 11/11/1 12/12/1
f 13/9/1 14/10/1 15/11/1 16/12/1
f 17/9/1 18/10/1 19/11/1 20/12/1
f 21/9/1 22/10/1 23/11/1 24/12/1
f 25/9/1 26/10/1 27/11/1 28/12/1
f 29/9/1 30/10/1 31/11/1 32/12/1
f 33/9/1 34/10/1 35/11/1 36/12/1
f 37/9/1 38/10/1 39/11/1 40/12/1
f 41/9/1 42/10/1 43/11/1 44/12/1
f 45/9/1 46/10/1 47/11/1 48/12/1
f 49/13/1 50/14/1 51/15/1 52/16/1
f 53/9/1 54/10/1 55/11/1 56/12/1
f 57/13/1 58/14/1 59/15/1 60/16/1
f 61/17/1 62/18/1 63/19/1 64/20/1
f 65/21/1 66/22/1 67/23/1 68/24/1
f 69/25/1 70/26/1 71/27/1 72/28/1
f 73/29/1 74/30/1 75/31/1 76/32/1
f 77/29/1 78/30/1 79/31/1 80/32/1
f 81/29/1 82/30/1 83/31/1 84/32/1
f 85/29/1 86/30/1 87/31/1 88/32/1
f 89/29/1 90/30/1 91/31/1 92/32/1
f 93/33/1 94/34/1 95/35/1 96/36/1
f 97/29/1 98/30/1 99/31/1 100/32/1
f 101/33/1 102/34/1 103/35/1 104/36/1
f 105/37/1 106/38/1 107/39/1 108/40/1
f 109/41/1 110/42/1 111/43/1 112/44/1
f 113/45/1 114/46/1 115/47/1 116/48/1
f 117/45/1 118/46/1 119/47/1 120/48/1
f 121/45/1 122/46/1 123/47/1 124/48/1
f 125/45/1 126/46/1 127/47/1 128/48/1
f 129/49/1 130/50/1 131/51/1 132/52/1
f 133/25/1 134/26/1 135/27/1 136/28/1
f 137/29/1 138/30/1 139/31/1 140/32/1
f 141/29/1 142/30/1 143/31/1 144/32/1
f 145/29/1 146/30/1 147/31/1 148/32/1
f 149/37/1 150/38/1 151/39/1 152/40/1
f 153/29/1 154/30/1 155/31/1 156/32/1
f 157/29/1 158/30/1 159/31/1 160/32/1
f 161/29/1 162/30/1 163/31/1 164/32/1
f 165/29/1 166/30/1 167/31/1 168/32/1
f 169/29/1 170/30/1 171/31/1 172/32/1
f 173/29/1 174/30/1 175/31/1 176/32/1
f 177/29/1 178/30/1 179/31/1 180/32/1
f 181/33/1 182/34/1 183/35/1 184/36/1
f 185/53/1 186/54/1 187/55/1 188/56/1
f 189/37/1 190/38/1 191/39/1 192/40/1
f 193/49/1 194/50/1 195/51/1 196/52/1
f 197/25/1 198/26/1 199/27/1 200/28/1
f 201/29/1 202/30/1 203/31/1 204/32/1
f 205/29/1 206/30/1 207/31/1 208/32/1
f 209/29/1 210/30/1 211/31/1 212/32/1
f 213/41/1 214/42/1 215/43/1 216/44/1
f 217/45/1 218/46/1 219/47/1 220/48/1
f 221/45/1 222/46/1 223/47/1 224/48/1
f 225/45/1 226/46/1 227/47/1 228/48/1
f 229/45/1 230/46/1 231/47/1 232/48/1
f 233/45/1 234/46/1 235/47/1 236/48/1
f 237/45/1 238/46/1 239/47/1 240/48/1
f 241/45/1 242/46/1 243/47/1 244/48/1
f 245/45/1 246/46/1 247/47/1 248/48/1
f 249/37/1 250/38/1 251/39/1 252/40/1
f 253/37/1 254/38/1 255/39/1 256/40/1
f 257/49/1 258/50/1 259/51/1 260/52/1
f 261/25/1 262/26/1 263/27/1 264/28/1
f 265/29/1 266/30/1 267/31/1 268/32/1
f 269/29/1 270/30/1 271/31/1 272/32/1
f 273/29/1 274/30/1 275/31/1 276/32/1
f 277/33/1 278/34/1 279/35/1 280/36/1
f 281/53/1 282/54/1 283/55/1 284/56/1
f 285/37/1 286/38/1 287/39/1 288/40/1
f 289/37/1 290/38/1 291/39/1 292/40/1
f 293/37/1 294/38/1 295/39/1 296/40/1
f 297/37/1 298/38/1 299/39/1 300/40/1
f 301/37/1 302/38/1 303/39/1 304/40/1
f 305/41/1 306/42/1 307/43/1 308/44/1
f 309/45/1 310/46/1 311/47/1 312/48/1
f 313/29/1 314/30/1 315/31/1 316/32/1
f 317/29/1 318/30/1 319/31/1 320/32/1
f 321/49/1 322/50/1 323/51/1 324/52/1
f 325/57/1 326/58/1 327/59/1 328/60/1
f 329/61/1 330/62/1 331/63/1 332/64/1
f 333/61/1 334/62/1 335/63/1 336/64/1
f 337/61/1 338/62/1 339/63/1 340/64/1
f 341/65/1 342/66/1 343/67/1 344/68/1
f 345/69/1 346/70/1 347/71/1 348/72/1
f 349/73/1 350/74/1 351/75/1 352/76/1
f 353/73/1 354/74/1 355/75/1 356/76/1
f 357/73/1 358/74/1 359/75/1 360/76/1
f 361/73/1 362/74/1 363/75/1 364/76/1
f 365/73/1 366/74/1 367/75/1 368/76/1
f 369/77/1 370/78/1 371/79/1 372/80/1
f 373/81/1 374/82/1 375/83/1 376/84/1
f 377/61/1 378/62/1 379/63/1 380/64/1
f 381/61/1 382/62/1 383/63/1 384/64/1
f 385/85/1 386/86/1 387/87/1 388/88/1
f 389/89/1 390/90/1 391/91/1 392/92/1
f 393/93/1 394/94/1 395/95/1 396/96/1
f 397/93/1 398/94/1 399/95/1 400/96/1
f 401/93/1 402/94/1 403/95/1 404/96/1
f 405/97/1 406/98/1 407/99/1 408/100/1
f 409/101/1 410/102/1 411/103/1 412/104/1
f 413/105/1 414/106/1 415/107/1 416/108/1
f 417/105/1 418/106/1 419/107/1 420/108/1
f 421/105/1 422/106/1 423/107/1 424/108/1
f 425/109/1 426/110/1 427/111/1 428/112/1
f 429/105/1 430/106/1 431/107/1 432/108/1
f 433/109/1 434/110/1 435/111/1 436/112/1
f 437/113/1 438/114/1 439/115/1 440/116/1
f 441/93/1 442/94/1 443/95/1 444/96/1
f 445/93/1 446/94/1 447/95/1 448/96/1
f 449/117/1 450/118/1 451/119/1 452/120/1
f 453/121/1 454/122/1 455/123/1 456/124/1
f 457/125/1 458/126/1 459/127/1 460/128/1
f 461/125/1 462/126/1 463/127/1 464/128/1
f 465/125/1 466/126/1 467/127/1 468/128/1
f 469/129/1 470/130/1 471/131/1 472/132/1
f 473/133/1 474/134/1 475/135/1 476/136/1
f 477/137/1 478/138/1 479/139/1 480/140/1
f 481/137/1 482/138/1 483/139/1 484/140/1
f 485/137/1 486/138/1 487/139/1 488/140/1
f 489/141/1 490/142/1 491/143/1 492/144/1
f 493/137/1 494/138/1 495/139/1 496/140/1
f 497/141/1 498/142/1 499/143/1 500/144/1
f 501/145/1 502/146/1 503/147/1 504/148/1
f 505/125/1 506/126/1 507/127/1 508/128/1
f 509/125/1 510/126/1 511/127/1 512/128/1
f 513/149/1 514/150/1 515/151/1 516/152/1
f 517/153/1 518/154/1 519/155/1 520/156/1
f 521/157/1 522/158/1 523/159/1 524/160/1
f 525/157/1 526/158/1 527/159/1 528/160/1
f 529/157/1 530/158/1 531/159/1 532/160/1
f 533/161/1 534/162/1 535/163/1 536/164/1
f 537/165/1 538/166/1 539/167/1 540/168/1
f 541/169/1 542/170/1 543/171/1 544/172/1
f 545/173/1 546/174/1 547/175/1 548/176/1
f 549/177/1 550/178/1 551/179/1 552/180/1
f 553/181/1 554/182/1 555/183/1 556/184/1
f 557/185/1 558/186/1 559/187/1 560/188/1
f 561/189/1 562/190/1 563/191/1 564/192/1
f 565/193/1 566/194/1 567/195/1 568/196/1
f 569/157/1 570/158/1 571/159/1 572/160/1
f 573/157/1 574/158/1 575/159/1 576/160/1
f 577/197/1 578/198/1 579/199/1 580/200/1
f 581/201/1 582/202/1 583/203/1 584/204/1
f 585/205/1 586/206/1 587/207/1 588/208/1
f 589/205/1 590/206/1 591/207/1 592/208/1
f 593/205/1 594/206/1 595/207/1 596/208/1
f 597/209/1 598/210/1 599/211/1 600/212/1
f 601/213/1 602/214/1 603/215/1 604/216/1
f 605/217/1 606/218/1 607/219/1 608/220/1
f 609/221/1 610/222/1 611/223/1 612/224/1
f 613/225/1 614/226/1 615/227/1 616/228/1
f 617/229/1 618/230/1 619/231/1 620/232/1
f 621/233/1 622/234/1 623/235/1 624/236/1
f 625/237/1 626/238/1 627/239/1 628/240/1
f 629/241/1 630/242/1 631/243/1 632/244/1
f 633/205/1 634/206/1 635/207/1 636/208/1
f 637/205/1 638/206/1 639/207/1 640/208/1
f 641/245/1 642/246/1 643/247/1 644/248/1
f 645/249/1 646/250/1 647/251/1 648/252/1
f 649/253/1 650/254/1 651/255/1 652/256/1
f 653/253/1 654/254/1 655/255/1 656/256/1
f 657/253/1 658/254/1 659/255/1 660/256/1
f 661/257/1 662/258/1 663/259/1 664/260/1
f 665/261/1 666/262/1 667/263/1 668/264/1
f 669/265/1 670/266/1 671/267/1 672/268/1
f 673/269/1 674/270/1 675/271/1 676/272/1
f 677/273/1 678/274/1 679/275/1 680/276/1
f 681/277/1 682/278/1 683/279/1 684/280/1
f 685/281/1 686/282/1 687/283/1 688/284/1
f 689/285/1 690/286/1 691/287/1 692/288/1
f 693/289/1 694/290/1 695/291/1 696/292/1
f 697/253/1 698/254/1 699/255/1 700/256/1
f 701/253/1 702/254/1 703/255/1 704/256/1
f 705/293/1 706/294/1 707/295/1 708/296/1
f 709/297/1 710/298/1 711/299/1 712/300/1
f 713/301/1 714/302/1 715/303/1 716/304/1
f 717/301/1 718/302/1 719/303/1 720/304/1
f 721/301/1 722/302/1 723/303/1 724/304/1
f 725/305/1 726/306/1 727/307/1 728/308/1
f 729/309/1 730/310/1 731/311/1 732/312/1
f 733/313/1 734/314/1 735/315/1 736/316/1
f 737/317/1 738/318/1 739/319/1 740/320/1
f 741/321/1 742/322/1 743/323/1 744/324/1
f 745/325/1 746/326/1 747/327/1 748/328/1
f 749/329/1 750/330/1 751/331/1 752/332/1
f 753/333/1 754/334/1 755/335/1 756/336/1
f 757/337/1 758/338/1 759/339/1 760/340/1
f 761/301/1 762/302/1 763/303/1 764/304/1
f 765/301/1 766/302/1 767/303/1 768/304/1
f 769/341/1 770/342/1 771/343/1 772/344/1
f 773/345/1 774/346/1 775/347/1 776/348/1
f 777/349/1 778/350/1 779/351/1 780/352/1
f 781/353/1 782/354/1 783/355/1 784/356/1
f 785/357/1 786/358/1 787/359/1 788/360/1
f 789/361/1 790/362/1 791/363/1 792/364/1
f 793/365/1 794/366/1 795/367/1 796/368/1
f 797/369/1 798/370/1 799/371/1 800/372/1
f 801/373/1 802/374/1 803/375/1 804/376/1
f 805/377/1 806/378/1 807/379/1 808/380/1
f 809/381/1 810/382/1 811/383/1 812/384/1
f 813/385/1 814/386/1 815/387/1 816/388/1
f 817/389/1 818/390/1 819/391/1 820/392/1

