# Tiled2Unity generated file. Do not modify by hand.
# Wavefront file for '???_mesh_0012.obj'

# Vertices (Count = 532)
v -2 -4 0
v -3 -4 0
v -3 -3 0
v -2 -3 0
v -3 -4 0
v -4 -4 0
v -4 -3 0
v -3 -3 0
v -2 -5 0
v -3 -5 0
v -3 -4 0
v -2 -4 0
v -3 -5 0
v -4 -5 0
v -4 -4 0
v -3 -4 0
v -7 -16 0
v -8 -16 0
v -8 -15 0
v -7 -15 0
v -8 -16 0
v -9 -16 0
v -9 -15 0
v -8 -15 0
v -7 -17 0
v -8 -17 0
v -8 -16 0
v -7 -16 0
v -8 -17 0
v -9 -17 0
v -9 -16 0
v -8 -16 0
v -14 -18 0
v -15 -18 0
v -15 -17 0
v -14 -17 0
v -15 -18 0
v -16 -18 0
v -16 -17 0
v -15 -17 0
v -16 -18 0
v -17 -18 0
v -17 -17 0
v -16 -17 0
v -2 -19 0
v -3 -19 0
v -3 -18 0
v -2 -18 0
v -3 -19 0
v -4 -19 0
v -4 -18 0
v -3 -18 0
v -14 -19 0
v -15 -19 0
v -15 -18 0
v -14 -18 0
v -15 -19 0
v -16 -19 0
v -16 -18 0
v -15 -18 0
v -16 -19 0
v -17 -19 0
v -17 -18 0
v -16 -18 0
v -2 -20 0
v -3 -20 0
v -3 -19 0
v -2 -19 0
v -3 -20 0
v -4 -20 0
v -4 -19 0
v -3 -19 0
v -14 -20 0
v -15 -20 0
v -15 -19 0
v -14 -19 0
v -15 -20 0
v -16 -20 0
v -16 -19 0
v -15 -19 0
v -16 -20 0
v -17 -20 0
v -17 -19 0
v -16 -19 0
v -33 -30 0
v -34 -30 0
v -34 -29 0
v -33 -29 0
v -34 -30 0
v -35 -30 0
v -35 -29 0
v -34 -29 0
v -35 -30 0
v -36 -30 0
v -36 -29 0
v -35 -29 0
v -33 -31 0
v -34 -31 0
v -34 -30 0
v -33 -30 0
v -34 -31 0
v -35 -31 0
v -35 -30 0
v -34 -30 0
v -35 -31 0
v -36 -31 0
v -36 -30 0
v -35 -30 0
v -33 -32 0
v -34 -32 0
v -34 -31 0
v -33 -31 0
v -34 -32 0
v -35 -32 0
v -35 -31 0
v -34 -31 0
v -35 -32 0
v -36 -32 0
v -36 -31 0
v -35 -31 0
v -35 -38 0
v -36 -38 0
v -36 -37 0
v -35 -37 0
v -36 -38 0
v -37 -38 0
v -37 -37 0
v -36 -37 0
v -37 -38 0
v -38 -38 0
v -38 -37 0
v -37 -37 0
v -35 -39 0
v -36 -39 0
v -36 -38 0
v -35 -38 0
v -36 -39 0
v -37 -39 0
v -37 -38 0
v -36 -38 0
v -37 -39 0
v -38 -39 0
v -38 -38 0
v -37 -38 0
v -35 -40 0
v -36 -40 0
v -36 -39 0
v -35 -39 0
v -36 -40 0
v -37 -40 0
v -37 -39 0
v -36 -39 0
v -37 -40 0
v -38 -40 0
v -38 -39 0
v -37 -39 0
v -19 -45 0
v -20 -45 0
v -20 -44 0
v -19 -44 0
v -20 -45 0
v -21 -45 0
v -21 -44 0
v -20 -44 0
v -21 -45 0
v -22 -45 0
v -22 -44 0
v -21 -44 0
v -19 -46 0
v -20 -46 0
v -20 -45 0
v -19 -45 0
v -20 -46 0
v -21 -46 0
v -21 -45 0
v -20 -45 0
v -21 -46 0
v -22 -46 0
v -22 -45 0
v -21 -45 0
v -19 -47 0
v -20 -47 0
v -20 -46 0
v -19 -46 0
v -20 -47 0
v -21 -47 0
v -21 -46 0
v -20 -46 0
v -21 -47 0
v -22 -47 0
v -22 -46 0
v -21 -46 0
v -13 -52 0
v -14 -52 0
v -14 -51 0
v -13 -51 0
v -14 -52 0
v -15 -52 0
v -15 -51 0
v -14 -51 0
v -15 -52 0
v -16 -52 0
v -16 -51 0
v -15 -51 0
v -13 -53 0
v -14 -53 0
v -14 -52 0
v -13 -52 0
v -14 -53 0
v -15 -53 0
v -15 -52 0
v -14 -52 0
v -15 -53 0
v -16 -53 0
v -16 -52 0
v -15 -52 0
v -13 -54 0
v -14 -54 0
v -14 -53 0
v -13 -53 0
v -14 -54 0
v -15 -54 0
v -15 -53 0
v -14 -53 0
v -15 -54 0
v -16 -54 0
v -16 -53 0
v -15 -53 0
v -1 -58 0
v -2 -58 0
v -2 -57 0
v -1 -57 0
v -2 -58 0
v -3 -58 0
v -3 -57 0
v -2 -57 0
v -3 -58 0
v -4 -58 0
v -4 -57 0
v -3 -57 0
v -1 -59 0
v -2 -59 0
v -2 -58 0
v -1 -58 0
v -2 -59 0
v -3 -59 0
v -3 -58 0
v -2 -58 0
v -3 -59 0
v -4 -59 0
v -4 -58 0
v -3 -58 0
v -34 -59 0
v -35 -59 0
v -35 -58 0
v -34 -58 0
v -35 -59 0
v -36 -59 0
v -36 -58 0
v -35 -58 0
v -36 -59 0
v -37 -59 0
v -37 -58 0
v -36 -58 0
v -1 -60 0
v -2 -60 0
v -2 -59 0
v -1 -59 0
v -2 -60 0
v -3 -60 0
v -3 -59 0
v -2 -59 0
v -3 -60 0
v -4 -60 0
v -4 -59 0
v -3 -59 0
v -10 -60 0
v -11 -60 0
v -11 -59 0
v -10 -59 0
v -11 -60 0
v -12 -60 0
v -12 -59 0
v -11 -59 0
v -34 -60 0
v -35 -60 0
v -35 -59 0
v -34 -59 0
v -35 -60 0
v -36 -60 0
v -36 -59 0
v -35 -59 0
v -36 -60 0
v -37 -60 0
v -37 -59 0
v -36 -59 0
v -10 -61 0
v -11 -61 0
v -11 -60 0
v -10 -60 0
v -11 -61 0
v -12 -61 0
v -12 -60 0
v -11 -60 0
v -34 -61 0
v -35 -61 0
v -35 -60 0
v -34 -60 0
v -35 -61 0
v -36 -61 0
v -36 -60 0
v -35 -60 0
v -36 -61 0
v -37 -61 0
v -37 -60 0
v -36 -60 0
v -34 -62 0
v -35 -62 0
v -35 -61 0
v -34 -61 0
v -35 -62 0
v -36 -62 0
v -36 -61 0
v -35 -61 0
v -36 -62 0
v -37 -62 0
v -37 -61 0
v -36 -61 0
v -31 -65 0
v -32 -65 0
v -32 -64 0
v -31 -64 0
v -25 -66 0
v -26 -66 0
v -26 -65 0
v -25 -65 0
v -26 -66 0
v -27 -66 0
v -27 -65 0
v -26 -65 0
v -27 -66 0
v -28 -66 0
v -28 -65 0
v -27 -65 0
v -25 -67 0
v -26 -67 0
v -26 -66 0
v -25 -66 0
v -26 -67 0
v -27 -67 0
v -27 -66 0
v -26 -66 0
v -27 -67 0
v -28 -67 0
v -28 -66 0
v -27 -66 0
v -25 -68 0
v -26 -68 0
v -26 -67 0
v -25 -67 0
v -26 -68 0
v -27 -68 0
v -27 -67 0
v -26 -67 0
v -27 -68 0
v -28 -68 0
v -28 -67 0
v -27 -67 0
v -1 -70 0
v -2 -70 0
v -2 -69 0
v -1 -69 0
v -2 -70 0
v -3 -70 0
v -3 -69 0
v -2 -69 0
v -3 -70 0
v -4 -70 0
v -4 -69 0
v -3 -69 0
v -1 -71 0
v -2 -71 0
v -2 -70 0
v -1 -70 0
v -2 -71 0
v -3 -71 0
v -3 -70 0
v -2 -70 0
v -3 -71 0
v -4 -71 0
v -4 -70 0
v -3 -70 0
v -33 -71 0
v -34 -71 0
v -34 -70 0
v -33 -70 0
v -34 -71 0
v -35 -71 0
v -35 -70 0
v -34 -70 0
v -1 -72 0
v -2 -72 0
v -2 -71 0
v -1 -71 0
v -2 -72 0
v -3 -72 0
v -3 -71 0
v -2 -71 0
v -3 -72 0
v -4 -72 0
v -4 -71 0
v -3 -71 0
v -33 -72 0
v -34 -72 0
v -34 -71 0
v -33 -71 0
v -34 -72 0
v -35 -72 0
v -35 -71 0
v -34 -71 0
v -38 -73 0
v -39 -73 0
v -39 -72 0
v -38 -72 0
v -19 -78 0
v -20 -78 0
v -20 -77 0
v -19 -77 0
v -20 -78 0
v -21 -78 0
v -21 -77 0
v -20 -77 0
v -21 -78 0
v -22 -78 0
v -22 -77 0
v -21 -77 0
v -19 -79 0
v -20 -79 0
v -20 -78 0
v -19 -78 0
v -20 -79 0
v -21 -79 0
v -21 -78 0
v -20 -78 0
v -21 -79 0
v -22 -79 0
v -22 -78 0
v -21 -78 0
v -30 -79 0
v -31 -79 0
v -31 -78 0
v -30 -78 0
v -31 -79 0
v -32 -79 0
v -32 -78 0
v -31 -78 0
v -32 -79 0
v -33 -79 0
v -33 -78 0
v -32 -78 0
v -19 -80 0
v -20 -80 0
v -20 -79 0
v -19 -79 0
v -20 -80 0
v -21 -80 0
v -21 -79 0
v -20 -79 0
v -21 -80 0
v -22 -80 0
v -22 -79 0
v -21 -79 0
v -30 -80 0
v -31 -80 0
v -31 -79 0
v -30 -79 0
v -31 -80 0
v -32 -80 0
v -32 -79 0
v -31 -79 0
v -32 -80 0
v -33 -80 0
v -33 -79 0
v -32 -79 0
v -37 -80 0
v -38 -80 0
v -38 -79 0
v -37 -79 0
v -38 -80 0
v -39 -80 0
v -39 -79 0
v -38 -79 0
v -39 -80 0
v -40 -80 0
v -40 -79 0
v -39 -79 0
v -30 -81 0
v -31 -81 0
v -31 -80 0
v -30 -80 0
v -31 -81 0
v -32 -81 0
v -32 -80 0
v -31 -80 0
v -32 -81 0
v -33 -81 0
v -33 -80 0
v -32 -80 0
v -37 -81 0
v -38 -81 0
v -38 -80 0
v -37 -80 0
v -38 -81 0
v -39 -81 0
v -39 -80 0
v -38 -80 0
v -39 -81 0
v -40 -81 0
v -40 -80 0
v -39 -80 0
v -37 -82 0
v -38 -82 0
v -38 -81 0
v -37 -81 0
v -38 -82 0
v -39 -82 0
v -39 -81 0
v -38 -81 0
v -39 -82 0
v -40 -82 0
v -40 -81 0
v -39 -81 0

# Texture cooridinates (Count = 176)
vt 0.078125 0.3592233
vt 0.103125 0.3592233
vt 0.103125 0.3980582
vt 0.078125 0.3980582
vt 0.1039063 0.3592233
vt 0.1289063 0.3592233
vt 0.1289063 0.3980582
vt 0.1039063 0.3980582
vt 0.078125 0.3191748
vt 0.103125 0.3191748
vt 0.103125 0.3580097
vt 0.078125 0.3580097
vt 0.1039063 0.3191748
vt 0.1289063 0.3191748
vt 0.1289063 0.3580097
vt 0.1039063 0.3580097
vt 0.18125 0.3992718
vt 0.20625 0.3992718
vt 0.20625 0.4381068
vt 0.18125 0.4381068
vt 0.2070313 0.3992718
vt 0.2320313 0.3992718
vt 0.2320313 0.4381068
vt 0.2070313 0.4381068
vt 0.2328125 0.3992718
vt 0.2578125 0.3992718
vt 0.2578125 0.4381068
vt 0.2328125 0.4381068
vt 0.18125 0.3592233
vt 0.20625 0.3592233
vt 0.20625 0.3980582
vt 0.18125 0.3980582
vt 0.2070313 0.3592233
vt 0.2320313 0.3592233
vt 0.2320313 0.3980582
vt 0.2070313 0.3980582
vt 0.2328125 0.3592233
vt 0.2578125 0.3592233
vt 0.2578125 0.3980582
vt 0.2328125 0.3980582
vt 0.18125 0.3191748
vt 0.20625 0.3191748
vt 0.20625 0.3580097
vt 0.18125 0.3580097
vt 0.2070313 0.3191748
vt 0.2320313 0.3191748
vt 0.2320313 0.3580097
vt 0.2070313 0.3580097
vt 0.2328125 0.3191748
vt 0.2578125 0.3191748
vt 0.2578125 0.3580097
vt 0.2328125 0.3580097
vt 0.284375 0.3992718
vt 0.309375 0.3992718
vt 0.309375 0.4381068
vt 0.284375 0.4381068
vt 0.3101563 0.3992718
vt 0.3351563 0.3992718
vt 0.3351563 0.4381068
vt 0.3101563 0.4381068
vt 0.3359375 0.3992718
vt 0.3609375 0.3992718
vt 0.3609375 0.4381068
vt 0.3359375 0.4381068
vt 0.284375 0.3592233
vt 0.309375 0.3592233
vt 0.309375 0.3980582
vt 0.284375 0.3980582
vt 0.3101563 0.3592233
vt 0.3351563 0.3592233
vt 0.3351563 0.3980582
vt 0.3101563 0.3980582
vt 0.3359375 0.3592233
vt 0.3609375 0.3592233
vt 0.3609375 0.3980582
vt 0.3359375 0.3980582
vt 0.284375 0.3191748
vt 0.309375 0.3191748
vt 0.309375 0.3580097
vt 0.284375 0.3580097
vt 0.3101563 0.3191748
vt 0.3351563 0.3191748
vt 0.3351563 0.3580097
vt 0.3101563 0.3580097
vt 0.3359375 0.3191748
vt 0.3609375 0.3191748
vt 0.3609375 0.3580097
vt 0.3359375 0.3580097
vt 0.284375 0.559466
vt 0.309375 0.559466
vt 0.309375 0.5983009
vt 0.284375 0.5983009
vt 0.3101563 0.559466
vt 0.3351563 0.559466
vt 0.3351563 0.5983009
vt 0.3101563 0.5983009
vt 0.3359375 0.559466
vt 0.3609375 0.559466
vt 0.3609375 0.5983009
vt 0.3359375 0.5983009
vt 0.284375 0.5194175
vt 0.309375 0.5194175
vt 0.309375 0.5582525
vt 0.284375 0.5582525
vt 0.3101563 0.5194175
vt 0.3351563 0.5194175
vt 0.3351563 0.5582525
vt 0.3101563 0.5582525
vt 0.3359375 0.5194175
vt 0.3609375 0.5194175
vt 0.3609375 0.5582525
vt 0.3359375 0.5582525
vt 0.284375 0.4793689
vt 0.309375 0.4793689
vt 0.309375 0.5182039
vt 0.284375 0.5182039
vt 0.3101563 0.4793689
vt 0.3351563 0.4793689
vt 0.3351563 0.5182039
vt 0.3101563 0.5182039
vt 0.3359375 0.4793689
vt 0.3609375 0.4793689
vt 0.3609375 0.5182039
vt 0.3359375 0.5182039
vt 0.284375 0.4393204
vt 0.309375 0.4393204
vt 0.309375 0.4781553
vt 0.284375 0.4781553
vt 0.3101563 0.4393204
vt 0.3351563 0.4393204
vt 0.3351563 0.4781553
vt 0.3101563 0.4781553
vt 0.3359375 0.4393204
vt 0.3609375 0.4393204
vt 0.3609375 0.4781553
vt 0.3359375 0.4781553
vt 0.1296875 0.3592233
vt 0.1546875 0.3592233
vt 0.1546875 0.3980582
vt 0.1296875 0.3980582
vt 0.18125 0.5194175
vt 0.20625 0.5194175
vt 0.20625 0.5582525
vt 0.18125 0.5582525
vt 0.2070313 0.5194175
vt 0.2320313 0.5194175
vt 0.2320313 0.5582525
vt 0.2070313 0.5582525
vt 0.2328125 0.5194175
vt 0.2578125 0.5194175
vt 0.2578125 0.5582525
vt 0.2328125 0.5582525
vt 0.18125 0.4793689
vt 0.20625 0.4793689
vt 0.20625 0.5182039
vt 0.18125 0.5182039
vt 0.2070313 0.4793689
vt 0.2320313 0.4793689
vt 0.2320313 0.5182039
vt 0.2070313 0.5182039
vt 0.2328125 0.4793689
vt 0.2578125 0.4793689
vt 0.2578125 0.5182039
vt 0.2328125 0.5182039
vt 0.18125 0.4393204
vt 0.20625 0.4393204
vt 0.20625 0.4781553
vt 0.18125 0.4781553
vt 0.2070313 0.4393204
vt 0.2320313 0.4393204
vt 0.2320313 0.4781553
vt 0.2070313 0.4781553
vt 0.2328125 0.4393204
vt 0.2578125 0.4393204
vt 0.2578125 0.4781553
vt 0.2328125 0.4781553

# Normal
vn 0 0 -1

# Mesh description
g ???_mesh_0012

# Faces
f 1/1/1 2/2/1 3/3/1 4/4/1
f 5/5/1 6/6/1 7/7/1 8/8/1
f 9/9/1 10/10/1 11/11/1 12/12/1
f 13/13/1 14/14/1 15/15/1 16/16/1
f 17/1/1 18/2/1 19/3/1 20/4/1
f 21/5/1 22/6/1 23/7/1 24/8/1
f 25/9/1 26/10/1 27/11/1 28/12/1
f 29/13/1 30/14/1 31/15/1 32/16/1
f 33/17/1 34/18/1 35/19/1 36/20/1
f 37/21/1 38/22/1 39/23/1 40/24/1
f 41/25/1 42/26/1 43/27/1 44/28/1
f 45/1/1 46/2/1 47/3/1 48/4/1
f 49/5/1 50/6/1 51/7/1 52/8/1
f 53/29/1 54/30/1 55/31/1 56/32/1
f 57/33/1 58/34/1 59/35/1 60/36/1
f 61/37/1 62/38/1 63/39/1 64/40/1
f 65/9/1 66/10/1 67/11/1 68/12/1
f 69/13/1 70/14/1 71/15/1 72/16/1
f 73/41/1 74/42/1 75/43/1 76/44/1
f 77/45/1 78/46/1 79/47/1 80/48/1
f 81/49/1 82/50/1 83/51/1 84/52/1
f 85/53/1 86/54/1 87/55/1 88/56/1
f 89/57/1 90/58/1 91/59/1 92/60/1
f 93/61/1 94/62/1 95/63/1 96/64/1
f 97/65/1 98/66/1 99/67/1 100/68/1
f 101/69/1 102/70/1 103/71/1 104/72/1
f 105/73/1 106/74/1 107/75/1 108/76/1
f 109/77/1 110/78/1 111/79/1 112/80/1
f 113/81/1 114/82/1 115/83/1 116/84/1
f 117/85/1 118/86/1 119/87/1 120/88/1
f 121/17/1 122/18/1 123/19/1 124/20/1
f 125/21/1 126/22/1 127/23/1 128/24/1
f 129/25/1 130/26/1 131/27/1 132/28/1
f 133/29/1 134/30/1 135/31/1 136/32/1
f 137/33/1 138/34/1 139/35/1 140/36/1
f 141/37/1 142/38/1 143/39/1 144/40/1
f 145/41/1 146/42/1 147/43/1 148/44/1
f 149/45/1 150/46/1 151/47/1 152/48/1
f 153/49/1 154/50/1 155/51/1 156/52/1
f 157/53/1 158/54/1 159/55/1 160/56/1
f 161/57/1 162/58/1 163/59/1 164/60/1
f 165/61/1 166/62/1 167/63/1 168/64/1
f 169/65/1 170/66/1 171/67/1 172/68/1
f 173/69/1 174/70/1 175/71/1 176/72/1
f 177/73/1 178/74/1 179/75/1 180/76/1
f 181/77/1 182/78/1 183/79/1 184/80/1
f 185/81/1 186/82/1 187/83/1 188/84/1
f 189/85/1 190/86/1 191/87/1 192/88/1
f 193/17/1 194/18/1 195/19/1 196/20/1
f 197/21/1 198/22/1 199/23/1 200/24/1
f 201/25/1 202/26/1 203/27/1 204/28/1
f 205/29/1 206/30/1 207/31/1 208/32/1
f 209/33/1 210/34/1 211/35/1 212/36/1
f 213/37/1 214/38/1 215/39/1 216/40/1
f 217/41/1 218/42/1 219/43/1 220/44/1
f 221/45/1 222/46/1 223/47/1 224/48/1
f 225/49/1 226/50/1 227/51/1 228/52/1
f 229/53/1 230/54/1 231/55/1 232/56/1
f 233/57/1 234/58/1 235/59/1 236/60/1
f 237/61/1 238/62/1 239/63/1 240/64/1
f 241/65/1 242/66/1 243/67/1 244/68/1
f 245/69/1 246/70/1 247/71/1 248/72/1
f 249/73/1 250/74/1 251/75/1 252/76/1
f 253/89/1 254/90/1 255/91/1 256/92/1
f 257/93/1 258/94/1 259/95/1 260/96/1
f 261/97/1 262/98/1 263/99/1 264/100/1
f 265/77/1 266/78/1 267/79/1 268/80/1
f 269/81/1 270/82/1 271/83/1 272/84/1
f 273/85/1 274/86/1 275/87/1 276/88/1
f 277/1/1 278/2/1 279/3/1 280/4/1
f 281/5/1 282/6/1 283/7/1 284/8/1
f 285/101/1 286/102/1 287/103/1 288/104/1
f 289/105/1 290/106/1 291/107/1 292/108/1
f 293/109/1 294/110/1 295/111/1 296/112/1
f 297/9/1 298/10/1 299/11/1 300/12/1
f 301/13/1 302/14/1 303/15/1 304/16/1
f 305/113/1 306/114/1 307/115/1 308/116/1
f 309/117/1 310/118/1 311/119/1 312/120/1
f 313/121/1 314/122/1 315/123/1 316/124/1
f 317/125/1 318/126/1 319/127/1 320/128/1
f 321/129/1 322/130/1 323/131/1 324/132/1
f 325/133/1 326/134/1 327/135/1 328/136/1
f 329/137/1 330/138/1 331/139/1 332/140/1
f 333/53/1 334/54/1 335/55/1 336/56/1
f 337/57/1 338/58/1 339/59/1 340/60/1
f 341/61/1 342/62/1 343/63/1 344/64/1
f 345/65/1 346/66/1 347/67/1 348/68/1
f 349/69/1 350/70/1 351/71/1 352/72/1
f 353/73/1 354/74/1 355/75/1 356/76/1
f 357/77/1 358/78/1 359/79/1 360/80/1
f 361/81/1 362/82/1 363/83/1 364/84/1
f 365/85/1 366/86/1 367/87/1 368/88/1
f 369/141/1 370/142/1 371/143/1 372/144/1
f 373/145/1 374/146/1 375/147/1 376/148/1
f 377/149/1 378/150/1 379/151/1 380/152/1
f 381/153/1 382/154/1 383/155/1 384/156/1
f 385/157/1 386/158/1 387/159/1 388/160/1
f 389/161/1 390/162/1 391/163/1 392/164/1
f 393/1/1 394/2/1 395/3/1 396/4/1
f 397/5/1 398/6/1 399/7/1 400/8/1
f 401/165/1 402/166/1 403/167/1 404/168/1
f 405/169/1 406/170/1 407/171/1 408/172/1
f 409/173/1 410/174/1 411/175/1 412/176/1
f 413/9/1 414/10/1 415/11/1 416/12/1
f 417/13/1 418/14/1 419/15/1 420/16/1
f 421/137/1 422/138/1 423/139/1 424/140/1
f 425/141/1 426/142/1 427/143/1 428/144/1
f 429/145/1 430/146/1 431/147/1 432/148/1
f 433/149/1 434/150/1 435/151/1 436/152/1
f 437/153/1 438/154/1 439/155/1 440/156/1
f 441/157/1 442/158/1 443/159/1 444/160/1
f 445/161/1 446/162/1 447/163/1 448/164/1
f 449/141/1 450/142/1 451/143/1 452/144/1
f 453/145/1 454/146/1 455/147/1 456/148/1
f 457/149/1 458/150/1 459/151/1 460/152/1
f 461/165/1 462/166/1 463/167/1 464/168/1
f 465/169/1 466/170/1 467/171/1 468/172/1
f 469/173/1 470/174/1 471/175/1 472/176/1
f 473/153/1 474/154/1 475/155/1 476/156/1
f 477/157/1 478/158/1 479/159/1 480/160/1
f 481/161/1 482/162/1 483/163/1 484/164/1
f 485/17/1 486/18/1 487/19/1 488/20/1
f 489/21/1 490/22/1 491/23/1 492/24/1
f 493/25/1 494/26/1 495/27/1 496/28/1
f 497/165/1 498/166/1 499/167/1 500/168/1
f 501/169/1 502/170/1 503/171/1 504/172/1
f 505/173/1 506/174/1 507/175/1 508/176/1
f 509/29/1 510/30/1 511/31/1 512/32/1
f 513/33/1 514/34/1 515/35/1 516/36/1
f 517/37/1 518/38/1 519/39/1 520/40/1
f 521/41/1 522/42/1 523/43/1 524/44/1
f 525/45/1 526/46/1 527/47/1 528/48/1
f 529/49/1 530/50/1 531/51/1 532/52/1

