# Tiled2Unity generated file. Do not modify by hand.
# Wavefront file for 'keshi_mesh_0007.obj'

# Vertices (Count = 16)
v -2 -2 0
v -2.5 -2 0
v -2.5 -1.5 0
v -2 -1.5 0
v -2.5 -2 0
v -3 -2 0
v -3 -1.5 0
v -2.5 -1.5 0
v -2 -2.5 0
v -2.5 -2.5 0
v -2.5 -2 0
v -2 -2 0
v -2.5 -2.5 0
v -3 -2.5 0
v -3 -2 0
v -2.5 -2 0

# Texture cooridinates (Count = 16)
vt 0.003333333 0.835
vt 0.11 0.835
vt 0.11 0.995
vt 0.003333333 0.995
vt 0.1133333 0.835
vt 0.22 0.835
vt 0.22 0.995
vt 0.1133333 0.995
vt 0.003333333 0.67
vt 0.11 0.67
vt 0.11 0.83
vt 0.003333333 0.83
vt 0.1133333 0.67
vt 0.22 0.67
vt 0.22 0.83
vt 0.1133333 0.83

# Normal
vn 0 0 -1

# Mesh description
g keshi_mesh_0007

# Faces
f 1/1/1 2/2/1 3/3/1 4/4/1
f 5/5/1 6/6/1 7/7/1 8/8/1
f 9/9/1 10/10/1 11/11/1 12/12/1
f 13/13/1 14/14/1 15/15/1 16/16/1

