# Tiled2Unity generated file. Do not modify by hand.
# Wavefront file for '2222_mesh_0030.obj'

# Vertices (Count = 56)
v -25.6 -19.84 0
v -25.92 -19.84 0
v -25.92 -19.52 0
v -25.6 -19.52 0
v -26.24 -19.84 0
v -26.56 -19.84 0
v -26.56 -19.52 0
v -26.24 -19.52 0
v -26.56 -19.84 0
v -26.88 -19.84 0
v -26.88 -19.52 0
v -26.56 -19.52 0
v -27.2 -19.84 0
v -27.52 -19.84 0
v -27.52 -19.52 0
v -27.2 -19.52 0
v -25.6 -20.16 0
v -25.92 -20.16 0
v -25.92 -19.84 0
v -25.6 -19.84 0
v -26.24 -20.16 0
v -26.56 -20.16 0
v -26.56 -19.84 0
v -26.24 -19.84 0
v -26.56 -20.16 0
v -26.88 -20.16 0
v -26.88 -19.84 0
v -26.56 -19.84 0
v -27.2 -20.16 0
v -27.52 -20.16 0
v -27.52 -19.84 0
v -27.2 -19.84 0
v -24.96 -20.48 0
v -25.28 -20.48 0
v -25.28 -20.16 0
v -24.96 -20.16 0
v -25.28 -20.48 0
v -25.6 -20.48 0
v -25.6 -20.16 0
v -25.28 -20.16 0
v -29.44 -20.48 0
v -29.76 -20.48 0
v -29.76 -20.16 0
v -29.44 -20.16 0
v -29.76 -20.48 0
v -30.08 -20.48 0
v -30.08 -20.16 0
v -29.76 -20.16 0
v -27.52 -22.72 0
v -27.84 -22.72 0
v -27.84 -22.4 0
v -27.52 -22.4 0
v -27.84 -22.72 0
v -28.16 -22.72 0
v -28.16 -22.4 0
v -27.84 -22.4 0

# Texture cooridinates (Count = 56)
vt 0.003623188 0.6071429
vt 0.1195652 0.6071429
vt 0.1195652 0.9880952
vt 0.003623188 0.9880952
vt 0.1231884 0.6071429
vt 0.2391304 0.6071429
vt 0.2391304 0.9880952
vt 0.1231884 0.9880952
vt 0.2427536 0.6071429
vt 0.3586957 0.6071429
vt 0.3586957 0.9880952
vt 0.2427536 0.9880952
vt 0.3623188 0.6071429
vt 0.4782609 0.6071429
vt 0.4782609 0.9880952
vt 0.3623188 0.9880952
vt 0.4818841 0.2142857
vt 0.5978261 0.2142857
vt 0.5978261 0.5952381
vt 0.4818841 0.5952381
vt 0.6014493 0.2142857
vt 0.7173913 0.2142857
vt 0.7173913 0.5952381
vt 0.6014493 0.5952381
vt 0.7210145 0.2142857
vt 0.8369565 0.2142857
vt 0.8369565 0.5952381
vt 0.7210145 0.5952381
vt 0.8405797 0.2142857
vt 0.9565217 0.2142857
vt 0.9565217 0.5952381
vt 0.8405797 0.5952381
vt 0.4818841 0.6071429
vt 0.5978261 0.6071429
vt 0.5978261 0.9880952
vt 0.4818841 0.9880952
vt 0.6014493 0.6071429
vt 0.7173913 0.6071429
vt 0.7173913 0.9880952
vt 0.6014493 0.9880952
vt 0.2427536 0.2142857
vt 0.3586957 0.2142857
vt 0.3586957 0.5952381
vt 0.2427536 0.5952381
vt 0.3623188 0.2142857
vt 0.4782609 0.2142857
vt 0.4782609 0.5952381
vt 0.3623188 0.5952381
vt 0.7210145 0.6071429
vt 0.8369565 0.6071429
vt 0.8369565 0.9880952
vt 0.7210145 0.9880952
vt 0.8405797 0.6071429
vt 0.9565217 0.6071429
vt 0.9565217 0.9880952
vt 0.8405797 0.9880952

# Normal
vn 0 0 -1

# Mesh description
g 2222_mesh_0030

# Faces
f 1/1/1 2/2/1 3/3/1 4/4/1
f 5/5/1 6/6/1 7/7/1 8/8/1
f 9/9/1 10/10/1 11/11/1 12/12/1
f 13/13/1 14/14/1 15/15/1 16/16/1
f 17/17/1 18/18/1 19/19/1 20/20/1
f 21/21/1 22/22/1 23/23/1 24/24/1
f 25/25/1 26/26/1 27/27/1 28/28/1
f 29/29/1 30/30/1 31/31/1 32/32/1
f 33/33/1 34/34/1 35/35/1 36/36/1
f 37/37/1 38/38/1 39/39/1 40/40/1
f 41/41/1 42/42/1 43/43/1 44/44/1
f 45/45/1 46/46/1 47/47/1 48/48/1
f 49/49/1 50/50/1 51/51/1 52/52/1
f 53/53/1 54/54/1 55/55/1 56/56/1

