# Tiled2Unity generated file. Do not modify by hand.
# Wavefront file for '2222_mesh_0006.obj'

# Vertices (Count = 296)
v -28.8 -19.52 0
v -29.12 -19.52 0
v -29.12 -19.2 0
v -28.8 -19.2 0
v -29.12 -19.52 0
v -29.44 -19.52 0
v -29.44 -19.2 0
v -29.12 -19.2 0
v -29.44 -19.52 0
v -29.76 -19.52 0
v -29.76 -19.2 0
v -29.44 -19.2 0
v -28.8 -19.84 0
v -29.12 -19.84 0
v -29.12 -19.52 0
v -28.8 -19.52 0
v -29.12 -19.84 0
v -29.44 -19.84 0
v -29.44 -19.52 0
v -29.12 -19.52 0
v -29.44 -19.84 0
v -29.76 -19.84 0
v -29.76 -19.52 0
v -29.44 -19.52 0
v -29.76 -20.48 0
v -30.08 -20.48 0
v -30.08 -20.16 0
v -29.76 -20.16 0
v -30.08 -20.48 0
v -30.4 -20.48 0
v -30.4 -20.16 0
v -30.08 -20.16 0
v -30.4 -20.48 0
v -30.72 -20.48 0
v -30.72 -20.16 0
v -30.4 -20.16 0
v -30.72 -20.48 0
v -31.04 -20.48 0
v -31.04 -20.16 0
v -30.72 -20.16 0
v -31.04 -20.48 0
v -31.36 -20.48 0
v -31.36 -20.16 0
v -31.04 -20.16 0
v -29.76 -20.8 0
v -30.08 -20.8 0
v -30.08 -20.48 0
v -29.76 -20.48 0
v -30.08 -20.8 0
v -30.4 -20.8 0
v -30.4 -20.48 0
v -30.08 -20.48 0
v -30.4 -20.8 0
v -30.72 -20.8 0
v -30.72 -20.48 0
v -30.4 -20.48 0
v -30.72 -20.8 0
v -31.04 -20.8 0
v -31.04 -20.48 0
v -30.72 -20.48 0
v -31.04 -20.8 0
v -31.36 -20.8 0
v -31.36 -20.48 0
v -31.04 -20.48 0
v -28.8 -21.12 0
v -29.12 -21.12 0
v -29.12 -20.8 0
v -28.8 -20.8 0
v -29.12 -21.12 0
v -29.44 -21.12 0
v -29.44 -20.8 0
v -29.12 -20.8 0
v -29.44 -21.12 0
v -29.76 -21.12 0
v -29.76 -20.8 0
v -29.44 -20.8 0
v -29.76 -21.12 0
v -30.08 -21.12 0
v -30.08 -20.8 0
v -29.76 -20.8 0
v -30.08 -21.12 0
v -30.4 -21.12 0
v -30.4 -20.8 0
v -30.08 -20.8 0
v -30.4 -21.12 0
v -30.72 -21.12 0
v -30.72 -20.8 0
v -30.4 -20.8 0
v -30.72 -21.12 0
v -31.04 -21.12 0
v -31.04 -20.8 0
v -30.72 -20.8 0
v -31.04 -21.12 0
v -31.36 -21.12 0
v -31.36 -20.8 0
v -31.04 -20.8 0
v -31.36 -21.12 0
v -31.68 -21.12 0
v -31.68 -20.8 0
v -31.36 -20.8 0
v -31.68 -21.12 0
v -32 -21.12 0
v -32 -20.8 0
v -31.68 -20.8 0
v -28.8 -21.44 0
v -29.12 -21.44 0
v -29.12 -21.12 0
v -28.8 -21.12 0
v -29.12 -21.44 0
v -29.44 -21.44 0
v -29.44 -21.12 0
v -29.12 -21.12 0
v -29.44 -21.44 0
v -29.76 -21.44 0
v -29.76 -21.12 0
v -29.44 -21.12 0
v -29.76 -21.44 0
v -30.08 -21.44 0
v -30.08 -21.12 0
v -29.76 -21.12 0
v -30.08 -21.44 0
v -30.4 -21.44 0
v -30.4 -21.12 0
v -30.08 -21.12 0
v -30.4 -21.44 0
v -30.72 -21.44 0
v -30.72 -21.12 0
v -30.4 -21.12 0
v -30.72 -21.44 0
v -31.04 -21.44 0
v -31.04 -21.12 0
v -30.72 -21.12 0
v -31.04 -21.44 0
v -31.36 -21.44 0
v -31.36 -21.12 0
v -31.04 -21.12 0
v -31.36 -21.44 0
v -31.68 -21.44 0
v -31.68 -21.12 0
v -31.36 -21.12 0
v -31.68 -21.44 0
v -32 -21.44 0
v -32 -21.12 0
v -31.68 -21.12 0
v -28.8 -21.76 0
v -29.12 -21.76 0
v -29.12 -21.44 0
v -28.8 -21.44 0
v -29.12 -21.76 0
v -29.44 -21.76 0
v -29.44 -21.44 0
v -29.12 -21.44 0
v -29.44 -21.76 0
v -29.76 -21.76 0
v -29.76 -21.44 0
v -29.44 -21.44 0
v -29.76 -21.76 0
v -30.08 -21.76 0
v -30.08 -21.44 0
v -29.76 -21.44 0
v -30.08 -21.76 0
v -30.4 -21.76 0
v -30.4 -21.44 0
v -30.08 -21.44 0
v -30.4 -21.76 0
v -30.72 -21.76 0
v -30.72 -21.44 0
v -30.4 -21.44 0
v -30.72 -21.76 0
v -31.04 -21.76 0
v -31.04 -21.44 0
v -30.72 -21.44 0
v -31.04 -21.76 0
v -31.36 -21.76 0
v -31.36 -21.44 0
v -31.04 -21.44 0
v -31.36 -21.76 0
v -31.68 -21.76 0
v -31.68 -21.44 0
v -31.36 -21.44 0
v -31.68 -21.76 0
v -32 -21.76 0
v -32 -21.44 0
v -31.68 -21.44 0
v -28.8 -22.08 0
v -29.12 -22.08 0
v -29.12 -21.76 0
v -28.8 -21.76 0
v -29.12 -22.08 0
v -29.44 -22.08 0
v -29.44 -21.76 0
v -29.12 -21.76 0
v -29.44 -22.08 0
v -29.76 -22.08 0
v -29.76 -21.76 0
v -29.44 -21.76 0
v -29.76 -22.08 0
v -30.08 -22.08 0
v -30.08 -21.76 0
v -29.76 -21.76 0
v -30.08 -22.08 0
v -30.4 -22.08 0
v -30.4 -21.76 0
v -30.08 -21.76 0
v -30.4 -22.08 0
v -30.72 -22.08 0
v -30.72 -21.76 0
v -30.4 -21.76 0
v -30.72 -22.08 0
v -31.04 -22.08 0
v -31.04 -21.76 0
v -30.72 -21.76 0
v -31.04 -22.08 0
v -31.36 -22.08 0
v -31.36 -21.76 0
v -31.04 -21.76 0
v -31.36 -22.08 0
v -31.68 -22.08 0
v -31.68 -21.76 0
v -31.36 -21.76 0
v -31.68 -22.08 0
v -32 -22.08 0
v -32 -21.76 0
v -31.68 -21.76 0
v -28.8 -22.4 0
v -29.12 -22.4 0
v -29.12 -22.08 0
v -28.8 -22.08 0
v -29.12 -22.4 0
v -29.44 -22.4 0
v -29.44 -22.08 0
v -29.12 -22.08 0
v -29.44 -22.4 0
v -29.76 -22.4 0
v -29.76 -22.08 0
v -29.44 -22.08 0
v -29.76 -22.4 0
v -30.08 -22.4 0
v -30.08 -22.08 0
v -29.76 -22.08 0
v -30.08 -22.4 0
v -30.4 -22.4 0
v -30.4 -22.08 0
v -30.08 -22.08 0
v -30.4 -22.4 0
v -30.72 -22.4 0
v -30.72 -22.08 0
v -30.4 -22.08 0
v -30.72 -22.4 0
v -31.04 -22.4 0
v -31.04 -22.08 0
v -30.72 -22.08 0
v -31.04 -22.4 0
v -31.36 -22.4 0
v -31.36 -22.08 0
v -31.04 -22.08 0
v -31.36 -22.4 0
v -31.68 -22.4 0
v -31.68 -22.08 0
v -31.36 -22.08 0
v -31.68 -22.4 0
v -32 -22.4 0
v -32 -22.08 0
v -31.68 -22.08 0
v -25.92 -24.32 0
v -26.24 -24.32 0
v -26.24 -24 0
v -25.92 -24 0
v -26.24 -24.32 0
v -26.56 -24.32 0
v -26.56 -24 0
v -26.24 -24 0
v -26.56 -24.32 0
v -26.88 -24.32 0
v -26.88 -24 0
v -26.56 -24 0
v -26.88 -24.32 0
v -27.2 -24.32 0
v -27.2 -24 0
v -26.88 -24 0
v -25.92 -24.64 0
v -26.24 -24.64 0
v -26.24 -24.32 0
v -25.92 -24.32 0
v -26.24 -24.64 0
v -26.56 -24.64 0
v -26.56 -24.32 0
v -26.24 -24.32 0
v -26.56 -24.64 0
v -26.88 -24.64 0
v -26.88 -24.32 0
v -26.56 -24.32 0
v -26.88 -24.64 0
v -27.2 -24.64 0
v -27.2 -24.32 0
v -26.88 -24.32 0

# Texture cooridinates (Count = 88)
vt 0.001618123 0.6228572
vt 0.05339806 0.6228572
vt 0.05339806 0.8057142
vt 0.001618123 0.8057142
vt 0.2686084 0.6228572
vt 0.3203883 0.6228572
vt 0.3203883 0.8057142
vt 0.2686084 0.8057142
vt 0.3220065 0.6228572
vt 0.3737864 0.6228572
vt 0.3737864 0.8057142
vt 0.3220065 0.8057142
vt 0.001618123 0.2457143
vt 0.05339806 0.2457143
vt 0.05339806 0.4285714
vt 0.001618123 0.4285714
vt 0.1618123 0.05714285
vt 0.2135922 0.05714285
vt 0.2135922 0.24
vt 0.1618123 0.24
vt 0.2152104 0.05714285
vt 0.2669903 0.05714285
vt 0.2669903 0.24
vt 0.2152104 0.24
vt 0.1084142 0.8114285
vt 0.1601942 0.8114285
vt 0.1601942 0.9942857
vt 0.1084142 0.9942857
vt 0.1618123 0.8114285
vt 0.2135922 0.8114285
vt 0.2135922 0.9942857
vt 0.1618123 0.9942857
vt 0.2152104 0.8114285
vt 0.2669903 0.8114285
vt 0.2669903 0.9942857
vt 0.2152104 0.9942857
vt 0.001618123 0.4342857
vt 0.05339806 0.4342857
vt 0.05339806 0.6171429
vt 0.001618123 0.6171429
vt 0.05501618 0.4342857
vt 0.1067961 0.4342857
vt 0.1067961 0.6171429
vt 0.05501618 0.6171429
vt 0.3220065 0.4342857
vt 0.3737864 0.4342857
vt 0.3737864 0.6171429
vt 0.3220065 0.6171429
vt 0.05501618 0.6228572
vt 0.1067961 0.6228572
vt 0.1067961 0.8057142
vt 0.05501618 0.8057142
vt 0.1084142 0.6228572
vt 0.1601942 0.6228572
vt 0.1601942 0.8057142
vt 0.1084142 0.8057142
vt 0.2152104 0.6228572
vt 0.2669903 0.6228572
vt 0.2669903 0.8057142
vt 0.2152104 0.8057142
vt 0.1084142 0.4342857
vt 0.1601942 0.4342857
vt 0.1601942 0.6171429
vt 0.1084142 0.6171429
vt 0.1618123 0.4342857
vt 0.2135922 0.4342857
vt 0.2135922 0.6171429
vt 0.1618123 0.6171429
vt 0.2152104 0.4342857
vt 0.2669903 0.4342857
vt 0.2669903 0.6171429
vt 0.2152104 0.6171429
vt 0.2686084 0.4342857
vt 0.3203883 0.4342857
vt 0.3203883 0.6171429
vt 0.2686084 0.6171429
vt 0.2686084 0.2457143
vt 0.3203883 0.2457143
vt 0.3203883 0.4285714
vt 0.2686084 0.4285714
vt 0.3220065 0.2457143
vt 0.3737864 0.2457143
vt 0.3737864 0.4285714
vt 0.3220065 0.4285714
vt 0.1084142 0.05714285
vt 0.1601942 0.05714285
vt 0.1601942 0.24
vt 0.1084142 0.24

# Normal
vn 0 0 -1

# Mesh description
g 2222_mesh_0006

# Faces
f 1/1/1 2/2/1 3/3/1 4/4/1
f 5/5/1 6/6/1 7/7/1 8/8/1
f 9/9/1 10/10/1 11/11/1 12/12/1
f 13/13/1 14/14/1 15/15/1 16/16/1
f 17/17/1 18/18/1 19/19/1 20/20/1
f 21/21/1 22/22/1 23/23/1 24/24/1
f 25/25/1 26/26/1 27/27/1 28/28/1
f 29/29/1 30/30/1 31/31/1 32/32/1
f 33/29/1 34/30/1 35/31/1 36/32/1
f 37/29/1 38/30/1 39/31/1 40/32/1
f 41/33/1 42/34/1 43/35/1 44/36/1
f 45/37/1 46/38/1 47/39/1 48/40/1
f 49/41/1 50/42/1 51/43/1 52/44/1
f 53/41/1 54/42/1 55/43/1 56/44/1
f 57/41/1 58/42/1 59/43/1 60/44/1
f 61/45/1 62/46/1 63/47/1 64/48/1
f 65/1/1 66/2/1 67/3/1 68/4/1
f 69/49/1 70/50/1 71/51/1 72/52/1
f 73/49/1 74/50/1 75/51/1 76/52/1
f 77/53/1 78/54/1 79/55/1 80/56/1
f 81/41/1 82/42/1 83/43/1 84/44/1
f 85/41/1 86/42/1 87/43/1 88/44/1
f 89/41/1 90/42/1 91/43/1 92/44/1
f 93/57/1 94/58/1 95/59/1 96/60/1
f 97/5/1 98/6/1 99/7/1 100/8/1
f 101/9/1 102/10/1 103/11/1 104/12/1
f 105/37/1 106/38/1 107/39/1 108/40/1
f 109/41/1 110/42/1 111/43/1 112/44/1
f 113/61/1 114/62/1 115/63/1 116/64/1
f 117/65/1 118/66/1 119/67/1 120/68/1
f 121/41/1 122/42/1 123/43/1 124/44/1
f 125/61/1 126/62/1 127/63/1 128/64/1
f 129/65/1 130/66/1 131/67/1 132/68/1
f 133/69/1 134/70/1 135/71/1 136/72/1
f 137/73/1 138/74/1 139/75/1 140/76/1
f 141/45/1 142/46/1 143/47/1 144/48/1
f 145/37/1 146/38/1 147/39/1 148/40/1
f 149/41/1 150/42/1 151/43/1 152/44/1
f 153/41/1 154/42/1 155/43/1 156/44/1
f 157/61/1 158/62/1 159/63/1 160/64/1
f 161/65/1 162/66/1 163/67/1 164/68/1
f 165/69/1 166/70/1 167/71/1 168/72/1
f 169/73/1 170/74/1 171/75/1 172/76/1
f 173/41/1 174/42/1 175/43/1 176/44/1
f 177/41/1 178/42/1 179/43/1 180/44/1
f 181/45/1 182/46/1 183/47/1 184/48/1
f 185/37/1 186/38/1 187/39/1 188/40/1
f 189/41/1 190/42/1 191/43/1 192/44/1
f 193/61/1 194/62/1 195/63/1 196/64/1
f 197/65/1 198/66/1 199/67/1 200/68/1
f 201/69/1 202/70/1 203/71/1 204/72/1
f 205/73/1 206/74/1 207/75/1 208/76/1
f 209/73/1 210/74/1 211/75/1 212/76/1
f 213/41/1 214/42/1 215/43/1 216/44/1
f 217/41/1 218/42/1 219/43/1 220/44/1
f 221/45/1 222/46/1 223/47/1 224/48/1
f 225/13/1 226/14/1 227/15/1 228/16/1
f 229/77/1 230/78/1 231/79/1 232/80/1
f 233/77/1 234/78/1 235/79/1 236/80/1
f 237/77/1 238/78/1 239/79/1 240/80/1
f 241/77/1 242/78/1 243/79/1 244/80/1
f 245/77/1 246/78/1 247/79/1 248/80/1
f 249/77/1 250/78/1 251/79/1 252/80/1
f 253/77/1 254/78/1 255/79/1 256/80/1
f 257/77/1 258/78/1 259/79/1 260/80/1
f 261/81/1 262/82/1 263/83/1 264/84/1
f 265/25/1 266/26/1 267/27/1 268/28/1
f 269/29/1 270/30/1 271/31/1 272/32/1
f 273/29/1 274/30/1 275/31/1 276/32/1
f 277/33/1 278/34/1 279/35/1 280/36/1
f 281/85/1 282/86/1 283/87/1 284/88/1
f 285/17/1 286/18/1 287/19/1 288/20/1
f 289/17/1 290/18/1 291/19/1 292/20/1
f 293/21/1 294/22/1 295/23/1 296/24/1

