# Tiled2Unity generated file. Do not modify by hand.
# Wavefront file for '2222_mesh_0013.obj'

# Vertices (Count = 224)
v -30.72 -2.56 0
v -31.04 -2.56 0
v -31.04 -2.24 0
v -30.72 -2.24 0
v -32.96 -3.52 0
v -33.28 -3.52 0
v -33.28 -3.2 0
v -32.96 -3.2 0
v -30.08 -4.16 0
v -30.4 -4.16 0
v -30.4 -3.84 0
v -30.08 -3.84 0
v -30.4 -4.16 0
v -30.72 -4.16 0
v -30.72 -3.84 0
v -30.4 -3.84 0
v -30.08 -4.48 0
v -30.4 -4.48 0
v -30.4 -4.16 0
v -30.08 -4.16 0
v -30.4 -4.48 0
v -30.72 -4.48 0
v -30.72 -4.16 0
v -30.4 -4.16 0
v -35.84 -4.48 0
v -36.16 -4.48 0
v -36.16 -4.16 0
v -35.84 -4.16 0
v -25.92 -7.04 0
v -26.24 -7.04 0
v -26.24 -6.72 0
v -25.92 -6.72 0
v -26.24 -7.04 0
v -26.56 -7.04 0
v -26.56 -6.72 0
v -26.24 -6.72 0
v -25.92 -7.36 0
v -26.24 -7.36 0
v -26.24 -7.04 0
v -25.92 -7.04 0
v -26.24 -7.36 0
v -26.56 -7.36 0
v -26.56 -7.04 0
v -26.24 -7.04 0
v -11.52 -8.96 0
v -11.84 -8.96 0
v -11.84 -8.639999 0
v -11.52 -8.639999 0
v -7.68 -9.599999 0
v -8 -9.599999 0
v -8 -9.28 0
v -7.68 -9.28 0
v -12.48 -9.599999 0
v -12.8 -9.599999 0
v -12.8 -9.28 0
v -12.48 -9.28 0
v -35.84 -12.8 0
v -36.16 -12.8 0
v -36.16 -12.48 0
v -35.84 -12.48 0
v -36.16 -12.8 0
v -36.48 -12.8 0
v -36.48 -12.48 0
v -36.16 -12.48 0
v -35.84 -13.12 0
v -36.16 -13.12 0
v -36.16 -12.8 0
v -35.84 -12.8 0
v -36.16 -13.12 0
v -36.48 -13.12 0
v -36.48 -12.8 0
v -36.16 -12.8 0
v -22.08 -14.08 0
v -22.4 -14.08 0
v -22.4 -13.76 0
v -22.08 -13.76 0
v -22.4 -14.08 0
v -22.72 -14.08 0
v -22.72 -13.76 0
v -22.4 -13.76 0
v -22.08 -14.4 0
v -22.4 -14.4 0
v -22.4 -14.08 0
v -22.08 -14.08 0
v -22.4 -14.4 0
v -22.72 -14.4 0
v -22.72 -14.08 0
v -22.4 -14.08 0
v -16.32 -14.72 0
v -16.64 -14.72 0
v -16.64 -14.4 0
v -16.32 -14.4 0
v -16.64 -14.72 0
v -16.96 -14.72 0
v -16.96 -14.4 0
v -16.64 -14.4 0
v -16.32 -15.04 0
v -16.64 -15.04 0
v -16.64 -14.72 0
v -16.32 -14.72 0
v -16.64 -15.04 0
v -16.96 -15.04 0
v -16.96 -14.72 0
v -16.64 -14.72 0
v -36.48 -16 0
v -36.8 -16 0
v -36.8 -15.68 0
v -36.48 -15.68 0
v -36.8 -16 0
v -37.12 -16 0
v -37.12 -15.68 0
v -36.8 -15.68 0
v -36.48 -16.32 0
v -36.8 -16.32 0
v -36.8 -16 0
v -36.48 -16 0
v -36.8 -16.32 0
v -37.12 -16.32 0
v -37.12 -16 0
v -36.8 -16 0
v -34.24 -21.44 0
v -34.56 -21.44 0
v -34.56 -21.12 0
v -34.24 -21.12 0
v -34.56 -21.44 0
v -34.88 -21.44 0
v -34.88 -21.12 0
v -34.56 -21.12 0
v -34.24 -21.76 0
v -34.56 -21.76 0
v -34.56 -21.44 0
v -34.24 -21.44 0
v -34.56 -21.76 0
v -34.88 -21.76 0
v -34.88 -21.44 0
v -34.56 -21.44 0
v -36.48 -23.36 0
v -36.8 -23.36 0
v -36.8 -23.04 0
v -36.48 -23.04 0
v -6.4 -23.68 0
v -6.72 -23.68 0
v -6.72 -23.36 0
v -6.4 -23.36 0
v -6.72 -23.68 0
v -7.04 -23.68 0
v -7.04 -23.36 0
v -6.72 -23.36 0
v -6.4 -24 0
v -6.72 -24 0
v -6.72 -23.68 0
v -6.4 -23.68 0
v -6.72 -24 0
v -7.04 -24 0
v -7.04 -23.68 0
v -6.72 -23.68 0
v -9.28 -24 0
v -9.599999 -24 0
v -9.599999 -23.68 0
v -9.28 -23.68 0
v -9.599999 -24 0
v -9.92 -24 0
v -9.92 -23.68 0
v -9.599999 -23.68 0
v -34.56 -24 0
v -34.88 -24 0
v -34.88 -23.68 0
v -34.56 -23.68 0
v -9.28 -24.32 0
v -9.599999 -24.32 0
v -9.599999 -24 0
v -9.28 -24 0
v -9.599999 -24.32 0
v -9.92 -24.32 0
v -9.92 -24 0
v -9.599999 -24 0
v -22.08 -24.96 0
v -22.4 -24.96 0
v -22.4 -24.64 0
v -22.08 -24.64 0
v -22.4 -24.96 0
v -22.72 -24.96 0
v -22.72 -24.64 0
v -22.4 -24.64 0
v -18.24 -25.28 0
v -18.56 -25.28 0
v -18.56 -24.96 0
v -18.24 -24.96 0
v -18.56 -25.28 0
v -18.88 -25.28 0
v -18.88 -24.96 0
v -18.56 -24.96 0
v -22.08 -25.28 0
v -22.4 -25.28 0
v -22.4 -24.96 0
v -22.08 -24.96 0
v -22.4 -25.28 0
v -22.72 -25.28 0
v -22.72 -24.96 0
v -22.4 -24.96 0
v -28.8 -25.28 0
v -29.12 -25.28 0
v -29.12 -24.96 0
v -28.8 -24.96 0
v -29.12 -25.28 0
v -29.44 -25.28 0
v -29.44 -24.96 0
v -29.12 -24.96 0
v -18.24 -25.6 0
v -18.56 -25.6 0
v -18.56 -25.28 0
v -18.24 -25.28 0
v -18.56 -25.6 0
v -18.88 -25.6 0
v -18.88 -25.28 0
v -18.56 -25.28 0
v -28.8 -25.6 0
v -29.12 -25.6 0
v -29.12 -25.28 0
v -28.8 -25.28 0
v -29.12 -25.6 0
v -29.44 -25.6 0
v -29.44 -25.28 0
v -29.12 -25.28 0

# Texture cooridinates (Count = 20)
vt 0.4941957 0.484375
vt 0.5472637 0.484375
vt 0.5472637 0.5677084
vt 0.4941957 0.5677084
vt 0.4941957 0.65625
vt 0.5472637 0.65625
vt 0.5472637 0.7395834
vt 0.4941957 0.7395834
vt 0.5489221 0.65625
vt 0.60199 0.65625
vt 0.60199 0.7395834
vt 0.5489221 0.7395834
vt 0.4941957 0.5703125
vt 0.5472637 0.5703125
vt 0.5472637 0.6536459
vt 0.4941957 0.6536459
vt 0.5489221 0.5703125
vt 0.60199 0.5703125
vt 0.60199 0.6536459
vt 0.5489221 0.6536459

# Normal
vn 0 0 -1

# Mesh description
g 2222_mesh_0013

# Faces
f 1/1/1 2/2/1 3/3/1 4/4/1
f 5/1/1 6/2/1 7/3/1 8/4/1
f 9/5/1 10/6/1 11/7/1 12/8/1
f 13/9/1 14/10/1 15/11/1 16/12/1
f 17/13/1 18/14/1 19/15/1 20/16/1
f 21/17/1 22/18/1 23/19/1 24/20/1
f 25/1/1 26/2/1 27/3/1 28/4/1
f 29/5/1 30/6/1 31/7/1 32/8/1
f 33/9/1 34/10/1 35/11/1 36/12/1
f 37/13/1 38/14/1 39/15/1 40/16/1
f 41/17/1 42/18/1 43/19/1 44/20/1
f 45/1/1 46/2/1 47/3/1 48/4/1
f 49/1/1 50/2/1 51/3/1 52/4/1
f 53/1/1 54/2/1 55/3/1 56/4/1
f 57/5/1 58/6/1 59/7/1 60/8/1
f 61/9/1 62/10/1 63/11/1 64/12/1
f 65/13/1 66/14/1 67/15/1 68/16/1
f 69/17/1 70/18/1 71/19/1 72/20/1
f 73/5/1 74/6/1 75/7/1 76/8/1
f 77/9/1 78/10/1 79/11/1 80/12/1
f 81/13/1 82/14/1 83/15/1 84/16/1
f 85/17/1 86/18/1 87/19/1 88/20/1
f 89/5/1 90/6/1 91/7/1 92/8/1
f 93/9/1 94/10/1 95/11/1 96/12/1
f 97/13/1 98/14/1 99/15/1 100/16/1
f 101/17/1 102/18/1 103/19/1 104/20/1
f 105/5/1 106/6/1 107/7/1 108/8/1
f 109/9/1 110/10/1 111/11/1 112/12/1
f 113/13/1 114/14/1 115/15/1 116/16/1
f 117/17/1 118/18/1 119/19/1 120/20/1
f 121/5/1 122/6/1 123/7/1 124/8/1
f 125/9/1 126/10/1 127/11/1 128/12/1
f 129/13/1 130/14/1 131/15/1 132/16/1
f 133/17/1 134/18/1 135/19/1 136/20/1
f 137/1/1 138/2/1 139/3/1 140/4/1
f 141/5/1 142/6/1 143/7/1 144/8/1
f 145/9/1 146/10/1 147/11/1 148/12/1
f 149/13/1 150/14/1 151/15/1 152/16/1
f 153/17/1 154/18/1 155/19/1 156/20/1
f 157/5/1 158/6/1 159/7/1 160/8/1
f 161/9/1 162/10/1 163/11/1 164/12/1
f 165/1/1 166/2/1 167/3/1 168/4/1
f 169/13/1 170/14/1 171/15/1 172/16/1
f 173/17/1 174/18/1 175/19/1 176/20/1
f 177/5/1 178/6/1 179/7/1 180/8/1
f 181/9/1 182/10/1 183/11/1 184/12/1
f 185/5/1 186/6/1 187/7/1 188/8/1
f 189/9/1 190/10/1 191/11/1 192/12/1
f 193/13/1 194/14/1 195/15/1 196/16/1
f 197/17/1 198/18/1 199/19/1 200/20/1
f 201/5/1 202/6/1 203/7/1 204/8/1
f 205/9/1 206/10/1 207/11/1 208/12/1
f 209/13/1 210/14/1 211/15/1 212/16/1
f 213/17/1 214/18/1 215/19/1 216/20/1
f 217/13/1 218/14/1 219/15/1 220/16/1
f 221/17/1 222/18/1 223/19/1 224/20/1

