# Tiled2Unity generated file. Do not modify by hand.
# Wavefront file for '2222_mesh_0014.obj'

# Vertices (Count = 688)
v -3.84 -2.88 0
v -4.16 -2.88 0
v -4.16 -2.56 0
v -3.84 -2.56 0
v -4.48 -2.88 0
v -4.8 -2.88 0
v -4.8 -2.56 0
v -4.48 -2.56 0
v 0 -3.2 0
v -0.32 -3.2 0
v -0.32 -2.88 0
v 0 -2.88 0
v -3.84 -3.84 0
v -4.16 -3.84 0
v -4.16 -3.52 0
v -3.84 -3.52 0
v -3.84 -4.16 0
v -4.16 -4.16 0
v -4.16 -3.84 0
v -3.84 -3.84 0
v -1.28 -4.8 0
v -1.6 -4.8 0
v -1.6 -4.48 0
v -1.28 -4.48 0
v -2.88 -4.8 0
v -3.2 -4.8 0
v -3.2 -4.48 0
v -2.88 -4.48 0
v -3.84 -5.44 0
v -4.16 -5.44 0
v -4.16 -5.12 0
v -3.84 -5.12 0
v -22.08 -7.68 0
v -22.4 -7.68 0
v -22.4 -7.36 0
v -22.08 -7.36 0
v -35.84 -7.68 0
v -36.16 -7.68 0
v -36.16 -7.36 0
v -35.84 -7.36 0
v -36.48 -7.68 0
v -36.8 -7.68 0
v -36.8 -7.36 0
v -36.48 -7.36 0
v -36.8 -7.68 0
v -37.12 -7.68 0
v -37.12 -7.36 0
v -36.8 -7.36 0
v -21.76 -8 0
v -22.08 -8 0
v -22.08 -7.68 0
v -21.76 -7.68 0
v -19.84 -8.639999 0
v -20.16 -8.639999 0
v -20.16 -8.32 0
v -19.84 -8.32 0
v -18.24 -8.96 0
v -18.56 -8.96 0
v -18.56 -8.639999 0
v -18.24 -8.639999 0
v -17.6 -9.92 0
v -17.92 -9.92 0
v -17.92 -9.599999 0
v -17.6 -9.599999 0
v -24.32 -9.92 0
v -24.64 -9.92 0
v -24.64 -9.599999 0
v -24.32 -9.599999 0
v -24.64 -9.92 0
v -24.96 -9.92 0
v -24.96 -9.599999 0
v -24.64 -9.599999 0
v -24.32 -10.24 0
v -24.64 -10.24 0
v -24.64 -9.92 0
v -24.32 -9.92 0
v -24.64 -10.24 0
v -24.96 -10.24 0
v -24.96 -9.92 0
v -24.64 -9.92 0
v -24.96 -10.56 0
v -25.28 -10.56 0
v -25.28 -10.24 0
v -24.96 -10.24 0
v -25.28 -10.56 0
v -25.6 -10.56 0
v -25.6 -10.24 0
v -25.28 -10.24 0
v -24.96 -10.88 0
v -25.28 -10.88 0
v -25.28 -10.56 0
v -24.96 -10.56 0
v -25.28 -10.88 0
v -25.6 -10.88 0
v -25.6 -10.56 0
v -25.28 -10.56 0
v -15.68 -11.2 0
v -16 -11.2 0
v -16 -10.88 0
v -15.68 -10.88 0
v -24.64 -11.2 0
v -24.96 -11.2 0
v -24.96 -10.88 0
v -24.64 -10.88 0
v -16.64 -11.84 0
v -16.96 -11.84 0
v -16.96 -11.52 0
v -16.64 -11.52 0
v -18.24 -12.16 0
v -18.56 -12.16 0
v -18.56 -11.84 0
v -18.24 -11.84 0
v -27.2 -12.16 0
v -27.52 -12.16 0
v -27.52 -11.84 0
v -27.2 -11.84 0
v -29.12 -12.16 0
v -29.44 -12.16 0
v -29.44 -11.84 0
v -29.12 -11.84 0
v -29.44 -12.16 0
v -29.76 -12.16 0
v -29.76 -11.84 0
v -29.44 -11.84 0
v -16.96 -12.48 0
v -17.28 -12.48 0
v -17.28 -12.16 0
v -16.96 -12.16 0
v -26.88 -12.48 0
v -27.2 -12.48 0
v -27.2 -12.16 0
v -26.88 -12.16 0
v -30.4 -12.48 0
v -30.72 -12.48 0
v -30.72 -12.16 0
v -30.4 -12.16 0
v -35.2 -12.48 0
v -35.52 -12.48 0
v -35.52 -12.16 0
v -35.2 -12.16 0
v -36.16 -12.48 0
v -36.48 -12.48 0
v -36.48 -12.16 0
v -36.16 -12.16 0
v -33.92 -12.8 0
v -34.24 -12.8 0
v -34.24 -12.48 0
v -33.92 -12.48 0
v -24.96 -13.12 0
v -25.28 -13.12 0
v -25.28 -12.8 0
v -24.96 -12.8 0
v -34.24 -13.12 0
v -34.56 -13.12 0
v -34.56 -12.8 0
v -34.24 -12.8 0
v -36.48 -13.12 0
v -36.8 -13.12 0
v -36.8 -12.8 0
v -36.48 -12.8 0
v -37.12 -13.12 0
v -37.44 -13.12 0
v -37.44 -12.8 0
v -37.12 -12.8 0
v -15.36 -13.44 0
v -15.68 -13.44 0
v -15.68 -13.12 0
v -15.36 -13.12 0
v -15.68 -13.44 0
v -16 -13.44 0
v -16 -13.12 0
v -15.68 -13.12 0
v -16 -13.44 0
v -16.32 -13.44 0
v -16.32 -13.12 0
v -16 -13.12 0
v -17.28 -13.44 0
v -17.6 -13.44 0
v -17.6 -13.12 0
v -17.28 -13.12 0
v -34.24 -13.44 0
v -34.56 -13.44 0
v -34.56 -13.12 0
v -34.24 -13.12 0
v -36.48 -13.44 0
v -36.8 -13.44 0
v -36.8 -13.12 0
v -36.48 -13.12 0
v -16.64 -13.76 0
v -16.96 -13.76 0
v -16.96 -13.44 0
v -16.64 -13.44 0
v -34.88 -13.76 0
v -35.2 -13.76 0
v -35.2 -13.44 0
v -34.88 -13.44 0
v -24.64 -14.08 0
v -24.96 -14.08 0
v -24.96 -13.76 0
v -24.64 -13.76 0
v -34.88 -14.08 0
v -35.2 -14.08 0
v -35.2 -13.76 0
v -34.88 -13.76 0
v -35.52 -14.08 0
v -35.84 -14.08 0
v -35.84 -13.76 0
v -35.52 -13.76 0
v -36.48 -14.08 0
v -36.8 -14.08 0
v -36.8 -13.76 0
v -36.48 -13.76 0
v -36.8 -14.08 0
v -37.12 -14.08 0
v -37.12 -13.76 0
v -36.8 -13.76 0
v -17.28 -14.4 0
v -17.6 -14.4 0
v -17.6 -14.08 0
v -17.28 -14.08 0
v -18.24 -14.4 0
v -18.56 -14.4 0
v -18.56 -14.08 0
v -18.24 -14.08 0
v -21.44 -14.4 0
v -21.76 -14.4 0
v -21.76 -14.08 0
v -21.44 -14.08 0
v -16 -14.72 0
v -16.32 -14.72 0
v -16.32 -14.4 0
v -16 -14.4 0
v -22.72 -14.72 0
v -23.04 -14.72 0
v -23.04 -14.4 0
v -22.72 -14.4 0
v -24.32 -14.72 0
v -24.64 -14.72 0
v -24.64 -14.4 0
v -24.32 -14.4 0
v -34.24 -14.72 0
v -34.56 -14.72 0
v -34.56 -14.4 0
v -34.24 -14.4 0
v -35.84 -14.72 0
v -36.16 -14.72 0
v -36.16 -14.4 0
v -35.84 -14.4 0
v -36.16 -14.72 0
v -36.48 -14.72 0
v -36.48 -14.4 0
v -36.16 -14.4 0
v -37.12 -14.72 0
v -37.44 -14.72 0
v -37.44 -14.4 0
v -37.12 -14.4 0
v -35.2 -15.04 0
v -35.52 -15.04 0
v -35.52 -14.72 0
v -35.2 -14.72 0
v -16 -15.36 0
v -16.32 -15.36 0
v -16.32 -15.04 0
v -16 -15.04 0
v -17.28 -15.68 0
v -17.6 -15.68 0
v -17.6 -15.36 0
v -17.28 -15.36 0
v -17.6 -15.68 0
v -17.92 -15.68 0
v -17.92 -15.36 0
v -17.6 -15.36 0
v -19.2 -15.68 0
v -19.52 -15.68 0
v -19.52 -15.36 0
v -19.2 -15.36 0
v -18.88 -16 0
v -19.2 -16 0
v -19.2 -15.68 0
v -18.88 -15.68 0
v -30.4 -16 0
v -30.72 -16 0
v -30.72 -15.68 0
v -30.4 -15.68 0
v -32.32 -16 0
v -32.64 -16 0
v -32.64 -15.68 0
v -32.32 -15.68 0
v -34.24 -16 0
v -34.56 -16 0
v -34.56 -15.68 0
v -34.24 -15.68 0
v -34.56 -16 0
v -34.88 -16 0
v -34.88 -15.68 0
v -34.56 -15.68 0
v -34.88 -16 0
v -35.2 -16 0
v -35.2 -15.68 0
v -34.88 -15.68 0
v -35.84 -16 0
v -36.16 -16 0
v -36.16 -15.68 0
v -35.84 -15.68 0
v -30.4 -16.32 0
v -30.72 -16.32 0
v -30.72 -16 0
v -30.4 -16 0
v -30.72 -16.32 0
v -31.04 -16.32 0
v -31.04 -16 0
v -30.72 -16 0
v -34.56 -16.32 0
v -34.88 -16.32 0
v -34.88 -16 0
v -34.56 -16 0
v -16 -16.64 0
v -16.32 -16.64 0
v -16.32 -16.32 0
v -16 -16.32 0
v -30.72 -16.64 0
v -31.04 -16.64 0
v -31.04 -16.32 0
v -30.72 -16.32 0
v -31.04 -16.64 0
v -31.36 -16.64 0
v -31.36 -16.32 0
v -31.04 -16.32 0
v -31.68 -16.64 0
v -32 -16.64 0
v -32 -16.32 0
v -31.68 -16.32 0
v -34.56 -16.64 0
v -34.88 -16.64 0
v -34.88 -16.32 0
v -34.56 -16.32 0
v -34.88 -16.64 0
v -35.2 -16.64 0
v -35.2 -16.32 0
v -34.88 -16.32 0
v -16.32 -16.96 0
v -16.64 -16.96 0
v -16.64 -16.64 0
v -16.32 -16.64 0
v -16.64 -16.96 0
v -16.96 -16.96 0
v -16.96 -16.64 0
v -16.64 -16.64 0
v -30.72 -16.96 0
v -31.04 -16.96 0
v -31.04 -16.64 0
v -30.72 -16.64 0
v -31.04 -16.96 0
v -31.36 -16.96 0
v -31.36 -16.64 0
v -31.04 -16.64 0
v -34.24 -16.96 0
v -34.56 -16.96 0
v -34.56 -16.64 0
v -34.24 -16.64 0
v -32 -17.28 0
v -32.32 -17.28 0
v -32.32 -16.96 0
v -32 -16.96 0
v -34.56 -17.28 0
v -34.88 -17.28 0
v -34.88 -16.96 0
v -34.56 -16.96 0
v -35.52 -17.28 0
v -35.84 -17.28 0
v -35.84 -16.96 0
v -35.52 -16.96 0
v -24.32 -17.6 0
v -24.64 -17.6 0
v -24.64 -17.28 0
v -24.32 -17.28 0
v -25.92 -17.6 0
v -26.24 -17.6 0
v -26.24 -17.28 0
v -25.92 -17.28 0
v -26.24 -17.6 0
v -26.56 -17.6 0
v -26.56 -17.28 0
v -26.24 -17.28 0
v -30.4 -17.6 0
v -30.72 -17.6 0
v -30.72 -17.28 0
v -30.4 -17.28 0
v -31.04 -17.6 0
v -31.36 -17.6 0
v -31.36 -17.28 0
v -31.04 -17.28 0
v -32.32 -17.6 0
v -32.64 -17.6 0
v -32.64 -17.28 0
v -32.32 -17.28 0
v -32.64 -17.6 0
v -32.96 -17.6 0
v -32.96 -17.28 0
v -32.64 -17.28 0
v -34.56 -17.6 0
v -34.88 -17.6 0
v -34.88 -17.28 0
v -34.56 -17.28 0
v -37.12 -17.6 0
v -37.44 -17.6 0
v -37.44 -17.28 0
v -37.12 -17.28 0
v -32.64 -17.92 0
v -32.96 -17.92 0
v -32.96 -17.6 0
v -32.64 -17.6 0
v -34.88 -17.92 0
v -35.2 -17.92 0
v -35.2 -17.6 0
v -34.88 -17.6 0
v -34.56 -18.24 0
v -34.88 -18.24 0
v -34.88 -17.92 0
v -34.56 -17.92 0
v -34.88 -18.88 0
v -35.2 -18.88 0
v -35.2 -18.56 0
v -34.88 -18.56 0
v -35.84 -18.88 0
v -36.16 -18.88 0
v -36.16 -18.56 0
v -35.84 -18.56 0
v -36.48 -18.88 0
v -36.8 -18.88 0
v -36.8 -18.56 0
v -36.48 -18.56 0
v -36.48 -19.2 0
v -36.8 -19.2 0
v -36.8 -18.88 0
v -36.48 -18.88 0
v -32.32 -19.52 0
v -32.64 -19.52 0
v -32.64 -19.2 0
v -32.32 -19.2 0
v -33.92 -19.84 0
v -34.24 -19.84 0
v -34.24 -19.52 0
v -33.92 -19.52 0
v -35.2 -19.84 0
v -35.52 -19.84 0
v -35.52 -19.52 0
v -35.2 -19.52 0
v -32.32 -20.16 0
v -32.64 -20.16 0
v -32.64 -19.84 0
v -32.32 -19.84 0
v -37.76 -20.16 0
v -38.08 -20.16 0
v -38.08 -19.84 0
v -37.76 -19.84 0
v -32.32 -20.48 0
v -32.64 -20.48 0
v -32.64 -20.16 0
v -32.32 -20.16 0
v -33.92 -20.8 0
v -34.24 -20.8 0
v -34.24 -20.48 0
v -33.92 -20.48 0
v -34.88 -20.8 0
v -35.2 -20.8 0
v -35.2 -20.48 0
v -34.88 -20.48 0
v -37.12 -20.8 0
v -37.44 -20.8 0
v -37.44 -20.48 0
v -37.12 -20.48 0
v -32.64 -21.12 0
v -32.96 -21.12 0
v -32.96 -20.8 0
v -32.64 -20.8 0
v -34.24 -21.12 0
v -34.56 -21.12 0
v -34.56 -20.8 0
v -34.24 -20.8 0
v -35.2 -21.44 0
v -35.52 -21.44 0
v -35.52 -21.12 0
v -35.2 -21.12 0
v -36.48 -21.44 0
v -36.8 -21.44 0
v -36.8 -21.12 0
v -36.48 -21.12 0
v -36.8 -21.44 0
v -37.12 -21.44 0
v -37.12 -21.12 0
v -36.8 -21.12 0
v -32.64 -21.76 0
v -32.96 -21.76 0
v -32.96 -21.44 0
v -32.64 -21.44 0
v -33.6 -21.76 0
v -33.92 -21.76 0
v -33.92 -21.44 0
v -33.6 -21.44 0
v -35.2 -21.76 0
v -35.52 -21.76 0
v -35.52 -21.44 0
v -35.2 -21.44 0
v -36.8 -21.76 0
v -37.12 -21.76 0
v -37.12 -21.44 0
v -36.8 -21.44 0
v -33.92 -22.4 0
v -34.24 -22.4 0
v -34.24 -22.08 0
v -33.92 -22.08 0
v -35.2 -22.4 0
v -35.52 -22.4 0
v -35.52 -22.08 0
v -35.2 -22.08 0
v -32.64 -22.72 0
v -32.96 -22.72 0
v -32.96 -22.4 0
v -32.64 -22.4 0
v -23.68 -23.04 0
v -24 -23.04 0
v -24 -22.72 0
v -23.68 -22.72 0
v -35.84 -23.04 0
v -36.16 -23.04 0
v -36.16 -22.72 0
v -35.84 -22.72 0
v -36.16 -23.04 0
v -36.48 -23.04 0
v -36.48 -22.72 0
v -36.16 -22.72 0
v -34.56 -23.36 0
v -34.88 -23.36 0
v -34.88 -23.04 0
v -34.56 -23.04 0
v -34.88 -23.36 0
v -35.2 -23.36 0
v -35.2 -23.04 0
v -34.88 -23.04 0
v -37.44 -23.36 0
v -37.76 -23.36 0
v -37.76 -23.04 0
v -37.44 -23.04 0
v -34.24 -23.68 0
v -34.56 -23.68 0
v -34.56 -23.36 0
v -34.24 -23.36 0
v -34.56 -23.68 0
v -34.88 -23.68 0
v -34.88 -23.36 0
v -34.56 -23.36 0
v -34.88 -23.68 0
v -35.2 -23.68 0
v -35.2 -23.36 0
v -34.88 -23.36 0
v -17.92 -24 0
v -18.24 -24 0
v -18.24 -23.68 0
v -17.92 -23.68 0
v -23.36 -24.32 0
v -23.68 -24.32 0
v -23.68 -24 0
v -23.36 -24 0
v -32.32 -24.64 0
v -32.64 -24.64 0
v -32.64 -24.32 0
v -32.32 -24.32 0
v -36.16 -24.64 0
v -36.48 -24.64 0
v -36.48 -24.32 0
v -36.16 -24.32 0
v -37.12 -24.64 0
v -37.44 -24.64 0
v -37.44 -24.32 0
v -37.12 -24.32 0
v -18.24 -24.96 0
v -18.56 -24.96 0
v -18.56 -24.64 0
v -18.24 -24.64 0
v -18.56 -24.96 0
v -18.88 -24.96 0
v -18.88 -24.64 0
v -18.56 -24.64 0
v -23.04 -24.96 0
v -23.36 -24.96 0
v -23.36 -24.64 0
v -23.04 -24.64 0
v -29.44 -24.96 0
v -29.76 -24.96 0
v -29.76 -24.64 0
v -29.44 -24.64 0
v -30.4 -24.96 0
v -30.72 -24.96 0
v -30.72 -24.64 0
v -30.4 -24.64 0
v -32 -24.96 0
v -32.32 -24.96 0
v -32.32 -24.64 0
v -32 -24.64 0
v -33.6 -24.96 0
v -33.92 -24.96 0
v -33.92 -24.64 0
v -33.6 -24.64 0
v -17.92 -25.28 0
v -18.24 -25.28 0
v -18.24 -24.96 0
v -17.92 -24.96 0
v -18.88 -25.28 0
v -19.2 -25.28 0
v -19.2 -24.96 0
v -18.88 -24.96 0
v -22.72 -25.28 0
v -23.04 -25.28 0
v -23.04 -24.96 0
v -22.72 -24.96 0
v -23.04 -25.28 0
v -23.36 -25.28 0
v -23.36 -24.96 0
v -23.04 -24.96 0
v -23.36 -25.28 0
v -23.68 -25.28 0
v -23.68 -24.96 0
v -23.36 -24.96 0
v -24.64 -25.28 0
v -24.96 -25.28 0
v -24.96 -24.96 0
v -24.64 -24.96 0
v -29.44 -25.28 0
v -29.76 -25.28 0
v -29.76 -24.96 0
v -29.44 -24.96 0
v -29.76 -25.28 0
v -30.08 -25.28 0
v -30.08 -24.96 0
v -29.76 -24.96 0
v -30.4 -25.28 0
v -30.72 -25.28 0
v -30.72 -24.96 0
v -30.4 -24.96 0
v -30.72 -25.28 0
v -31.04 -25.28 0
v -31.04 -24.96 0
v -30.72 -24.96 0
v -31.04 -25.28 0
v -31.36 -25.28 0
v -31.36 -24.96 0
v -31.04 -24.96 0
v -31.36 -25.28 0
v -31.68 -25.28 0
v -31.68 -24.96 0
v -31.36 -24.96 0
v -32 -25.28 0
v -32.32 -25.28 0
v -32.32 -24.96 0
v -32 -24.96 0
v -32.32 -25.28 0
v -32.64 -25.28 0
v -32.64 -24.96 0
v -32.32 -24.96 0
v -34.56 -25.28 0
v -34.88 -25.28 0
v -34.88 -24.96 0
v -34.56 -24.96 0
v -18.88 -25.6 0
v -19.2 -25.6 0
v -19.2 -25.28 0
v -18.88 -25.28 0
v -23.04 -25.6 0
v -23.36 -25.6 0
v -23.36 -25.28 0
v -23.04 -25.28 0
v -24.32 -25.6 0
v -24.64 -25.6 0
v -24.64 -25.28 0
v -24.32 -25.28 0
v -29.44 -25.6 0
v -29.76 -25.6 0
v -29.76 -25.28 0
v -29.44 -25.28 0
v -30.72 -25.6 0
v -31.04 -25.6 0
v -31.04 -25.28 0
v -30.72 -25.28 0
v -31.68 -25.6 0
v -32 -25.6 0
v -32 -25.28 0
v -31.68 -25.28 0

# Texture cooridinates (Count = 44)
vt 0.2887931 0.3917051
vt 0.4267241 0.3917051
vt 0.4267241 0.5391705
vt 0.2887931 0.5391705
vt 0.7155172 0.3917051
vt 0.8534483 0.3917051
vt 0.8534483 0.5391705
vt 0.7155172 0.5391705
vt 0.7155172 0.8479263
vt 0.8534483 0.8479263
vt 0.8534483 0.9953917
vt 0.7155172 0.9953917
vt 0.8577586 0.8479263
vt 0.9956896 0.8479263
vt 0.9956896 0.9953917
vt 0.8577586 0.9953917
vt 0.7155172 0.6958525
vt 0.8534483 0.6958525
vt 0.8534483 0.843318
vt 0.7155172 0.843318
vt 0.8577586 0.6958525
vt 0.9956896 0.6958525
vt 0.9956896 0.843318
vt 0.8577586 0.843318
vt 0.1465517 0.3917051
vt 0.2844827 0.3917051
vt 0.2844827 0.5391705
vt 0.1465517 0.5391705
vt 0.8577586 0.5437788
vt 0.9956896 0.5437788
vt 0.9956896 0.6912442
vt 0.8577586 0.6912442
vt 0.8577586 0.3917051
vt 0.9956896 0.3917051
vt 0.9956896 0.5391705
vt 0.8577586 0.5391705
vt 0.7155172 0.5437788
vt 0.8534483 0.5437788
vt 0.8534483 0.6912442
vt 0.7155172 0.6912442
vt 0.5732759 0.2396314
vt 0.7112069 0.2396314
vt 0.7112069 0.3870968
vt 0.5732759 0.3870968

# Normal
vn 0 0 -1

# Mesh description
g 2222_mesh_0014

# Faces
f 1/1/1 2/2/1 3/3/1 4/4/1
f 5/1/1 6/2/1 7/3/1 8/4/1
f 9/1/1 10/2/1 11/3/1 12/4/1
f 13/1/1 14/2/1 15/3/1 16/4/1
f 17/1/1 18/2/1 19/3/1 20/4/1
f 21/5/1 22/6/1 23/7/1 24/8/1
f 25/1/1 26/2/1 27/3/1 28/4/1
f 29/5/1 30/6/1 31/7/1 32/8/1
f 33/1/1 34/2/1 35/3/1 36/4/1
f 37/1/1 38/2/1 39/3/1 40/4/1
f 41/1/1 42/2/1 43/3/1 44/4/1
f 45/1/1 46/2/1 47/3/1 48/4/1
f 49/1/1 50/2/1 51/3/1 52/4/1
f 53/1/1 54/2/1 55/3/1 56/4/1
f 57/1/1 58/2/1 59/3/1 60/4/1
f 61/1/1 62/2/1 63/3/1 64/4/1
f 65/9/1 66/10/1 67/11/1 68/12/1
f 69/13/1 70/14/1 71/15/1 72/16/1
f 73/17/1 74/18/1 75/19/1 76/20/1
f 77/21/1 78/22/1 79/23/1 80/24/1
f 81/9/1 82/10/1 83/11/1 84/12/1
f 85/13/1 86/14/1 87/15/1 88/16/1
f 89/17/1 90/18/1 91/19/1 92/20/1
f 93/21/1 94/22/1 95/23/1 96/24/1
f 97/25/1 98/26/1 99/27/1 100/28/1
f 101/25/1 102/26/1 103/27/1 104/28/1
f 105/1/1 106/2/1 107/3/1 108/4/1
f 109/1/1 110/2/1 111/3/1 112/4/1
f 113/29/1 114/30/1 115/31/1 116/32/1
f 117/1/1 118/2/1 119/3/1 120/4/1
f 121/1/1 122/2/1 123/3/1 124/4/1
f 125/1/1 126/2/1 127/3/1 128/4/1
f 129/5/1 130/6/1 131/7/1 132/8/1
f 133/25/1 134/26/1 135/27/1 136/28/1
f 137/25/1 138/26/1 139/27/1 140/28/1
f 141/25/1 142/26/1 143/27/1 144/28/1
f 145/1/1 146/2/1 147/3/1 148/4/1
f 149/1/1 150/2/1 151/3/1 152/4/1
f 153/1/1 154/2/1 155/3/1 156/4/1
f 157/1/1 158/2/1 159/3/1 160/4/1
f 161/1/1 162/2/1 163/3/1 164/4/1
f 165/1/1 166/2/1 167/3/1 168/4/1
f 169/1/1 170/2/1 171/3/1 172/4/1
f 173/29/1 174/30/1 175/31/1 176/32/1
f 177/1/1 178/2/1 179/3/1 180/4/1
f 181/1/1 182/2/1 183/3/1 184/4/1
f 185/29/1 186/30/1 187/31/1 188/32/1
f 189/1/1 190/2/1 191/3/1 192/4/1
f 193/29/1 194/30/1 195/31/1 196/32/1
f 197/1/1 198/2/1 199/3/1 200/4/1
f 201/1/1 202/2/1 203/3/1 204/4/1
f 205/33/1 206/34/1 207/35/1 208/36/1
f 209/1/1 210/2/1 211/3/1 212/4/1
f 213/25/1 214/26/1 215/27/1 216/28/1
f 217/29/1 218/30/1 219/31/1 220/32/1
f 221/1/1 222/2/1 223/3/1 224/4/1
f 225/5/1 226/6/1 227/7/1 228/8/1
f 229/1/1 230/2/1 231/3/1 232/4/1
f 233/1/1 234/2/1 235/3/1 236/4/1
f 237/25/1 238/26/1 239/27/1 240/28/1
f 241/25/1 242/26/1 243/27/1 244/28/1
f 245/29/1 246/30/1 247/31/1 248/32/1
f 249/5/1 250/6/1 251/7/1 252/8/1
f 253/1/1 254/2/1 255/3/1 256/4/1
f 257/1/1 258/2/1 259/3/1 260/4/1
f 261/25/1 262/26/1 263/27/1 264/28/1
f 265/1/1 266/2/1 267/3/1 268/4/1
f 269/1/1 270/2/1 271/3/1 272/4/1
f 273/29/1 274/30/1 275/31/1 276/32/1
f 277/33/1 278/34/1 279/35/1 280/36/1
f 281/1/1 282/2/1 283/3/1 284/4/1
f 285/29/1 286/30/1 287/31/1 288/32/1
f 289/1/1 290/2/1 291/3/1 292/4/1
f 293/1/1 294/2/1 295/3/1 296/4/1
f 297/1/1 298/2/1 299/3/1 300/4/1
f 301/5/1 302/6/1 303/7/1 304/8/1
f 305/33/1 306/34/1 307/35/1 308/36/1
f 309/1/1 310/2/1 311/3/1 312/4/1
f 313/1/1 314/2/1 315/3/1 316/4/1
f 317/1/1 318/2/1 319/3/1 320/4/1
f 321/1/1 322/2/1 323/3/1 324/4/1
f 325/29/1 326/30/1 327/31/1 328/32/1
f 329/5/1 330/6/1 331/7/1 332/8/1
f 333/1/1 334/2/1 335/3/1 336/4/1
f 337/25/1 338/26/1 339/27/1 340/28/1
f 341/29/1 342/30/1 343/31/1 344/32/1
f 345/25/1 346/26/1 347/27/1 348/28/1
f 349/1/1 350/2/1 351/3/1 352/4/1
f 353/1/1 354/2/1 355/3/1 356/4/1
f 357/25/1 358/26/1 359/27/1 360/28/1
f 361/25/1 362/26/1 363/27/1 364/28/1
f 365/1/1 366/2/1 367/3/1 368/4/1
f 369/1/1 370/2/1 371/3/1 372/4/1
f 373/25/1 374/26/1 375/27/1 376/28/1
f 377/1/1 378/2/1 379/3/1 380/4/1
f 381/1/1 382/2/1 383/3/1 384/4/1
f 385/1/1 386/2/1 387/3/1 388/4/1
f 389/1/1 390/2/1 391/3/1 392/4/1
f 393/1/1 394/2/1 395/3/1 396/4/1
f 397/1/1 398/2/1 399/3/1 400/4/1
f 401/1/1 402/2/1 403/3/1 404/4/1
f 405/5/1 406/6/1 407/7/1 408/8/1
f 409/1/1 410/2/1 411/3/1 412/4/1
f 413/37/1 414/38/1 415/39/1 416/40/1
f 417/25/1 418/26/1 419/27/1 420/28/1
f 421/5/1 422/6/1 423/7/1 424/8/1
f 425/41/1 426/42/1 427/43/1 428/44/1
f 429/1/1 430/2/1 431/3/1 432/4/1
f 433/1/1 434/2/1 435/3/1 436/4/1
f 437/1/1 438/2/1 439/3/1 440/4/1
f 441/29/1 442/30/1 443/31/1 444/32/1
f 445/25/1 446/26/1 447/27/1 448/28/1
f 449/29/1 450/30/1 451/31/1 452/32/1
f 453/37/1 454/38/1 455/39/1 456/40/1
f 457/1/1 458/2/1 459/3/1 460/4/1
f 461/1/1 462/2/1 463/3/1 464/4/1
f 465/29/1 466/30/1 467/31/1 468/32/1
f 469/1/1 470/2/1 471/3/1 472/4/1
f 473/1/1 474/2/1 475/3/1 476/4/1
f 477/5/1 478/6/1 479/7/1 480/8/1
f 481/1/1 482/2/1 483/3/1 484/4/1
f 485/1/1 486/2/1 487/3/1 488/4/1
f 489/1/1 490/2/1 491/3/1 492/4/1
f 493/1/1 494/2/1 495/3/1 496/4/1
f 497/25/1 498/26/1 499/27/1 500/28/1
f 501/25/1 502/26/1 503/27/1 504/28/1
f 505/1/1 506/2/1 507/3/1 508/4/1
f 509/5/1 510/6/1 511/7/1 512/8/1
f 513/1/1 514/2/1 515/3/1 516/4/1
f 517/5/1 518/6/1 519/7/1 520/8/1
f 521/1/1 522/2/1 523/3/1 524/4/1
f 525/25/1 526/26/1 527/27/1 528/28/1
f 529/33/1 530/34/1 531/35/1 532/36/1
f 533/25/1 534/26/1 535/27/1 536/28/1
f 537/1/1 538/2/1 539/3/1 540/4/1
f 541/29/1 542/30/1 543/31/1 544/32/1
f 545/25/1 546/26/1 547/27/1 548/28/1
f 549/25/1 550/26/1 551/27/1 552/28/1
f 553/1/1 554/2/1 555/3/1 556/4/1
f 557/5/1 558/6/1 559/7/1 560/8/1
f 561/1/1 562/2/1 563/3/1 564/4/1
f 565/33/1 566/34/1 567/35/1 568/36/1
f 569/25/1 570/26/1 571/27/1 572/28/1
f 573/1/1 574/2/1 575/3/1 576/4/1
f 577/1/1 578/2/1 579/3/1 580/4/1
f 581/29/1 582/30/1 583/31/1 584/32/1
f 585/5/1 586/6/1 587/7/1 588/8/1
f 589/1/1 590/2/1 591/3/1 592/4/1
f 593/1/1 594/2/1 595/3/1 596/4/1
f 597/1/1 598/2/1 599/3/1 600/4/1
f 601/1/1 602/2/1 603/3/1 604/4/1
f 605/1/1 606/2/1 607/3/1 608/4/1
f 609/1/1 610/2/1 611/3/1 612/4/1
f 613/1/1 614/2/1 615/3/1 616/4/1
f 617/1/1 618/2/1 619/3/1 620/4/1
f 621/5/1 622/6/1 623/7/1 624/8/1
f 625/29/1 626/30/1 627/31/1 628/32/1
f 629/1/1 630/2/1 631/3/1 632/4/1
f 633/1/1 634/2/1 635/3/1 636/4/1
f 637/5/1 638/6/1 639/7/1 640/8/1
f 641/1/1 642/2/1 643/3/1 644/4/1
f 645/1/1 646/2/1 647/3/1 648/4/1
f 649/33/1 650/34/1 651/35/1 652/36/1
f 653/1/1 654/2/1 655/3/1 656/4/1
f 657/25/1 658/26/1 659/27/1 660/28/1
f 661/25/1 662/26/1 663/27/1 664/28/1
f 665/1/1 666/2/1 667/3/1 668/4/1
f 669/1/1 670/2/1 671/3/1 672/4/1
f 673/29/1 674/30/1 675/31/1 676/32/1
f 677/1/1 678/2/1 679/3/1 680/4/1
f 681/1/1 682/2/1 683/3/1 684/4/1
f 685/41/1 686/42/1 687/43/1 688/44/1

