# Tiled2Unity generated file. Do not modify by hand.
# Wavefront file for '2222_mesh_0008.obj'

# Vertices (Count = 144)
v -12.8 -6.72 0
v -13.12 -6.72 0
v -13.12 -6.4 0
v -12.8 -6.4 0
v -13.12 -6.72 0
v -13.44 -6.72 0
v -13.44 -6.4 0
v -13.12 -6.4 0
v -23.04 -6.72 0
v -23.36 -6.72 0
v -23.36 -6.4 0
v -23.04 -6.4 0
v -23.36 -6.72 0
v -23.68 -6.72 0
v -23.68 -6.4 0
v -23.36 -6.4 0
v -12.8 -7.04 0
v -13.12 -7.04 0
v -13.12 -6.72 0
v -12.8 -6.72 0
v -13.12 -7.04 0
v -13.44 -7.04 0
v -13.44 -6.72 0
v -13.12 -6.72 0
v -23.04 -7.04 0
v -23.36 -7.04 0
v -23.36 -6.72 0
v -23.04 -6.72 0
v -23.36 -7.04 0
v -23.68 -7.04 0
v -23.68 -6.72 0
v -23.36 -6.72 0
v -28.8 -14.08 0
v -29.12 -14.08 0
v -29.12 -13.76 0
v -28.8 -13.76 0
v -29.12 -14.08 0
v -29.44 -14.08 0
v -29.44 -13.76 0
v -29.12 -13.76 0
v -28.8 -14.4 0
v -29.12 -14.4 0
v -29.12 -14.08 0
v -28.8 -14.08 0
v -29.12 -14.4 0
v -29.44 -14.4 0
v -29.44 -14.08 0
v -29.12 -14.08 0
v -22.08 -17.28 0
v -22.4 -17.28 0
v -22.4 -16.96 0
v -22.08 -16.96 0
v -22.4 -17.28 0
v -22.72 -17.28 0
v -22.72 -16.96 0
v -22.4 -16.96 0
v -22.08 -17.6 0
v -22.4 -17.6 0
v -22.4 -17.28 0
v -22.08 -17.28 0
v -22.4 -17.6 0
v -22.72 -17.6 0
v -22.72 -17.28 0
v -22.4 -17.28 0
v -17.28 -19.52 0
v -17.6 -19.52 0
v -17.6 -19.2 0
v -17.28 -19.2 0
v -17.6 -19.52 0
v -17.92 -19.52 0
v -17.92 -19.2 0
v -17.6 -19.2 0
v -17.28 -19.84 0
v -17.6 -19.84 0
v -17.6 -19.52 0
v -17.28 -19.52 0
v -17.6 -19.84 0
v -17.92 -19.84 0
v -17.92 -19.52 0
v -17.6 -19.52 0
v -0.96 -26.24 0
v -1.28 -26.24 0
v -1.28 -25.92 0
v -0.96 -25.92 0
v -1.28 -26.24 0
v -1.6 -26.24 0
v -1.6 -25.92 0
v -1.28 -25.92 0
v -0.96 -26.56 0
v -1.28 -26.56 0
v -1.28 -26.24 0
v -0.96 -26.24 0
v -1.28 -26.56 0
v -1.6 -26.56 0
v -1.6 -26.24 0
v -1.28 -26.24 0
v -8.96 -26.88 0
v -9.28 -26.88 0
v -9.28 -26.56 0
v -8.96 -26.56 0
v -9.28 -26.88 0
v -9.599999 -26.88 0
v -9.599999 -26.56 0
v -9.28 -26.56 0
v -36.16 -26.88 0
v -36.48 -26.88 0
v -36.48 -26.56 0
v -36.16 -26.56 0
v -36.48 -26.88 0
v -36.8 -26.88 0
v -36.8 -26.56 0
v -36.48 -26.56 0
v -8.96 -27.2 0
v -9.28 -27.2 0
v -9.28 -26.88 0
v -8.96 -26.88 0
v -9.28 -27.2 0
v -9.599999 -27.2 0
v -9.599999 -26.88 0
v -9.28 -26.88 0
v -18.88 -27.2 0
v -19.2 -27.2 0
v -19.2 -26.88 0
v -18.88 -26.88 0
v -19.2 -27.2 0
v -19.52 -27.2 0
v -19.52 -26.88 0
v -19.2 -26.88 0
v -36.16 -27.2 0
v -36.48 -27.2 0
v -36.48 -26.88 0
v -36.16 -26.88 0
v -36.48 -27.2 0
v -36.8 -27.2 0
v -36.8 -26.88 0
v -36.48 -26.88 0
v -18.88 -27.52 0
v -19.2 -27.52 0
v -19.2 -27.2 0
v -18.88 -27.2 0
v -19.2 -27.52 0
v -19.52 -27.52 0
v -19.52 -27.2 0
v -19.2 -27.2 0

# Texture cooridinates (Count = 32)
vt 0.6036484 0.484375
vt 0.6567164 0.484375
vt 0.6567164 0.5677084
vt 0.6036484 0.5677084
vt 0.6583748 0.484375
vt 0.7114428 0.484375
vt 0.7114428 0.5677084
vt 0.6583748 0.5677084
vt 0.6036484 0.65625
vt 0.6567164 0.65625
vt 0.6567164 0.7395834
vt 0.6036484 0.7395834
vt 0.6583748 0.65625
vt 0.7114428 0.65625
vt 0.7114428 0.7395834
vt 0.6583748 0.7395834
vt 0.6036484 0.3984375
vt 0.6567164 0.3984375
vt 0.6567164 0.4817708
vt 0.6036484 0.4817708
vt 0.6583748 0.3984375
vt 0.7114428 0.3984375
vt 0.7114428 0.4817708
vt 0.6583748 0.4817708
vt 0.6036484 0.5703125
vt 0.6567164 0.5703125
vt 0.6567164 0.6536459
vt 0.6036484 0.6536459
vt 0.6583748 0.5703125
vt 0.7114428 0.5703125
vt 0.7114428 0.6536459
vt 0.6583748 0.6536459

# Normal
vn 0 0 -1

# Mesh description
g 2222_mesh_0008

# Faces
f 1/1/1 2/2/1 3/3/1 4/4/1
f 5/5/1 6/6/1 7/7/1 8/8/1
f 9/9/1 10/10/1 11/11/1 12/12/1
f 13/13/1 14/14/1 15/15/1 16/16/1
f 17/17/1 18/18/1 19/19/1 20/20/1
f 21/21/1 22/22/1 23/23/1 24/24/1
f 25/25/1 26/26/1 27/27/1 28/28/1
f 29/29/1 30/30/1 31/31/1 32/32/1
f 33/9/1 34/10/1 35/11/1 36/12/1
f 37/13/1 38/14/1 39/15/1 40/16/1
f 41/25/1 42/26/1 43/27/1 44/28/1
f 45/29/1 46/30/1 47/31/1 48/32/1
f 49/1/1 50/2/1 51/3/1 52/4/1
f 53/5/1 54/6/1 55/7/1 56/8/1
f 57/17/1 58/18/1 59/19/1 60/20/1
f 61/21/1 62/22/1 63/23/1 64/24/1
f 65/9/1 66/10/1 67/11/1 68/12/1
f 69/13/1 70/14/1 71/15/1 72/16/1
f 73/25/1 74/26/1 75/27/1 76/28/1
f 77/29/1 78/30/1 79/31/1 80/32/1
f 81/9/1 82/10/1 83/11/1 84/12/1
f 85/13/1 86/14/1 87/15/1 88/16/1
f 89/25/1 90/26/1 91/27/1 92/28/1
f 93/29/1 94/30/1 95/31/1 96/32/1
f 97/1/1 98/2/1 99/3/1 100/4/1
f 101/5/1 102/6/1 103/7/1 104/8/1
f 105/1/1 106/2/1 107/3/1 108/4/1
f 109/5/1 110/6/1 111/7/1 112/8/1
f 113/17/1 114/18/1 115/19/1 116/20/1
f 117/21/1 118/22/1 119/23/1 120/24/1
f 121/9/1 122/10/1 123/11/1 124/12/1
f 125/13/1 126/14/1 127/15/1 128/16/1
f 129/17/1 130/18/1 131/19/1 132/20/1
f 133/21/1 134/22/1 135/23/1 136/24/1
f 137/25/1 138/26/1 139/27/1 140/28/1
f 141/29/1 142/30/1 143/31/1 144/32/1

