# Tiled2Unity generated file. Do not modify by hand.
# Wavefront file for '2222_mesh_0031.obj'

# Vertices (Count = 16)
v -29.44 -20.8 0
v -29.76 -20.8 0
v -29.76 -20.48 0
v -29.44 -20.48 0
v -29.76 -20.8 0
v -30.08 -20.8 0
v -30.08 -20.48 0
v -29.76 -20.48 0
v -27.52 -23.04 0
v -27.84 -23.04 0
v -27.84 -22.72 0
v -27.52 -22.72 0
v -27.84 -23.04 0
v -28.16 -23.04 0
v -28.16 -22.72 0
v -27.84 -22.72 0

# Texture cooridinates (Count = 16)
vt 0.05234375 0.9599515
vt 0.07734375 0.9599515
vt 0.07734375 0.9987864
vt 0.05234375 0.9987864
vt 0.078125 0.9599515
vt 0.103125 0.9599515
vt 0.103125 0.9987864
vt 0.078125 0.9987864
vt 0.00078125 0.9599515
vt 0.02578125 0.9599515
vt 0.02578125 0.9987864
vt 0.00078125 0.9987864
vt 0.0265625 0.9599515
vt 0.0515625 0.9599515
vt 0.0515625 0.9987864
vt 0.0265625 0.9987864

# Normal
vn 0 0 -1

# Mesh description
g 2222_mesh_0031

# Faces
f 1/1/1 2/2/1 3/3/1 4/4/1
f 5/5/1 6/6/1 7/7/1 8/8/1
f 9/9/1 10/10/1 11/11/1 12/12/1
f 13/13/1 14/14/1 15/15/1 16/16/1

