# Tiled2Unity generated file. Do not modify by hand.
# Wavefront file for '2222_mesh_0025.obj'

# Vertices (Count = 12)
v -14.72 -1.28 0
v -15.04 -1.28 0
v -15.04 -0.96 0
v -14.72 -0.96 0
v -14.72 -1.6 0
v -15.04 -1.6 0
v -15.04 -1.28 0
v -14.72 -1.28 0
v -14.72 -6.4 0
v -15.04 -6.4 0
v -15.04 -6.08 0
v -14.72 -6.08 0

# Texture cooridinates (Count = 4)
vt 0.09824047 0.8465116
vt 0.1451613 0.8465116
vt 0.1451613 0.9209302
vt 0.09824047 0.9209302

# Normal
vn 0 0 -1

# Mesh description
g 2222_mesh_0025

# Faces
f 1/1/1 2/2/1 3/3/1 4/4/1
f 5/1/1 6/2/1 7/3/1 8/4/1
f 9/1/1 10/2/1 11/3/1 12/4/1

