# Tiled2Unity generated file. Do not modify by hand.
# Wavefront file for '2222_mesh_0017.obj'

# Vertices (Count = 52)
v -28.16 -0.96 0
v -28.48 -0.96 0
v -28.48 -0.64 0
v -28.16 -0.64 0
v -36.16 -1.28 0
v -36.48 -1.28 0
v -36.48 -0.96 0
v -36.16 -0.96 0
v -36.48 -2.24 0
v -36.8 -2.24 0
v -36.8 -1.92 0
v -36.48 -1.92 0
v -35.52 -2.88 0
v -35.84 -2.88 0
v -35.84 -2.56 0
v -35.52 -2.56 0
v -28.48 -3.2 0
v -28.8 -3.2 0
v -28.8 -2.88 0
v -28.48 -2.88 0
v -34.88 -3.52 0
v -35.2 -3.52 0
v -35.2 -3.2 0
v -34.88 -3.2 0
v -36.16 -3.52 0
v -36.48 -3.52 0
v -36.48 -3.2 0
v -36.16 -3.2 0
v -25.28 -4.48 0
v -25.6 -4.48 0
v -25.6 -4.16 0
v -25.28 -4.16 0
v -27.52 -4.48 0
v -27.84 -4.48 0
v -27.84 -4.16 0
v -27.52 -4.16 0
v -28.8 -4.8 0
v -29.12 -4.8 0
v -29.12 -4.48 0
v -28.8 -4.48 0
v -25.92 -5.44 0
v -26.24 -5.44 0
v -26.24 -5.12 0
v -25.92 -5.12 0
v -37.76 -5.76 0
v -38.08 -5.76 0
v -38.08 -5.44 0
v -37.76 -5.44 0
v -30.72 -6.08 0
v -31.04 -6.08 0
v -31.04 -5.76 0
v -30.72 -5.76 0

# Texture cooridinates (Count = 12)
vt 0.7155172 0.3917051
vt 0.8534483 0.3917051
vt 0.8534483 0.5391705
vt 0.7155172 0.5391705
vt 0.2887931 0.3917051
vt 0.4267241 0.3917051
vt 0.4267241 0.5391705
vt 0.2887931 0.5391705
vt 0.8577586 0.5437788
vt 0.9956896 0.5437788
vt 0.9956896 0.6912442
vt 0.8577586 0.6912442

# Normal
vn 0 0 -1

# Mesh description
g 2222_mesh_0017

# Faces
f 1/1/1 2/2/1 3/3/1 4/4/1
f 5/5/1 6/6/1 7/7/1 8/8/1
f 9/5/1 10/6/1 11/7/1 12/8/1
f 13/9/1 14/10/1 15/11/1 16/12/1
f 17/9/1 18/10/1 19/11/1 20/12/1
f 21/1/1 22/2/1 23/3/1 24/4/1
f 25/5/1 26/6/1 27/7/1 28/8/1
f 29/5/1 30/6/1 31/7/1 32/8/1
f 33/1/1 34/2/1 35/3/1 36/4/1
f 37/1/1 38/2/1 39/3/1 40/4/1
f 41/5/1 42/6/1 43/7/1 44/8/1
f 45/5/1 46/6/1 47/7/1 48/8/1
f 49/9/1 50/10/1 51/11/1 52/12/1

