# Tiled2Unity generated file. Do not modify by hand.
# Wavefront file for 'mofawu_mesh_0004.obj'

# Vertices (Count = 308)
v 0 -1 0
v -1 -1 0
v -1 0 0
v 0 0 0
v -1 -1 0
v -2 -1 0
v -2 0 0
v -1 0 0
v -2 -1 0
v -3 -1 0
v -3 0 0
v -2 0 0
v -3 -1 0
v -4 -1 0
v -4 0 0
v -3 0 0
v -4 -1 0
v -5 -1 0
v -5 0 0
v -4 0 0
v -8 -1 0
v -9 -1 0
v -9 0 0
v -8 0 0
v -9 -1 0
v -10 -1 0
v -10 0 0
v -9 0 0
v -10 -1 0
v -11 -1 0
v -11 0 0
v -10 0 0
v 0 -2 0
v -1 -2 0
v -1 -1 0
v 0 -1 0
v -1 -2 0
v -2 -2 0
v -2 -1 0
v -1 -1 0
v -2 -2 0
v -3 -2 0
v -3 -1 0
v -2 -1 0
v -3 -2 0
v -4 -2 0
v -4 -1 0
v -3 -1 0
v -4 -2 0
v -5 -2 0
v -5 -1 0
v -4 -1 0
v -8 -2 0
v -9 -2 0
v -9 -1 0
v -8 -1 0
v -9 -2 0
v -10 -2 0
v -10 -1 0
v -9 -1 0
v -10 -2 0
v -11 -2 0
v -11 -1 0
v -10 -1 0
v 0 -3 0
v -1 -3 0
v -1 -2 0
v 0 -2 0
v -1 -3 0
v -2 -3 0
v -2 -2 0
v -1 -2 0
v -2 -3 0
v -3 -3 0
v -3 -2 0
v -2 -2 0
v -3 -3 0
v -4 -3 0
v -4 -2 0
v -3 -2 0
v -4 -3 0
v -5 -3 0
v -5 -2 0
v -4 -2 0
v -8 -3 0
v -9 -3 0
v -9 -2 0
v -8 -2 0
v -9 -3 0
v -10 -3 0
v -10 -2 0
v -9 -2 0
v -10 -3 0
v -11 -3 0
v -11 -2 0
v -10 -2 0
v 0 -4 0
v -1 -4 0
v -1 -3 0
v 0 -3 0
v -1 -4 0
v -2 -4 0
v -2 -3 0
v -1 -3 0
v -2 -4 0
v -3 -4 0
v -3 -3 0
v -2 -3 0
v -3 -4 0
v -4 -4 0
v -4 -3 0
v -3 -3 0
v -4 -4 0
v -5 -4 0
v -5 -3 0
v -4 -3 0
v -5 -4 0
v -6 -4 0
v -6 -3 0
v -5 -3 0
v -6 -4 0
v -7 -4 0
v -7 -3 0
v -6 -3 0
v -7 -4 0
v -8 -4 0
v -8 -3 0
v -7 -3 0
v -8 -4 0
v -9 -4 0
v -9 -3 0
v -8 -3 0
v -9 -4 0
v -10 -4 0
v -10 -3 0
v -9 -3 0
v -10 -4 0
v -11 -4 0
v -11 -3 0
v -10 -3 0
v 0 -5 0
v -1 -5 0
v -1 -4 0
v 0 -4 0
v -1 -5 0
v -2 -5 0
v -2 -4 0
v -1 -4 0
v -2 -5 0
v -3 -5 0
v -3 -4 0
v -2 -4 0
v -3 -5 0
v -4 -5 0
v -4 -4 0
v -3 -4 0
v -4 -5 0
v -5 -5 0
v -5 -4 0
v -4 -4 0
v -5 -5 0
v -6 -5 0
v -6 -4 0
v -5 -4 0
v -6 -5 0
v -7 -5 0
v -7 -4 0
v -6 -4 0
v -7 -5 0
v -8 -5 0
v -8 -4 0
v -7 -4 0
v -8 -5 0
v -9 -5 0
v -9 -4 0
v -8 -4 0
v -9 -5 0
v -10 -5 0
v -10 -4 0
v -9 -4 0
v -10 -5 0
v -11 -5 0
v -11 -4 0
v -10 -4 0
v 0 -6 0
v -1 -6 0
v -1 -5 0
v 0 -5 0
v -1 -6 0
v -2 -6 0
v -2 -5 0
v -1 -5 0
v -2 -6 0
v -3 -6 0
v -3 -5 0
v -2 -5 0
v -3 -6 0
v -4 -6 0
v -4 -5 0
v -3 -5 0
v -4 -6 0
v -5 -6 0
v -5 -5 0
v -4 -5 0
v -5 -6 0
v -6 -6 0
v -6 -5 0
v -5 -5 0
v -6 -6 0
v -7 -6 0
v -7 -5 0
v -6 -5 0
v -7 -6 0
v -8 -6 0
v -8 -5 0
v -7 -5 0
v -8 -6 0
v -9 -6 0
v -9 -5 0
v -8 -5 0
v -9 -6 0
v -10 -6 0
v -10 -5 0
v -9 -5 0
v -10 -6 0
v -11 -6 0
v -11 -5 0
v -10 -5 0
v 0 -7 0
v -1 -7 0
v -1 -6 0
v 0 -6 0
v -1 -7 0
v -2 -7 0
v -2 -6 0
v -1 -6 0
v -2 -7 0
v -3 -7 0
v -3 -6 0
v -2 -6 0
v -3 -7 0
v -4 -7 0
v -4 -6 0
v -3 -6 0
v -4 -7 0
v -5 -7 0
v -5 -6 0
v -4 -6 0
v -5 -7 0
v -6 -7 0
v -6 -6 0
v -5 -6 0
v -6 -7 0
v -7 -7 0
v -7 -6 0
v -6 -6 0
v -7 -7 0
v -8 -7 0
v -8 -6 0
v -7 -6 0
v -8 -7 0
v -9 -7 0
v -9 -6 0
v -8 -6 0
v -9 -7 0
v -10 -7 0
v -10 -6 0
v -9 -6 0
v -10 -7 0
v -11 -7 0
v -11 -6 0
v -10 -6 0
v 0 -8 0
v -1 -8 0
v -1 -7 0
v 0 -7 0
v -1 -8 0
v -2 -8 0
v -2 -7 0
v -1 -7 0
v -2 -8 0
v -3 -8 0
v -3 -7 0
v -2 -7 0
v -3 -8 0
v -4 -8 0
v -4 -7 0
v -3 -7 0
v -4 -8 0
v -5 -8 0
v -5 -7 0
v -4 -7 0
v 0 -9 0
v -1 -9 0
v -1 -8 0
v 0 -8 0
v -1 -9 0
v -2 -9 0
v -2 -8 0
v -1 -8 0
v 0 -10 0
v -1 -10 0
v -1 -9 0
v 0 -9 0
v -1 -10 0
v -2 -10 0
v -2 -9 0
v -1 -9 0

# Texture cooridinates (Count = 304)
vt 0.6155038 0.9517544
vt 0.6651163 0.9517544
vt 0.6651163 0.998538
vt 0.6155038 0.998538
vt 0.6666667 0.9517544
vt 0.7162791 0.9517544
vt 0.7162791 0.998538
vt 0.6666667 0.998538
vt 0.7178295 0.9517544
vt 0.7674419 0.9517544
vt 0.7674419 0.998538
vt 0.7178295 0.998538
vt 0.7689922 0.9517544
vt 0.8186046 0.9517544
vt 0.8186046 0.998538
vt 0.7689922 0.998538
vt 0.820155 0.9517544
vt 0.8697674 0.9517544
vt 0.8697674 0.998538
vt 0.820155 0.998538
vt 0.6666667 0.4210526
vt 0.7162791 0.4210526
vt 0.7162791 0.4678363
vt 0.6666667 0.4678363
vt 0.7178295 0.4210526
vt 0.7674419 0.4210526
vt 0.7674419 0.4678363
vt 0.7178295 0.4678363
vt 0.7689922 0.4210526
vt 0.8186046 0.4210526
vt 0.8186046 0.4678363
vt 0.7689922 0.4678363
vt 0.6155038 0.9035088
vt 0.6651163 0.9035088
vt 0.6651163 0.9502924
vt 0.6155038 0.9502924
vt 0.6666667 0.9035088
vt 0.7162791 0.9035088
vt 0.7162791 0.9502924
vt 0.6666667 0.9502924
vt 0.7178295 0.9035088
vt 0.7674419 0.9035088
vt 0.7674419 0.9502924
vt 0.7178295 0.9502924
vt 0.7689922 0.9035088
vt 0.8186046 0.9035088
vt 0.8186046 0.9502924
vt 0.7689922 0.9502924
vt 0.820155 0.9035088
vt 0.8697674 0.9035088
vt 0.8697674 0.9502924
vt 0.820155 0.9502924
vt 0.6666667 0.372807
vt 0.7162791 0.372807
vt 0.7162791 0.4195907
vt 0.6666667 0.4195907
vt 0.7178295 0.372807
vt 0.7674419 0.372807
vt 0.7674419 0.4195907
vt 0.7178295 0.4195907
vt 0.7689922 0.372807
vt 0.8186046 0.372807
vt 0.8186046 0.4195907
vt 0.7689922 0.4195907
vt 0.6155038 0.8552632
vt 0.6651163 0.8552632
vt 0.6651163 0.9020468
vt 0.6155038 0.9020468
vt 0.6666667 0.8552632
vt 0.7162791 0.8552632
vt 0.7162791 0.9020468
vt 0.6666667 0.9020468
vt 0.7178295 0.8552632
vt 0.7674419 0.8552632
vt 0.7674419 0.9020468
vt 0.7178295 0.9020468
vt 0.7689922 0.8552632
vt 0.8186046 0.8552632
vt 0.8186046 0.9020468
vt 0.7689922 0.9020468
vt 0.820155 0.8552632
vt 0.8697674 0.8552632
vt 0.8697674 0.9020468
vt 0.820155 0.9020468
vt 0.6666667 0.3245614
vt 0.7162791 0.3245614
vt 0.7162791 0.371345
vt 0.6666667 0.371345
vt 0.7178295 0.3245614
vt 0.7674419 0.3245614
vt 0.7674419 0.371345
vt 0.7178295 0.371345
vt 0.7689922 0.3245614
vt 0.8186046 0.3245614
vt 0.8186046 0.371345
vt 0.7689922 0.371345
vt 0.6155038 0.8070176
vt 0.6651163 0.8070176
vt 0.6651163 0.8538012
vt 0.6155038 0.8538012
vt 0.6666667 0.8070176
vt 0.7162791 0.8070176
vt 0.7162791 0.8538012
vt 0.6666667 0.8538012
vt 0.7178295 0.8070176
vt 0.7674419 0.8070176
vt 0.7674419 0.8538012
vt 0.7178295 0.8538012
vt 0.7689922 0.8070176
vt 0.8186046 0.8070176
vt 0.8186046 0.8538012
vt 0.7689922 0.8538012
vt 0.820155 0.8070176
vt 0.8697674 0.8070176
vt 0.8697674 0.8538012
vt 0.820155 0.8538012
vt 0.6666667 0.2763158
vt 0.7162791 0.2763158
vt 0.7162791 0.3230994
vt 0.6666667 0.3230994
vt 0.7178295 0.2763158
vt 0.7674419 0.2763158
vt 0.7674419 0.3230994
vt 0.7178295 0.3230994
vt 0.7689922 0.2763158
vt 0.8186046 0.2763158
vt 0.8186046 0.3230994
vt 0.7689922 0.3230994
vt 0.820155 0.2763158
vt 0.8697674 0.2763158
vt 0.8697674 0.3230994
vt 0.820155 0.3230994
vt 0.8713178 0.2763158
vt 0.9209302 0.2763158
vt 0.9209302 0.3230994
vt 0.8713178 0.3230994
vt 0.9224806 0.2763158
vt 0.972093 0.2763158
vt 0.972093 0.3230994
vt 0.9224806 0.3230994
vt 0.6155038 0.7587719
vt 0.6651163 0.7587719
vt 0.6651163 0.8055556
vt 0.6155038 0.8055556
vt 0.6666667 0.7587719
vt 0.7162791 0.7587719
vt 0.7162791 0.8055556
vt 0.6666667 0.8055556
vt 0.7178295 0.7587719
vt 0.7674419 0.7587719
vt 0.7674419 0.8055556
vt 0.7178295 0.8055556
vt 0.7689922 0.7587719
vt 0.8186046 0.7587719
vt 0.8186046 0.8055556
vt 0.7689922 0.8055556
vt 0.820155 0.7587719
vt 0.8697674 0.7587719
vt 0.8697674 0.8055556
vt 0.820155 0.8055556
vt 0.9224806 0.2280702
vt 0.972093 0.2280702
vt 0.972093 0.2748538
vt 0.9224806 0.2748538
vt 0.7178295 0.2280702
vt 0.7674419 0.2280702
vt 0.7674419 0.2748538
vt 0.7178295 0.2748538
vt 0.7689922 0.2280702
vt 0.8186046 0.2280702
vt 0.8186046 0.2748538
vt 0.7689922 0.2748538
vt 0.820155 0.2280702
vt 0.8697674 0.2280702
vt 0.8697674 0.2748538
vt 0.820155 0.2748538
vt 0.8713178 0.2280702
vt 0.9209302 0.2280702
vt 0.9209302 0.2748538
vt 0.8713178 0.2748538
vt 0.6155038 0.7105263
vt 0.6651163 0.7105263
vt 0.6651163 0.7573099
vt 0.6155038 0.7573099
vt 0.6666667 0.7105263
vt 0.7162791 0.7105263
vt 0.7162791 0.7573099
vt 0.6666667 0.7573099
vt 0.7178295 0.7105263
vt 0.7674419 0.7105263
vt 0.7674419 0.7573099
vt 0.7178295 0.7573099
vt 0.7689922 0.7105263
vt 0.8186046 0.7105263
vt 0.8186046 0.7573099
vt 0.7689922 0.7573099
vt 0.820155 0.7105263
vt 0.8697674 0.7105263
vt 0.8697674 0.7573099
vt 0.820155 0.7573099
vt 0.6666667 0.1798246
vt 0.7162791 0.1798246
vt 0.7162791 0.2266082
vt 0.6666667 0.2266082
vt 0.7178295 0.1798246
vt 0.7674419 0.1798246
vt 0.7674419 0.2266082
vt 0.7178295 0.2266082
vt 0.7689922 0.1798246
vt 0.8186046 0.1798246
vt 0.8186046 0.2266082
vt 0.7689922 0.2266082
vt 0.820155 0.1798246
vt 0.8697674 0.1798246
vt 0.8697674 0.2266082
vt 0.820155 0.2266082
vt 0.8713178 0.1798246
vt 0.9209302 0.1798246
vt 0.9209302 0.2266082
vt 0.8713178 0.2266082
vt 0.9224806 0.1798246
vt 0.972093 0.1798246
vt 0.972093 0.2266082
vt 0.9224806 0.2266082
vt 0.6155038 0.6622807
vt 0.6651163 0.6622807
vt 0.6651163 0.7090644
vt 0.6155038 0.7090644
vt 0.6666667 0.6622807
vt 0.7162791 0.6622807
vt 0.7162791 0.7090644
vt 0.6666667 0.7090644
vt 0.7178295 0.6622807
vt 0.7674419 0.6622807
vt 0.7674419 0.7090644
vt 0.7178295 0.7090644
vt 0.7689922 0.6622807
vt 0.8186046 0.6622807
vt 0.8186046 0.7090644
vt 0.7689922 0.7090644
vt 0.820155 0.6622807
vt 0.8697674 0.6622807
vt 0.8697674 0.7090644
vt 0.820155 0.7090644
vt 0.6666667 0.1315789
vt 0.7162791 0.1315789
vt 0.7162791 0.1783625
vt 0.6666667 0.1783625
vt 0.7178295 0.1315789
vt 0.7674419 0.1315789
vt 0.7674419 0.1783625
vt 0.7178295 0.1783625
vt 0.7689922 0.1315789
vt 0.8186046 0.1315789
vt 0.8186046 0.1783625
vt 0.7689922 0.1783625
vt 0.820155 0.1315789
vt 0.8697674 0.1315789
vt 0.8697674 0.1783625
vt 0.820155 0.1783625
vt 0.8713178 0.1315789
vt 0.9209302 0.1315789
vt 0.9209302 0.1783625
vt 0.8713178 0.1783625
vt 0.9224806 0.1315789
vt 0.972093 0.1315789
vt 0.972093 0.1783625
vt 0.9224806 0.1783625
vt 0.6155038 0.6140351
vt 0.6651163 0.6140351
vt 0.6651163 0.6608187
vt 0.6155038 0.6608187
vt 0.6666667 0.6140351
vt 0.7162791 0.6140351
vt 0.7162791 0.6608187
vt 0.6666667 0.6608187
vt 0.7178295 0.6140351
vt 0.7674419 0.6140351
vt 0.7674419 0.6608187
vt 0.7178295 0.6608187
vt 0.7689922 0.6140351
vt 0.8186046 0.6140351
vt 0.8186046 0.6608187
vt 0.7689922 0.6608187
vt 0.820155 0.6140351
vt 0.8697674 0.6140351
vt 0.8697674 0.6608187
vt 0.820155 0.6608187
vt 0.6666667 0.08333331
vt 0.7162791 0.08333331
vt 0.7162791 0.1301169
vt 0.6666667 0.1301169
vt 0.7178295 0.08333331
vt 0.7674419 0.08333331
vt 0.7674419 0.1301169
vt 0.7178295 0.1301169
vt 0.6666667 0.0350877
vt 0.7162791 0.0350877
vt 0.7162791 0.08187133
vt 0.6666667 0.08187133
vt 0.7178295 0.0350877
vt 0.7674419 0.0350877
vt 0.7674419 0.08187133
vt 0.7178295 0.08187133

# Normal
vn 0 0 -1

# Mesh description
g mofawu_mesh_0004

# Faces
f 1/1/1 2/2/1 3/3/1 4/4/1
f 5/5/1 6/6/1 7/7/1 8/8/1
f 9/9/1 10/10/1 11/11/1 12/12/1
f 13/13/1 14/14/1 15/15/1 16/16/1
f 17/17/1 18/18/1 19/19/1 20/20/1
f 21/21/1 22/22/1 23/23/1 24/24/1
f 25/25/1 26/26/1 27/27/1 28/28/1
f 29/29/1 30/30/1 31/31/1 32/32/1
f 33/33/1 34/34/1 35/35/1 36/36/1
f 37/37/1 38/38/1 39/39/1 40/40/1
f 41/41/1 42/42/1 43/43/1 44/44/1
f 45/45/1 46/46/1 47/47/1 48/48/1
f 49/49/1 50/50/1 51/51/1 52/52/1
f 53/53/1 54/54/1 55/55/1 56/56/1
f 57/57/1 58/58/1 59/59/1 60/60/1
f 61/61/1 62/62/1 63/63/1 64/64/1
f 65/65/1 66/66/1 67/67/1 68/68/1
f 69/69/1 70/70/1 71/71/1 72/72/1
f 73/73/1 74/74/1 75/75/1 76/76/1
f 77/77/1 78/78/1 79/79/1 80/80/1
f 81/81/1 82/82/1 83/83/1 84/84/1
f 85/85/1 86/86/1 87/87/1 88/88/1
f 89/89/1 90/90/1 91/91/1 92/92/1
f 93/93/1 94/94/1 95/95/1 96/96/1
f 97/97/1 98/98/1 99/99/1 100/100/1
f 101/101/1 102/102/1 103/103/1 104/104/1
f 105/105/1 106/106/1 107/107/1 108/108/1
f 109/109/1 110/110/1 111/111/1 112/112/1
f 113/113/1 114/114/1 115/115/1 116/116/1
f 117/117/1 118/118/1 119/119/1 120/120/1
f 121/121/1 122/122/1 123/123/1 124/124/1
f 125/125/1 126/126/1 127/127/1 128/128/1
f 129/129/1 130/130/1 131/131/1 132/132/1
f 133/133/1 134/134/1 135/135/1 136/136/1
f 137/137/1 138/138/1 139/139/1 140/140/1
f 141/141/1 142/142/1 143/143/1 144/144/1
f 145/145/1 146/146/1 147/147/1 148/148/1
f 149/149/1 150/150/1 151/151/1 152/152/1
f 153/153/1 154/154/1 155/155/1 156/156/1
f 157/157/1 158/158/1 159/159/1 160/160/1
f 161/161/1 162/162/1 163/163/1 164/164/1
f 165/165/1 166/166/1 167/167/1 168/168/1
f 169/169/1 170/170/1 171/171/1 172/172/1
f 173/173/1 174/174/1 175/175/1 176/176/1
f 177/177/1 178/178/1 179/179/1 180/180/1
f 181/161/1 182/162/1 183/163/1 184/164/1
f 185/181/1 186/182/1 187/183/1 188/184/1
f 189/185/1 190/186/1 191/187/1 192/188/1
f 193/189/1 194/190/1 195/191/1 196/192/1
f 197/193/1 198/194/1 199/195/1 200/196/1
f 201/197/1 202/198/1 203/199/1 204/200/1
f 205/201/1 206/202/1 207/203/1 208/204/1
f 209/205/1 210/206/1 211/207/1 212/208/1
f 213/209/1 214/210/1 215/211/1 216/212/1
f 217/213/1 218/214/1 219/215/1 220/216/1
f 221/217/1 222/218/1 223/219/1 224/220/1
f 225/221/1 226/222/1 227/223/1 228/224/1
f 229/225/1 230/226/1 231/227/1 232/228/1
f 233/229/1 234/230/1 235/231/1 236/232/1
f 237/233/1 238/234/1 239/235/1 240/236/1
f 241/237/1 242/238/1 243/239/1 244/240/1
f 245/241/1 246/242/1 247/243/1 248/244/1
f 249/245/1 250/246/1 251/247/1 252/248/1
f 253/249/1 254/250/1 255/251/1 256/252/1
f 257/253/1 258/254/1 259/255/1 260/256/1
f 261/257/1 262/258/1 263/259/1 264/260/1
f 265/261/1 266/262/1 267/263/1 268/264/1
f 269/265/1 270/266/1 271/267/1 272/268/1
f 273/269/1 274/270/1 275/271/1 276/272/1
f 277/273/1 278/274/1 279/275/1 280/276/1
f 281/277/1 282/278/1 283/279/1 284/280/1
f 285/281/1 286/282/1 287/283/1 288/284/1
f 289/285/1 290/286/1 291/287/1 292/288/1
f 293/289/1 294/290/1 295/291/1 296/292/1
f 297/293/1 298/294/1 299/295/1 300/296/1
f 301/297/1 302/298/1 303/299/1 304/300/1
f 305/301/1 306/302/1 307/303/1 308/304/1

