# Tiled2Unity generated file. Do not modify by hand.
# Wavefront file for 'mofawu_mesh_0003.obj'

# Vertices (Count = 60)
v -3 -1 0
v -4 -1 0
v -4 0 0
v -3 0 0
v -4 -1 0
v -5 -1 0
v -5 0 0
v -4 0 0
v -5 -1 0
v -6 -1 0
v -6 0 0
v -5 0 0
v -6 -1 0
v -7 -1 0
v -7 0 0
v -6 0 0
v -7 -1 0
v -8 -1 0
v -8 0 0
v -7 0 0
v -3 -2 0
v -4 -2 0
v -4 -1 0
v -3 -1 0
v -4 -2 0
v -5 -2 0
v -5 -1 0
v -4 -1 0
v -5 -2 0
v -6 -2 0
v -6 -1 0
v -5 -1 0
v -6 -2 0
v -7 -2 0
v -7 -1 0
v -6 -1 0
v -7 -2 0
v -8 -2 0
v -8 -1 0
v -7 -1 0
v -3 -3 0
v -4 -3 0
v -4 -2 0
v -3 -2 0
v -4 -3 0
v -5 -3 0
v -5 -2 0
v -4 -2 0
v -5 -3 0
v -6 -3 0
v -6 -2 0
v -5 -2 0
v -6 -3 0
v -7 -3 0
v -7 -2 0
v -6 -2 0
v -7 -3 0
v -8 -3 0
v -8 -2 0
v -7 -2 0

# Texture cooridinates (Count = 60)
vt 0.6155038 0.5657895
vt 0.6651163 0.5657895
vt 0.6651163 0.6125731
vt 0.6155038 0.6125731
vt 0.6666667 0.5657895
vt 0.7162791 0.5657895
vt 0.7162791 0.6125731
vt 0.6666667 0.6125731
vt 0.7178295 0.5657895
vt 0.7674419 0.5657895
vt 0.7674419 0.6125731
vt 0.7178295 0.6125731
vt 0.7689922 0.5657895
vt 0.8186046 0.5657895
vt 0.8186046 0.6125731
vt 0.7689922 0.6125731
vt 0.820155 0.5657895
vt 0.8697674 0.5657895
vt 0.8697674 0.6125731
vt 0.820155 0.6125731
vt 0.6155038 0.5175439
vt 0.6651163 0.5175439
vt 0.6651163 0.5643275
vt 0.6155038 0.5643275
vt 0.6666667 0.5175439
vt 0.7162791 0.5175439
vt 0.7162791 0.5643275
vt 0.6666667 0.5643275
vt 0.7178295 0.5175439
vt 0.7674419 0.5175439
vt 0.7674419 0.5643275
vt 0.7178295 0.5643275
vt 0.7689922 0.5175439
vt 0.8186046 0.5175439
vt 0.8186046 0.5643275
vt 0.7689922 0.5643275
vt 0.820155 0.5175439
vt 0.8697674 0.5175439
vt 0.8697674 0.5643275
vt 0.820155 0.5643275
vt 0.6155038 0.4692982
vt 0.6651163 0.4692982
vt 0.6651163 0.5160819
vt 0.6155038 0.5160819
vt 0.6666667 0.4692982
vt 0.7162791 0.4692982
vt 0.7162791 0.5160819
vt 0.6666667 0.5160819
vt 0.7178295 0.4692982
vt 0.7674419 0.4692982
vt 0.7674419 0.5160819
vt 0.7178295 0.5160819
vt 0.7689922 0.4692982
vt 0.8186046 0.4692982
vt 0.8186046 0.5160819
vt 0.7689922 0.5160819
vt 0.820155 0.4692982
vt 0.8697674 0.4692982
vt 0.8697674 0.5160819
vt 0.820155 0.5160819

# Normal
vn 0 0 -1

# Mesh description
g mofawu_mesh_0003

# Faces
f 1/1/1 2/2/1 3/3/1 4/4/1
f 5/5/1 6/6/1 7/7/1 8/8/1
f 9/9/1 10/10/1 11/11/1 12/12/1
f 13/13/1 14/14/1 15/15/1 16/16/1
f 17/17/1 18/18/1 19/19/1 20/20/1
f 21/21/1 22/22/1 23/23/1 24/24/1
f 25/25/1 26/26/1 27/27/1 28/28/1
f 29/29/1 30/30/1 31/31/1 32/32/1
f 33/33/1 34/34/1 35/35/1 36/36/1
f 37/37/1 38/38/1 39/39/1 40/40/1
f 41/41/1 42/42/1 43/43/1 44/44/1
f 45/45/1 46/46/1 47/47/1 48/48/1
f 49/49/1 50/50/1 51/51/1 52/52/1
f 53/53/1 54/54/1 55/55/1 56/56/1
f 57/57/1 58/58/1 59/59/1 60/60/1

