# Tiled2Unity generated file. Do not modify by hand.
# Wavefront file for 'map_mesh_0023.obj'

# Vertices (Count = 12)
v -24.53333 -2.133333 0
v -25.06667 -2.133333 0
v -25.06667 -1.6 0
v -24.53333 -1.6 0
v -24.53333 -2.666667 0
v -25.06667 -2.666667 0
v -25.06667 -2.133333 0
v -24.53333 -2.133333 0
v -24.53333 -10.66667 0
v -25.06667 -10.66667 0
v -25.06667 -10.13333 0
v -24.53333 -10.13333 0

# Texture cooridinates (Count = 4)
vt 0.09824047 0.8465116
vt 0.1451613 0.8465116
vt 0.1451613 0.9209302
vt 0.09824047 0.9209302

# Normal
vn 0 0 -1

# Mesh description
g map_mesh_0023

# Faces
f 1/1/1 2/2/1 3/3/1 4/4/1
f 5/1/1 6/2/1 7/3/1 8/4/1
f 9/1/1 10/2/1 11/3/1 12/4/1

