# Tiled2Unity generated file. Do not modify by hand.
# Wavefront file for 'map_mesh_0024.obj'

# Vertices (Count = 576)
v -11.2 -4.266667 0
v -11.73333 -4.266667 0
v -11.73333 -3.733334 0
v -11.2 -3.733334 0
v -11.73333 -4.266667 0
v -12.26667 -4.266667 0
v -12.26667 -3.733334 0
v -11.73333 -3.733334 0
v -37.86667 -4.266667 0
v -38.4 -4.266667 0
v -38.4 -3.733334 0
v -37.86667 -3.733334 0
v -38.4 -4.266667 0
v -38.93333 -4.266667 0
v -38.93333 -3.733334 0
v -38.4 -3.733334 0
v -9.6 -4.8 0
v -10.13333 -4.8 0
v -10.13333 -4.266667 0
v -9.6 -4.266667 0
v -10.13333 -4.8 0
v -10.66667 -4.8 0
v -10.66667 -4.266667 0
v -10.13333 -4.266667 0
v -10.66667 -4.8 0
v -11.2 -4.8 0
v -11.2 -4.266667 0
v -10.66667 -4.266667 0
v -11.2 -4.8 0
v -11.73333 -4.8 0
v -11.73333 -4.266667 0
v -11.2 -4.266667 0
v -11.73333 -4.8 0
v -12.26667 -4.8 0
v -12.26667 -4.266667 0
v -11.73333 -4.266667 0
v -21.33333 -4.8 0
v -21.86667 -4.8 0
v -21.86667 -4.266667 0
v -21.33333 -4.266667 0
v -21.86667 -4.8 0
v -22.4 -4.8 0
v -22.4 -4.266667 0
v -21.86667 -4.266667 0
v -22.4 -4.8 0
v -22.93333 -4.8 0
v -22.93333 -4.266667 0
v -22.4 -4.266667 0
v -22.93333 -4.8 0
v -23.46667 -4.8 0
v -23.46667 -4.266667 0
v -22.93333 -4.266667 0
v -23.46667 -4.8 0
v -24 -4.8 0
v -24 -4.266667 0
v -23.46667 -4.266667 0
v -24.53333 -4.8 0
v -25.06667 -4.8 0
v -25.06667 -4.266667 0
v -24.53333 -4.266667 0
v -25.06667 -4.8 0
v -25.6 -4.8 0
v -25.6 -4.266667 0
v -25.06667 -4.266667 0
v -25.6 -4.8 0
v -26.13334 -4.8 0
v -26.13334 -4.266667 0
v -25.6 -4.266667 0
v -26.13334 -4.8 0
v -26.66667 -4.8 0
v -26.66667 -4.266667 0
v -26.13334 -4.266667 0
v -26.66667 -4.8 0
v -27.2 -4.8 0
v -27.2 -4.266667 0
v -26.66667 -4.266667 0
v -36.26667 -4.8 0
v -36.8 -4.8 0
v -36.8 -4.266667 0
v -36.26667 -4.266667 0
v -36.8 -4.8 0
v -37.33334 -4.8 0
v -37.33334 -4.266667 0
v -36.8 -4.266667 0
v -37.33334 -4.8 0
v -37.86667 -4.8 0
v -37.86667 -4.266667 0
v -37.33334 -4.266667 0
v -37.86667 -4.8 0
v -38.4 -4.8 0
v -38.4 -4.266667 0
v -37.86667 -4.266667 0
v -38.4 -4.8 0
v -38.93333 -4.8 0
v -38.93333 -4.266667 0
v -38.4 -4.266667 0
v -9.6 -5.333333 0
v -10.13333 -5.333333 0
v -10.13333 -4.8 0
v -9.6 -4.8 0
v -10.13333 -5.333333 0
v -10.66667 -5.333333 0
v -10.66667 -4.8 0
v -10.13333 -4.8 0
v -10.66667 -5.333333 0
v -11.2 -5.333333 0
v -11.2 -4.8 0
v -10.66667 -4.8 0
v -11.2 -5.333333 0
v -11.73333 -5.333333 0
v -11.73333 -4.8 0
v -11.2 -4.8 0
v -11.73333 -5.333333 0
v -12.26667 -5.333333 0
v -12.26667 -4.8 0
v -11.73333 -4.8 0
v -21.33333 -5.333333 0
v -21.86667 -5.333333 0
v -21.86667 -4.8 0
v -21.33333 -4.8 0
v -21.86667 -5.333333 0
v -22.4 -5.333333 0
v -22.4 -4.8 0
v -21.86667 -4.8 0
v -22.4 -5.333333 0
v -22.93333 -5.333333 0
v -22.93333 -4.8 0
v -22.4 -4.8 0
v -22.93333 -5.333333 0
v -23.46667 -5.333333 0
v -23.46667 -4.8 0
v -22.93333 -4.8 0
v -23.46667 -5.333333 0
v -24 -5.333333 0
v -24 -4.8 0
v -23.46667 -4.8 0
v -24.53333 -5.333333 0
v -25.06667 -5.333333 0
v -25.06667 -4.8 0
v -24.53333 -4.8 0
v -25.06667 -5.333333 0
v -25.6 -5.333333 0
v -25.6 -4.8 0
v -25.06667 -4.8 0
v -25.6 -5.333333 0
v -26.13334 -5.333333 0
v -26.13334 -4.8 0
v -25.6 -4.8 0
v -26.13334 -5.333333 0
v -26.66667 -5.333333 0
v -26.66667 -4.8 0
v -26.13334 -4.8 0
v -26.66667 -5.333333 0
v -27.2 -5.333333 0
v -27.2 -4.8 0
v -26.66667 -4.8 0
v -36.26667 -5.333333 0
v -36.8 -5.333333 0
v -36.8 -4.8 0
v -36.26667 -4.8 0
v -36.8 -5.333333 0
v -37.33334 -5.333333 0
v -37.33334 -4.8 0
v -36.8 -4.8 0
v -37.33334 -5.333333 0
v -37.86667 -5.333333 0
v -37.86667 -4.8 0
v -37.33334 -4.8 0
v -37.86667 -5.333333 0
v -38.4 -5.333333 0
v -38.4 -4.8 0
v -37.86667 -4.8 0
v -38.4 -5.333333 0
v -38.93333 -5.333333 0
v -38.93333 -4.8 0
v -38.4 -4.8 0
v -9.6 -5.866667 0
v -10.13333 -5.866667 0
v -10.13333 -5.333333 0
v -9.6 -5.333333 0
v -10.13333 -5.866667 0
v -10.66667 -5.866667 0
v -10.66667 -5.333333 0
v -10.13333 -5.333333 0
v -10.66667 -5.866667 0
v -11.2 -5.866667 0
v -11.2 -5.333333 0
v -10.66667 -5.333333 0
v -11.2 -5.866667 0
v -11.73333 -5.866667 0
v -11.73333 -5.333333 0
v -11.2 -5.333333 0
v -11.73333 -5.866667 0
v -12.26667 -5.866667 0
v -12.26667 -5.333333 0
v -11.73333 -5.333333 0
v -21.33333 -5.866667 0
v -21.86667 -5.866667 0
v -21.86667 -5.333333 0
v -21.33333 -5.333333 0
v -21.86667 -5.866667 0
v -22.4 -5.866667 0
v -22.4 -5.333333 0
v -21.86667 -5.333333 0
v -22.4 -5.866667 0
v -22.93333 -5.866667 0
v -22.93333 -5.333333 0
v -22.4 -5.333333 0
v -22.93333 -5.866667 0
v -23.46667 -5.866667 0
v -23.46667 -5.333333 0
v -22.93333 -5.333333 0
v -23.46667 -5.866667 0
v -24 -5.866667 0
v -24 -5.333333 0
v -23.46667 -5.333333 0
v -24.53333 -5.866667 0
v -25.06667 -5.866667 0
v -25.06667 -5.333333 0
v -24.53333 -5.333333 0
v -25.06667 -5.866667 0
v -25.6 -5.866667 0
v -25.6 -5.333333 0
v -25.06667 -5.333333 0
v -25.6 -5.866667 0
v -26.13334 -5.866667 0
v -26.13334 -5.333333 0
v -25.6 -5.333333 0
v -26.13334 -5.866667 0
v -26.66667 -5.866667 0
v -26.66667 -5.333333 0
v -26.13334 -5.333333 0
v -26.66667 -5.866667 0
v -27.2 -5.866667 0
v -27.2 -5.333333 0
v -26.66667 -5.333333 0
v -36.26667 -5.866667 0
v -36.8 -5.866667 0
v -36.8 -5.333333 0
v -36.26667 -5.333333 0
v -36.8 -5.866667 0
v -37.33334 -5.866667 0
v -37.33334 -5.333333 0
v -36.8 -5.333333 0
v -37.33334 -5.866667 0
v -37.86667 -5.866667 0
v -37.86667 -5.333333 0
v -37.33334 -5.333333 0
v -37.86667 -5.866667 0
v -38.4 -5.866667 0
v -38.4 -5.333333 0
v -37.86667 -5.333333 0
v -38.4 -5.866667 0
v -38.93333 -5.866667 0
v -38.93333 -5.333333 0
v -38.4 -5.333333 0
v -9.6 -6.400001 0
v -10.13333 -6.400001 0
v -10.13333 -5.866667 0
v -9.6 -5.866667 0
v -10.13333 -6.400001 0
v -10.66667 -6.400001 0
v -10.66667 -5.866667 0
v -10.13333 -5.866667 0
v -10.66667 -6.400001 0
v -11.2 -6.400001 0
v -11.2 -5.866667 0
v -10.66667 -5.866667 0
v -11.2 -6.400001 0
v -11.73333 -6.400001 0
v -11.73333 -5.866667 0
v -11.2 -5.866667 0
v -11.73333 -6.400001 0
v -12.26667 -6.400001 0
v -12.26667 -5.866667 0
v -11.73333 -5.866667 0
v -21.33333 -6.400001 0
v -21.86667 -6.400001 0
v -21.86667 -5.866667 0
v -21.33333 -5.866667 0
v -21.86667 -6.400001 0
v -22.4 -6.400001 0
v -22.4 -5.866667 0
v -21.86667 -5.866667 0
v -22.4 -6.400001 0
v -22.93333 -6.400001 0
v -22.93333 -5.866667 0
v -22.4 -5.866667 0
v -22.93333 -6.400001 0
v -23.46667 -6.400001 0
v -23.46667 -5.866667 0
v -22.93333 -5.866667 0
v -23.46667 -6.400001 0
v -24 -6.400001 0
v -24 -5.866667 0
v -23.46667 -5.866667 0
v -24.53333 -6.400001 0
v -25.06667 -6.400001 0
v -25.06667 -5.866667 0
v -24.53333 -5.866667 0
v -25.06667 -6.400001 0
v -25.6 -6.400001 0
v -25.6 -5.866667 0
v -25.06667 -5.866667 0
v -25.6 -6.400001 0
v -26.13334 -6.400001 0
v -26.13334 -5.866667 0
v -25.6 -5.866667 0
v -26.13334 -6.400001 0
v -26.66667 -6.400001 0
v -26.66667 -5.866667 0
v -26.13334 -5.866667 0
v -26.66667 -6.400001 0
v -27.2 -6.400001 0
v -27.2 -5.866667 0
v -26.66667 -5.866667 0
v -36.26667 -6.400001 0
v -36.8 -6.400001 0
v -36.8 -5.866667 0
v -36.26667 -5.866667 0
v -36.8 -6.400001 0
v -37.33334 -6.400001 0
v -37.33334 -5.866667 0
v -36.8 -5.866667 0
v -37.33334 -6.400001 0
v -37.86667 -6.400001 0
v -37.86667 -5.866667 0
v -37.33334 -5.866667 0
v -37.86667 -6.400001 0
v -38.4 -6.400001 0
v -38.4 -5.866667 0
v -37.86667 -5.866667 0
v -38.4 -6.400001 0
v -38.93333 -6.400001 0
v -38.93333 -5.866667 0
v -38.4 -5.866667 0
v -9.6 -6.933334 0
v -10.13333 -6.933334 0
v -10.13333 -6.400001 0
v -9.6 -6.400001 0
v -10.13333 -6.933334 0
v -10.66667 -6.933334 0
v -10.66667 -6.400001 0
v -10.13333 -6.400001 0
v -10.66667 -6.933334 0
v -11.2 -6.933334 0
v -11.2 -6.400001 0
v -10.66667 -6.400001 0
v -11.2 -6.933334 0
v -11.73333 -6.933334 0
v -11.73333 -6.400001 0
v -11.2 -6.400001 0
v -11.73333 -6.933334 0
v -12.26667 -6.933334 0
v -12.26667 -6.400001 0
v -11.73333 -6.400001 0
v -21.33333 -6.933334 0
v -21.86667 -6.933334 0
v -21.86667 -6.400001 0
v -21.33333 -6.400001 0
v -21.86667 -6.933334 0
v -22.4 -6.933334 0
v -22.4 -6.400001 0
v -21.86667 -6.400001 0
v -22.4 -6.933334 0
v -22.93333 -6.933334 0
v -22.93333 -6.400001 0
v -22.4 -6.400001 0
v -22.93333 -6.933334 0
v -23.46667 -6.933334 0
v -23.46667 -6.400001 0
v -22.93333 -6.400001 0
v -23.46667 -6.933334 0
v -24 -6.933334 0
v -24 -6.400001 0
v -23.46667 -6.400001 0
v -24.53333 -6.933334 0
v -25.06667 -6.933334 0
v -25.06667 -6.400001 0
v -24.53333 -6.400001 0
v -25.06667 -6.933334 0
v -25.6 -6.933334 0
v -25.6 -6.400001 0
v -25.06667 -6.400001 0
v -25.6 -6.933334 0
v -26.13334 -6.933334 0
v -26.13334 -6.400001 0
v -25.6 -6.400001 0
v -26.13334 -6.933334 0
v -26.66667 -6.933334 0
v -26.66667 -6.400001 0
v -26.13334 -6.400001 0
v -26.66667 -6.933334 0
v -27.2 -6.933334 0
v -27.2 -6.400001 0
v -26.66667 -6.400001 0
v -36.26667 -6.933334 0
v -36.8 -6.933334 0
v -36.8 -6.400001 0
v -36.26667 -6.400001 0
v -36.8 -6.933334 0
v -37.33334 -6.933334 0
v -37.33334 -6.400001 0
v -36.8 -6.400001 0
v -37.33334 -6.933334 0
v -37.86667 -6.933334 0
v -37.86667 -6.400001 0
v -37.33334 -6.400001 0
v -37.86667 -6.933334 0
v -38.4 -6.933334 0
v -38.4 -6.400001 0
v -37.86667 -6.400001 0
v -38.4 -6.933334 0
v -38.93333 -6.933334 0
v -38.93333 -6.400001 0
v -38.4 -6.400001 0
v -9.6 -7.466667 0
v -10.13333 -7.466667 0
v -10.13333 -6.933334 0
v -9.6 -6.933334 0
v -10.13333 -7.466667 0
v -10.66667 -7.466667 0
v -10.66667 -6.933334 0
v -10.13333 -6.933334 0
v -10.66667 -7.466667 0
v -11.2 -7.466667 0
v -11.2 -6.933334 0
v -10.66667 -6.933334 0
v -11.2 -7.466667 0
v -11.73333 -7.466667 0
v -11.73333 -6.933334 0
v -11.2 -6.933334 0
v -11.73333 -7.466667 0
v -12.26667 -7.466667 0
v -12.26667 -6.933334 0
v -11.73333 -6.933334 0
v -21.33333 -7.466667 0
v -21.86667 -7.466667 0
v -21.86667 -6.933334 0
v -21.33333 -6.933334 0
v -21.86667 -7.466667 0
v -22.4 -7.466667 0
v -22.4 -6.933334 0
v -21.86667 -6.933334 0
v -22.4 -7.466667 0
v -22.93333 -7.466667 0
v -22.93333 -6.933334 0
v -22.4 -6.933334 0
v -22.93333 -7.466667 0
v -23.46667 -7.466667 0
v -23.46667 -6.933334 0
v -22.93333 -6.933334 0
v -23.46667 -7.466667 0
v -24 -7.466667 0
v -24 -6.933334 0
v -23.46667 -6.933334 0
v -24.53333 -7.466667 0
v -25.06667 -7.466667 0
v -25.06667 -6.933334 0
v -24.53333 -6.933334 0
v -25.06667 -7.466667 0
v -25.6 -7.466667 0
v -25.6 -6.933334 0
v -25.06667 -6.933334 0
v -25.6 -7.466667 0
v -26.13334 -7.466667 0
v -26.13334 -6.933334 0
v -25.6 -6.933334 0
v -26.13334 -7.466667 0
v -26.66667 -7.466667 0
v -26.66667 -6.933334 0
v -26.13334 -6.933334 0
v -26.66667 -7.466667 0
v -27.2 -7.466667 0
v -27.2 -6.933334 0
v -26.66667 -6.933334 0
v -36.26667 -7.466667 0
v -36.8 -7.466667 0
v -36.8 -6.933334 0
v -36.26667 -6.933334 0
v -36.8 -7.466667 0
v -37.33334 -7.466667 0
v -37.33334 -6.933334 0
v -36.8 -6.933334 0
v -37.33334 -7.466667 0
v -37.86667 -7.466667 0
v -37.86667 -6.933334 0
v -37.33334 -6.933334 0
v -37.86667 -7.466667 0
v -38.4 -7.466667 0
v -38.4 -6.933334 0
v -37.86667 -6.933334 0
v -38.4 -7.466667 0
v -38.93333 -7.466667 0
v -38.93333 -6.933334 0
v -38.4 -6.933334 0
v -9.6 -8 0
v -10.13333 -8 0
v -10.13333 -7.466667 0
v -9.6 -7.466667 0
v -10.13333 -8 0
v -10.66667 -8 0
v -10.66667 -7.466667 0
v -10.13333 -7.466667 0
v -10.66667 -8 0
v -11.2 -8 0
v -11.2 -7.466667 0
v -10.66667 -7.466667 0
v -11.2 -8 0
v -11.73333 -8 0
v -11.73333 -7.466667 0
v -11.2 -7.466667 0
v -11.73333 -8 0
v -12.26667 -8 0
v -12.26667 -7.466667 0
v -11.73333 -7.466667 0
v -21.33333 -8 0
v -21.86667 -8 0
v -21.86667 -7.466667 0
v -21.33333 -7.466667 0
v -21.86667 -8 0
v -22.4 -8 0
v -22.4 -7.466667 0
v -21.86667 -7.466667 0
v -22.4 -8 0
v -22.93333 -8 0
v -22.93333 -7.466667 0
v -22.4 -7.466667 0
v -22.93333 -8 0
v -23.46667 -8 0
v -23.46667 -7.466667 0
v -22.93333 -7.466667 0
v -23.46667 -8 0
v -24 -8 0
v -24 -7.466667 0
v -23.46667 -7.466667 0
v -24.53333 -8 0
v -25.06667 -8 0
v -25.06667 -7.466667 0
v -24.53333 -7.466667 0
v -25.06667 -8 0
v -25.6 -8 0
v -25.6 -7.466667 0
v -25.06667 -7.466667 0
v -25.6 -8 0
v -26.13334 -8 0
v -26.13334 -7.466667 0
v -25.6 -7.466667 0
v -26.13334 -8 0
v -26.66667 -8 0
v -26.66667 -7.466667 0
v -26.13334 -7.466667 0
v -26.66667 -8 0
v -27.2 -8 0
v -27.2 -7.466667 0
v -26.66667 -7.466667 0
v -36.26667 -8 0
v -36.8 -8 0
v -36.8 -7.466667 0
v -36.26667 -7.466667 0
v -36.8 -8 0
v -37.33334 -8 0
v -37.33334 -7.466667 0
v -36.8 -7.466667 0
v -37.33334 -8 0
v -37.86667 -8 0
v -37.86667 -7.466667 0
v -37.33334 -7.466667 0
v -37.86667 -8 0
v -38.4 -8 0
v -38.4 -7.466667 0
v -37.86667 -7.466667 0
v -38.4 -8 0
v -38.93333 -8 0
v -38.93333 -7.466667 0
v -38.4 -7.466667 0

# Texture cooridinates (Count = 280)
vt 0.7365813 0.9479495
vt 0.7630058 0.9479495
vt 0.7630058 0.9984227
vt 0.7365813 0.9984227
vt 0.7638316 0.9479495
vt 0.790256 0.9479495
vt 0.790256 0.9984227
vt 0.7638316 0.9984227
vt 0.9273328 0.9479495
vt 0.9537572 0.9479495
vt 0.9537572 0.9984227
vt 0.9273328 0.9984227
vt 0.954583 0.9479495
vt 0.9810075 0.9479495
vt 0.9810075 0.9984227
vt 0.954583 0.9984227
vt 0.7093312 0.9479495
vt 0.7357556 0.9479495
vt 0.7357556 0.9984227
vt 0.7093312 0.9984227
vt 0.7910817 0.9479495
vt 0.8175062 0.9479495
vt 0.8175062 0.9984227
vt 0.7910817 0.9984227
vt 0.818332 0.9479495
vt 0.8447564 0.9479495
vt 0.8447564 0.9984227
vt 0.818332 0.9984227
vt 0.8455822 0.9479495
vt 0.8720066 0.9479495
vt 0.8720066 0.9984227
vt 0.8455822 0.9984227
vt 0.8728324 0.9479495
vt 0.8992568 0.9479495
vt 0.8992568 0.9984227
vt 0.8728324 0.9984227
vt 0.9000826 0.9479495
vt 0.926507 0.9479495
vt 0.926507 0.9984227
vt 0.9000826 0.9984227
vt 0.7093312 0.8958991
vt 0.7357556 0.8958991
vt 0.7357556 0.9463723
vt 0.7093312 0.9463723
vt 0.7365813 0.8958991
vt 0.7630058 0.8958991
vt 0.7630058 0.9463723
vt 0.7365813 0.9463723
vt 0.7638316 0.8958991
vt 0.790256 0.8958991
vt 0.790256 0.9463723
vt 0.7638316 0.9463723
vt 0.7910817 0.8958991
vt 0.8175062 0.8958991
vt 0.8175062 0.9463723
vt 0.7910817 0.9463723
vt 0.818332 0.8958991
vt 0.8447564 0.8958991
vt 0.8447564 0.9463723
vt 0.818332 0.9463723
vt 0.8455822 0.8958991
vt 0.8720066 0.8958991
vt 0.8720066 0.9463723
vt 0.8455822 0.9463723
vt 0.8728324 0.8958991
vt 0.8992568 0.8958991
vt 0.8992568 0.9463723
vt 0.8728324 0.9463723
vt 0.9000826 0.8958991
vt 0.926507 0.8958991
vt 0.926507 0.9463723
vt 0.9000826 0.9463723
vt 0.9273328 0.8958991
vt 0.9537572 0.8958991
vt 0.9537572 0.9463723
vt 0.9273328 0.9463723
vt 0.954583 0.8958991
vt 0.9810075 0.8958991
vt 0.9810075 0.9463723
vt 0.954583 0.9463723
vt 0.7093312 0.8438486
vt 0.7357556 0.8438486
vt 0.7357556 0.8943218
vt 0.7093312 0.8943218
vt 0.7365813 0.8438486
vt 0.7630058 0.8438486
vt 0.7630058 0.8943218
vt 0.7365813 0.8943218
vt 0.7638316 0.8438486
vt 0.790256 0.8438486
vt 0.790256 0.8943218
vt 0.7638316 0.8943218
vt 0.7910817 0.8438486
vt 0.8175062 0.8438486
vt 0.8175062 0.8943218
vt 0.7910817 0.8943218
vt 0.818332 0.8438486
vt 0.8447564 0.8438486
vt 0.8447564 0.8943218
vt 0.818332 0.8943218
vt 0.8455822 0.8438486
vt 0.8720066 0.8438486
vt 0.8720066 0.8943218
vt 0.8455822 0.8943218
vt 0.8728324 0.8438486
vt 0.8992568 0.8438486
vt 0.8992568 0.8943218
vt 0.8728324 0.8943218
vt 0.9000826 0.8438486
vt 0.926507 0.8438486
vt 0.926507 0.8943218
vt 0.9000826 0.8943218
vt 0.9273328 0.8438486
vt 0.9537572 0.8438486
vt 0.9537572 0.8943218
vt 0.9273328 0.8943218
vt 0.954583 0.8438486
vt 0.9810075 0.8438486
vt 0.9810075 0.8943218
vt 0.954583 0.8943218
vt 0.7093312 0.7917981
vt 0.7357556 0.7917981
vt 0.7357556 0.8422713
vt 0.7093312 0.8422713
vt 0.7365813 0.7917981
vt 0.7630058 0.7917981
vt 0.7630058 0.8422713
vt 0.7365813 0.8422713
vt 0.7638316 0.7917981
vt 0.790256 0.7917981
vt 0.790256 0.8422713
vt 0.7638316 0.8422713
vt 0.7910817 0.7917981
vt 0.8175062 0.7917981
vt 0.8175062 0.8422713
vt 0.7910817 0.8422713
vt 0.818332 0.7917981
vt 0.8447564 0.7917981
vt 0.8447564 0.8422713
vt 0.818332 0.8422713
vt 0.8455822 0.7917981
vt 0.8720066 0.7917981
vt 0.8720066 0.8422713
vt 0.8455822 0.8422713
vt 0.8728324 0.7917981
vt 0.8992568 0.7917981
vt 0.8992568 0.8422713
vt 0.8728324 0.8422713
vt 0.9000826 0.7917981
vt 0.926507 0.7917981
vt 0.926507 0.8422713
vt 0.9000826 0.8422713
vt 0.9273328 0.7917981
vt 0.9537572 0.7917981
vt 0.9537572 0.8422713
vt 0.9273328 0.8422713
vt 0.954583 0.7917981
vt 0.9810075 0.7917981
vt 0.9810075 0.8422713
vt 0.954583 0.8422713
vt 0.7093312 0.7397476
vt 0.7357556 0.7397476
vt 0.7357556 0.7902209
vt 0.7093312 0.7902209
vt 0.7365813 0.7397476
vt 0.7630058 0.7397476
vt 0.7630058 0.7902209
vt 0.7365813 0.7902209
vt 0.7638316 0.7397476
vt 0.790256 0.7397476
vt 0.790256 0.7902209
vt 0.7638316 0.7902209
vt 0.7910817 0.7397476
vt 0.8175062 0.7397476
vt 0.8175062 0.7902209
vt 0.7910817 0.7902209
vt 0.818332 0.7397476
vt 0.8447564 0.7397476
vt 0.8447564 0.7902209
vt 0.818332 0.7902209
vt 0.8455822 0.7397476
vt 0.8720066 0.7397476
vt 0.8720066 0.7902209
vt 0.8455822 0.7902209
vt 0.8728324 0.7397476
vt 0.8992568 0.7397476
vt 0.8992568 0.7902209
vt 0.8728324 0.7902209
vt 0.9000826 0.7397476
vt 0.926507 0.7397476
vt 0.926507 0.7902209
vt 0.9000826 0.7902209
vt 0.9273328 0.7397476
vt 0.9537572 0.7397476
vt 0.9537572 0.7902209
vt 0.9273328 0.7902209
vt 0.954583 0.7397476
vt 0.9810075 0.7397476
vt 0.9810075 0.7902209
vt 0.954583 0.7902209
vt 0.7093312 0.6876972
vt 0.7357556 0.6876972
vt 0.7357556 0.7381704
vt 0.7093312 0.7381704
vt 0.7365813 0.6876972
vt 0.7630058 0.6876972
vt 0.7630058 0.7381704
vt 0.7365813 0.7381704
vt 0.7638316 0.6876972
vt 0.790256 0.6876972
vt 0.790256 0.7381704
vt 0.7638316 0.7381704
vt 0.7910817 0.6876972
vt 0.8175062 0.6876972
vt 0.8175062 0.7381704
vt 0.7910817 0.7381704
vt 0.818332 0.6876972
vt 0.8447564 0.6876972
vt 0.8447564 0.7381704
vt 0.818332 0.7381704
vt 0.8455822 0.6876972
vt 0.8720066 0.6876972
vt 0.8720066 0.7381704
vt 0.8455822 0.7381704
vt 0.8728324 0.6876972
vt 0.8992568 0.6876972
vt 0.8992568 0.7381704
vt 0.8728324 0.7381704
vt 0.9000826 0.6876972
vt 0.926507 0.6876972
vt 0.926507 0.7381704
vt 0.9000826 0.7381704
vt 0.9273328 0.6876972
vt 0.9537572 0.6876972
vt 0.9537572 0.7381704
vt 0.9273328 0.7381704
vt 0.954583 0.6876972
vt 0.9810075 0.6876972
vt 0.9810075 0.7381704
vt 0.954583 0.7381704
vt 0.7093312 0.6356467
vt 0.7357556 0.6356467
vt 0.7357556 0.6861199
vt 0.7093312 0.6861199
vt 0.7365813 0.6356467
vt 0.7630058 0.6356467
vt 0.7630058 0.6861199
vt 0.7365813 0.6861199
vt 0.7638316 0.6356467
vt 0.790256 0.6356467
vt 0.790256 0.6861199
vt 0.7638316 0.6861199
vt 0.7910817 0.6356467
vt 0.8175062 0.6356467
vt 0.8175062 0.6861199
vt 0.7910817 0.6861199
vt 0.818332 0.6356467
vt 0.8447564 0.6356467
vt 0.8447564 0.6861199
vt 0.818332 0.6861199
vt 0.8455822 0.6356467
vt 0.8720066 0.6356467
vt 0.8720066 0.6861199
vt 0.8455822 0.6861199
vt 0.8728324 0.6356467
vt 0.8992568 0.6356467
vt 0.8992568 0.6861199
vt 0.8728324 0.6861199
vt 0.9000826 0.6356467
vt 0.926507 0.6356467
vt 0.926507 0.6861199
vt 0.9000826 0.6861199
vt 0.9273328 0.6356467
vt 0.9537572 0.6356467
vt 0.9537572 0.6861199
vt 0.9273328 0.6861199
vt 0.954583 0.6356467
vt 0.9810075 0.6356467
vt 0.9810075 0.6861199
vt 0.954583 0.6861199

# Normal
vn 0 0 -1

# Mesh description
g map_mesh_0024

# Faces
f 1/1/1 2/2/1 3/3/1 4/4/1
f 5/5/1 6/6/1 7/7/1 8/8/1
f 9/9/1 10/10/1 11/11/1 12/12/1
f 13/13/1 14/14/1 15/15/1 16/16/1
f 17/17/1 18/18/1 19/19/1 20/20/1
f 21/1/1 22/2/1 23/3/1 24/4/1
f 25/5/1 26/6/1 27/7/1 28/8/1
f 29/21/1 30/22/1 31/23/1 32/24/1
f 33/25/1 34/26/1 35/27/1 36/28/1
f 37/29/1 38/30/1 39/31/1 40/32/1
f 41/33/1 42/34/1 43/35/1 44/36/1
f 45/37/1 46/38/1 47/39/1 48/40/1
f 49/9/1 50/10/1 51/11/1 52/12/1
f 53/13/1 54/14/1 55/15/1 56/16/1
f 57/17/1 58/18/1 59/19/1 60/20/1
f 61/1/1 62/2/1 63/3/1 64/4/1
f 65/5/1 66/6/1 67/7/1 68/8/1
f 69/21/1 70/22/1 71/23/1 72/24/1
f 73/25/1 74/26/1 75/27/1 76/28/1
f 77/29/1 78/30/1 79/31/1 80/32/1
f 81/33/1 82/34/1 83/35/1 84/36/1
f 85/37/1 86/38/1 87/39/1 88/40/1
f 89/9/1 90/10/1 91/11/1 92/12/1
f 93/13/1 94/14/1 95/15/1 96/16/1
f 97/41/1 98/42/1 99/43/1 100/44/1
f 101/45/1 102/46/1 103/47/1 104/48/1
f 105/49/1 106/50/1 107/51/1 108/52/1
f 109/53/1 110/54/1 111/55/1 112/56/1
f 113/57/1 114/58/1 115/59/1 116/60/1
f 117/61/1 118/62/1 119/63/1 120/64/1
f 121/65/1 122/66/1 123/67/1 124/68/1
f 125/69/1 126/70/1 127/71/1 128/72/1
f 129/73/1 130/74/1 131/75/1 132/76/1
f 133/77/1 134/78/1 135/79/1 136/80/1
f 137/41/1 138/42/1 139/43/1 140/44/1
f 141/45/1 142/46/1 143/47/1 144/48/1
f 145/49/1 146/50/1 147/51/1 148/52/1
f 149/53/1 150/54/1 151/55/1 152/56/1
f 153/57/1 154/58/1 155/59/1 156/60/1
f 157/61/1 158/62/1 159/63/1 160/64/1
f 161/65/1 162/66/1 163/67/1 164/68/1
f 165/69/1 166/70/1 167/71/1 168/72/1
f 169/73/1 170/74/1 171/75/1 172/76/1
f 173/77/1 174/78/1 175/79/1 176/80/1
f 177/81/1 178/82/1 179/83/1 180/84/1
f 181/85/1 182/86/1 183/87/1 184/88/1
f 185/89/1 186/90/1 187/91/1 188/92/1
f 189/93/1 190/94/1 191/95/1 192/96/1
f 193/97/1 194/98/1 195/99/1 196/100/1
f 197/101/1 198/102/1 199/103/1 200/104/1
f 201/105/1 202/106/1 203/107/1 204/108/1
f 205/109/1 206/110/1 207/111/1 208/112/1
f 209/113/1 210/114/1 211/115/1 212/116/1
f 213/117/1 214/118/1 215/119/1 216/120/1
f 217/81/1 218/82/1 219/83/1 220/84/1
f 221/85/1 222/86/1 223/87/1 224/88/1
f 225/89/1 226/90/1 227/91/1 228/92/1
f 229/93/1 230/94/1 231/95/1 232/96/1
f 233/97/1 234/98/1 235/99/1 236/100/1
f 237/101/1 238/102/1 239/103/1 240/104/1
f 241/105/1 242/106/1 243/107/1 244/108/1
f 245/109/1 246/110/1 247/111/1 248/112/1
f 249/113/1 250/114/1 251/115/1 252/116/1
f 253/117/1 254/118/1 255/119/1 256/120/1
f 257/121/1 258/122/1 259/123/1 260/124/1
f 261/125/1 262/126/1 263/127/1 264/128/1
f 265/129/1 266/130/1 267/131/1 268/132/1
f 269/133/1 270/134/1 271/135/1 272/136/1
f 273/137/1 274/138/1 275/139/1 276/140/1
f 277/141/1 278/142/1 279/143/1 280/144/1
f 281/145/1 282/146/1 283/147/1 284/148/1
f 285/149/1 286/150/1 287/151/1 288/152/1
f 289/153/1 290/154/1 291/155/1 292/156/1
f 293/157/1 294/158/1 295/159/1 296/160/1
f 297/121/1 298/122/1 299/123/1 300/124/1
f 301/125/1 302/126/1 303/127/1 304/128/1
f 305/129/1 306/130/1 307/131/1 308/132/1
f 309/133/1 310/134/1 311/135/1 312/136/1
f 313/137/1 314/138/1 315/139/1 316/140/1
f 317/141/1 318/142/1 319/143/1 320/144/1
f 321/145/1 322/146/1 323/147/1 324/148/1
f 325/149/1 326/150/1 327/151/1 328/152/1
f 329/153/1 330/154/1 331/155/1 332/156/1
f 333/157/1 334/158/1 335/159/1 336/160/1
f 337/161/1 338/162/1 339/163/1 340/164/1
f 341/165/1 342/166/1 343/167/1 344/168/1
f 345/169/1 346/170/1 347/171/1 348/172/1
f 349/173/1 350/174/1 351/175/1 352/176/1
f 353/177/1 354/178/1 355/179/1 356/180/1
f 357/181/1 358/182/1 359/183/1 360/184/1
f 361/185/1 362/186/1 363/187/1 364/188/1
f 365/189/1 366/190/1 367/191/1 368/192/1
f 369/193/1 370/194/1 371/195/1 372/196/1
f 373/197/1 374/198/1 375/199/1 376/200/1
f 377/161/1 378/162/1 379/163/1 380/164/1
f 381/165/1 382/166/1 383/167/1 384/168/1
f 385/169/1 386/170/1 387/171/1 388/172/1
f 389/173/1 390/174/1 391/175/1 392/176/1
f 393/177/1 394/178/1 395/179/1 396/180/1
f 397/181/1 398/182/1 399/183/1 400/184/1
f 401/185/1 402/186/1 403/187/1 404/188/1
f 405/189/1 406/190/1 407/191/1 408/192/1
f 409/193/1 410/194/1 411/195/1 412/196/1
f 413/197/1 414/198/1 415/199/1 416/200/1
f 417/201/1 418/202/1 419/203/1 420/204/1
f 421/205/1 422/206/1 423/207/1 424/208/1
f 425/209/1 426/210/1 427/211/1 428/212/1
f 429/213/1 430/214/1 431/215/1 432/216/1
f 433/217/1 434/218/1 435/219/1 436/220/1
f 437/221/1 438/222/1 439/223/1 440/224/1
f 441/225/1 442/226/1 443/227/1 444/228/1
f 445/229/1 446/230/1 447/231/1 448/232/1
f 449/233/1 450/234/1 451/235/1 452/236/1
f 453/237/1 454/238/1 455/239/1 456/240/1
f 457/201/1 458/202/1 459/203/1 460/204/1
f 461/205/1 462/206/1 463/207/1 464/208/1
f 465/209/1 466/210/1 467/211/1 468/212/1
f 469/213/1 470/214/1 471/215/1 472/216/1
f 473/217/1 474/218/1 475/219/1 476/220/1
f 477/221/1 478/222/1 479/223/1 480/224/1
f 481/225/1 482/226/1 483/227/1 484/228/1
f 485/229/1 486/230/1 487/231/1 488/232/1
f 489/233/1 490/234/1 491/235/1 492/236/1
f 493/237/1 494/238/1 495/239/1 496/240/1
f 497/241/1 498/242/1 499/243/1 500/244/1
f 501/245/1 502/246/1 503/247/1 504/248/1
f 505/249/1 506/250/1 507/251/1 508/252/1
f 509/253/1 510/254/1 511/255/1 512/256/1
f 513/257/1 514/258/1 515/259/1 516/260/1
f 517/261/1 518/262/1 519/263/1 520/264/1
f 521/265/1 522/266/1 523/267/1 524/268/1
f 525/269/1 526/270/1 527/271/1 528/272/1
f 529/273/1 530/274/1 531/275/1 532/276/1
f 533/277/1 534/278/1 535/279/1 536/280/1
f 537/241/1 538/242/1 539/243/1 540/244/1
f 541/245/1 542/246/1 543/247/1 544/248/1
f 545/249/1 546/250/1 547/251/1 548/252/1
f 549/253/1 550/254/1 551/255/1 552/256/1
f 553/257/1 554/258/1 555/259/1 556/260/1
f 557/261/1 558/262/1 559/263/1 560/264/1
f 561/265/1 562/266/1 563/267/1 564/268/1
f 565/269/1 566/270/1 567/271/1 568/272/1
f 569/273/1 570/274/1 571/275/1 572/276/1
f 573/277/1 574/278/1 575/279/1 576/280/1

