# Tiled2Unity generated file. Do not modify by hand.
# Wavefront file for 'map_mesh_0017.obj'

# Vertices (Count = 480)
v 0 -46.4 0
v -0.5333334 -46.4 0
v -0.5333334 -45.86667 0
v 0 -45.86667 0
v -0.5333334 -46.4 0
v -1.066667 -46.4 0
v -1.066667 -45.86667 0
v -0.5333334 -45.86667 0
v -1.066667 -46.4 0
v -1.6 -46.4 0
v -1.6 -45.86667 0
v -1.066667 -45.86667 0
v -1.6 -46.4 0
v -2.133333 -46.4 0
v -2.133333 -45.86667 0
v -1.6 -45.86667 0
v -2.133333 -46.4 0
v -2.666667 -46.4 0
v -2.666667 -45.86667 0
v -2.133333 -45.86667 0
v -2.666667 -46.4 0
v -3.2 -46.4 0
v -3.2 -45.86667 0
v -2.666667 -45.86667 0
v -3.2 -46.4 0
v -3.733334 -46.4 0
v -3.733334 -45.86667 0
v -3.2 -45.86667 0
v -3.733334 -46.4 0
v -4.266667 -46.4 0
v -4.266667 -45.86667 0
v -3.733334 -45.86667 0
v -4.266667 -46.4 0
v -4.8 -46.4 0
v -4.8 -45.86667 0
v -4.266667 -45.86667 0
v -4.8 -46.4 0
v -5.333333 -46.4 0
v -5.333333 -45.86667 0
v -4.8 -45.86667 0
v -5.333333 -46.4 0
v -5.866667 -46.4 0
v -5.866667 -45.86667 0
v -5.333333 -45.86667 0
v -5.866667 -46.4 0
v -6.400001 -46.4 0
v -6.400001 -45.86667 0
v -5.866667 -45.86667 0
v -6.400001 -46.4 0
v -6.933334 -46.4 0
v -6.933334 -45.86667 0
v -6.400001 -45.86667 0
v -6.933334 -46.4 0
v -7.466667 -46.4 0
v -7.466667 -45.86667 0
v -6.933334 -45.86667 0
v -7.466667 -46.4 0
v -8 -46.4 0
v -8 -45.86667 0
v -7.466667 -45.86667 0
v -8 -46.4 0
v -8.533334 -46.4 0
v -8.533334 -45.86667 0
v -8 -45.86667 0
v -8.533334 -46.4 0
v -9.066668 -46.4 0
v -9.066668 -45.86667 0
v -8.533334 -45.86667 0
v -9.066668 -46.4 0
v -9.6 -46.4 0
v -9.6 -45.86667 0
v -9.066668 -45.86667 0
v -9.6 -46.4 0
v -10.13333 -46.4 0
v -10.13333 -45.86667 0
v -9.6 -45.86667 0
v -10.13333 -46.4 0
v -10.66667 -46.4 0
v -10.66667 -45.86667 0
v -10.13333 -45.86667 0
v -10.66667 -46.4 0
v -11.2 -46.4 0
v -11.2 -45.86667 0
v -10.66667 -45.86667 0
v -11.2 -46.4 0
v -11.73333 -46.4 0
v -11.73333 -45.86667 0
v -11.2 -45.86667 0
v -11.73333 -46.4 0
v -12.26667 -46.4 0
v -12.26667 -45.86667 0
v -11.73333 -45.86667 0
v -12.26667 -46.4 0
v -12.8 -46.4 0
v -12.8 -45.86667 0
v -12.26667 -45.86667 0
v -12.8 -46.4 0
v -13.33333 -46.4 0
v -13.33333 -45.86667 0
v -12.8 -45.86667 0
v -13.33333 -46.4 0
v -13.86667 -46.4 0
v -13.86667 -45.86667 0
v -13.33333 -45.86667 0
v -13.86667 -46.4 0
v -14.4 -46.4 0
v -14.4 -45.86667 0
v -13.86667 -45.86667 0
v -14.4 -46.4 0
v -14.93333 -46.4 0
v -14.93333 -45.86667 0
v -14.4 -45.86667 0
v -14.93333 -46.4 0
v -15.46667 -46.4 0
v -15.46667 -45.86667 0
v -14.93333 -45.86667 0
v -15.46667 -46.4 0
v -16 -46.4 0
v -16 -45.86667 0
v -15.46667 -45.86667 0
v -16 -46.4 0
v -16.53333 -46.4 0
v -16.53333 -45.86667 0
v -16 -45.86667 0
v -16.53333 -46.4 0
v -17.06667 -46.4 0
v -17.06667 -45.86667 0
v -16.53333 -45.86667 0
v -17.06667 -46.4 0
v -17.6 -46.4 0
v -17.6 -45.86667 0
v -17.06667 -45.86667 0
v -17.6 -46.4 0
v -18.13334 -46.4 0
v -18.13334 -45.86667 0
v -17.6 -45.86667 0
v -18.13334 -46.4 0
v -18.66667 -46.4 0
v -18.66667 -45.86667 0
v -18.13334 -45.86667 0
v -18.66667 -46.4 0
v -19.2 -46.4 0
v -19.2 -45.86667 0
v -18.66667 -45.86667 0
v -19.2 -46.4 0
v -19.73333 -46.4 0
v -19.73333 -45.86667 0
v -19.2 -45.86667 0
v -19.73333 -46.4 0
v -20.26667 -46.4 0
v -20.26667 -45.86667 0
v -19.73333 -45.86667 0
v -20.26667 -46.4 0
v -20.8 -46.4 0
v -20.8 -45.86667 0
v -20.26667 -45.86667 0
v -20.8 -46.4 0
v -21.33333 -46.4 0
v -21.33333 -45.86667 0
v -20.8 -45.86667 0
v -21.33333 -46.4 0
v -21.86667 -46.4 0
v -21.86667 -45.86667 0
v -21.33333 -45.86667 0
v -21.86667 -46.4 0
v -22.4 -46.4 0
v -22.4 -45.86667 0
v -21.86667 -45.86667 0
v -22.4 -46.4 0
v -22.93333 -46.4 0
v -22.93333 -45.86667 0
v -22.4 -45.86667 0
v -22.93333 -46.4 0
v -23.46667 -46.4 0
v -23.46667 -45.86667 0
v -22.93333 -45.86667 0
v -23.46667 -46.4 0
v -24 -46.4 0
v -24 -45.86667 0
v -23.46667 -45.86667 0
v -24 -46.4 0
v -24.53333 -46.4 0
v -24.53333 -45.86667 0
v -24 -45.86667 0
v -24.53333 -46.4 0
v -25.06667 -46.4 0
v -25.06667 -45.86667 0
v -24.53333 -45.86667 0
v -25.06667 -46.4 0
v -25.6 -46.4 0
v -25.6 -45.86667 0
v -25.06667 -45.86667 0
v -25.6 -46.4 0
v -26.13334 -46.4 0
v -26.13334 -45.86667 0
v -25.6 -45.86667 0
v -26.13334 -46.4 0
v -26.66667 -46.4 0
v -26.66667 -45.86667 0
v -26.13334 -45.86667 0
v -26.66667 -46.4 0
v -27.2 -46.4 0
v -27.2 -45.86667 0
v -26.66667 -45.86667 0
v -27.2 -46.4 0
v -27.73334 -46.4 0
v -27.73334 -45.86667 0
v -27.2 -45.86667 0
v -27.73334 -46.4 0
v -28.26667 -46.4 0
v -28.26667 -45.86667 0
v -27.73334 -45.86667 0
v -28.26667 -46.4 0
v -28.8 -46.4 0
v -28.8 -45.86667 0
v -28.26667 -45.86667 0
v -28.8 -46.4 0
v -29.33333 -46.4 0
v -29.33333 -45.86667 0
v -28.8 -45.86667 0
v -29.33333 -46.4 0
v -29.86667 -46.4 0
v -29.86667 -45.86667 0
v -29.33333 -45.86667 0
v -29.86667 -46.4 0
v -30.4 -46.4 0
v -30.4 -45.86667 0
v -29.86667 -45.86667 0
v -30.4 -46.4 0
v -30.93333 -46.4 0
v -30.93333 -45.86667 0
v -30.4 -45.86667 0
v -30.93333 -46.4 0
v -31.46667 -46.4 0
v -31.46667 -45.86667 0
v -30.93333 -45.86667 0
v -31.46667 -46.4 0
v -32 -46.4 0
v -32 -45.86667 0
v -31.46667 -45.86667 0
v -32 -46.4 0
v -32.53334 -46.4 0
v -32.53334 -45.86667 0
v -32 -45.86667 0
v -32.53334 -46.4 0
v -33.06667 -46.4 0
v -33.06667 -45.86667 0
v -32.53334 -45.86667 0
v -33.06667 -46.4 0
v -33.6 -46.4 0
v -33.6 -45.86667 0
v -33.06667 -45.86667 0
v -33.6 -46.4 0
v -34.13334 -46.4 0
v -34.13334 -45.86667 0
v -33.6 -45.86667 0
v -34.13334 -46.4 0
v -34.66667 -46.4 0
v -34.66667 -45.86667 0
v -34.13334 -45.86667 0
v -34.66667 -46.4 0
v -35.2 -46.4 0
v -35.2 -45.86667 0
v -34.66667 -45.86667 0
v -35.2 -46.4 0
v -35.73333 -46.4 0
v -35.73333 -45.86667 0
v -35.2 -45.86667 0
v -35.73333 -46.4 0
v -36.26667 -46.4 0
v -36.26667 -45.86667 0
v -35.73333 -45.86667 0
v -36.26667 -46.4 0
v -36.8 -46.4 0
v -36.8 -45.86667 0
v -36.26667 -45.86667 0
v -36.8 -46.4 0
v -37.33334 -46.4 0
v -37.33334 -45.86667 0
v -36.8 -45.86667 0
v -37.33334 -46.4 0
v -37.86667 -46.4 0
v -37.86667 -45.86667 0
v -37.33334 -45.86667 0
v -37.86667 -46.4 0
v -38.4 -46.4 0
v -38.4 -45.86667 0
v -37.86667 -45.86667 0
v -38.4 -46.4 0
v -38.93333 -46.4 0
v -38.93333 -45.86667 0
v -38.4 -45.86667 0
v -38.93333 -46.4 0
v -39.46667 -46.4 0
v -39.46667 -45.86667 0
v -38.93333 -45.86667 0
v -39.46667 -46.4 0
v -40 -46.4 0
v -40 -45.86667 0
v -39.46667 -45.86667 0
v -40 -46.4 0
v -40.53334 -46.4 0
v -40.53334 -45.86667 0
v -40 -45.86667 0
v -40.53334 -46.4 0
v -41.06667 -46.4 0
v -41.06667 -45.86667 0
v -40.53334 -45.86667 0
v -41.06667 -46.4 0
v -41.6 -46.4 0
v -41.6 -45.86667 0
v -41.06667 -45.86667 0
v -41.6 -46.4 0
v -42.13334 -46.4 0
v -42.13334 -45.86667 0
v -41.6 -45.86667 0
v -42.13334 -46.4 0
v -42.66667 -46.4 0
v -42.66667 -45.86667 0
v -42.13334 -45.86667 0
v -42.66667 -46.4 0
v -43.2 -46.4 0
v -43.2 -45.86667 0
v -42.66667 -45.86667 0
v -43.2 -46.4 0
v -43.73334 -46.4 0
v -43.73334 -45.86667 0
v -43.2 -45.86667 0
v -43.73334 -46.4 0
v -44.26667 -46.4 0
v -44.26667 -45.86667 0
v -43.73334 -45.86667 0
v -44.26667 -46.4 0
v -44.8 -46.4 0
v -44.8 -45.86667 0
v -44.26667 -45.86667 0
v -44.8 -46.4 0
v -45.33334 -46.4 0
v -45.33334 -45.86667 0
v -44.8 -45.86667 0
v -45.33334 -46.4 0
v -45.86667 -46.4 0
v -45.86667 -45.86667 0
v -45.33334 -45.86667 0
v -45.86667 -46.4 0
v -46.4 -46.4 0
v -46.4 -45.86667 0
v -45.86667 -45.86667 0
v -46.4 -46.4 0
v -46.93333 -46.4 0
v -46.93333 -45.86667 0
v -46.4 -45.86667 0
v -46.93333 -46.4 0
v -47.46667 -46.4 0
v -47.46667 -45.86667 0
v -46.93333 -45.86667 0
v -47.46667 -46.4 0
v -48 -46.4 0
v -48 -45.86667 0
v -47.46667 -45.86667 0
v -48 -46.4 0
v -48.53334 -46.4 0
v -48.53334 -45.86667 0
v -48 -45.86667 0
v -48.53334 -46.4 0
v -49.06667 -46.4 0
v -49.06667 -45.86667 0
v -48.53334 -45.86667 0
v -49.06667 -46.4 0
v -49.6 -46.4 0
v -49.6 -45.86667 0
v -49.06667 -45.86667 0
v -49.6 -46.4 0
v -50.13334 -46.4 0
v -50.13334 -45.86667 0
v -49.6 -45.86667 0
v -50.13334 -46.4 0
v -50.66667 -46.4 0
v -50.66667 -45.86667 0
v -50.13334 -45.86667 0
v -50.66667 -46.4 0
v -51.2 -46.4 0
v -51.2 -45.86667 0
v -50.66667 -45.86667 0
v -51.2 -46.4 0
v -51.73334 -46.4 0
v -51.73334 -45.86667 0
v -51.2 -45.86667 0
v -51.73334 -46.4 0
v -52.26667 -46.4 0
v -52.26667 -45.86667 0
v -51.73334 -45.86667 0
v -52.26667 -46.4 0
v -52.8 -46.4 0
v -52.8 -45.86667 0
v -52.26667 -45.86667 0
v -52.8 -46.4 0
v -53.33334 -46.4 0
v -53.33334 -45.86667 0
v -52.8 -45.86667 0
v -53.33334 -46.4 0
v -53.86667 -46.4 0
v -53.86667 -45.86667 0
v -53.33334 -45.86667 0
v -53.86667 -46.4 0
v -54.4 -46.4 0
v -54.4 -45.86667 0
v -53.86667 -45.86667 0
v -54.4 -46.4 0
v -54.93333 -46.4 0
v -54.93333 -45.86667 0
v -54.4 -45.86667 0
v -54.93333 -46.4 0
v -55.46667 -46.4 0
v -55.46667 -45.86667 0
v -54.93333 -45.86667 0
v -55.46667 -46.4 0
v -56 -46.4 0
v -56 -45.86667 0
v -55.46667 -45.86667 0
v -56 -46.4 0
v -56.53334 -46.4 0
v -56.53334 -45.86667 0
v -56 -45.86667 0
v -56.53334 -46.4 0
v -57.06667 -46.4 0
v -57.06667 -45.86667 0
v -56.53334 -45.86667 0
v -57.06667 -46.4 0
v -57.6 -46.4 0
v -57.6 -45.86667 0
v -57.06667 -45.86667 0
v -57.6 -46.4 0
v -58.13334 -46.4 0
v -58.13334 -45.86667 0
v -57.6 -45.86667 0
v -58.13334 -46.4 0
v -58.66667 -46.4 0
v -58.66667 -45.86667 0
v -58.13334 -45.86667 0
v -58.66667 -46.4 0
v -59.2 -46.4 0
v -59.2 -45.86667 0
v -58.66667 -45.86667 0
v -59.2 -46.4 0
v -59.73334 -46.4 0
v -59.73334 -45.86667 0
v -59.2 -45.86667 0
v -59.73334 -46.4 0
v -60.26667 -46.4 0
v -60.26667 -45.86667 0
v -59.73334 -45.86667 0
v -60.26667 -46.4 0
v -60.8 -46.4 0
v -60.8 -45.86667 0
v -60.26667 -45.86667 0
v -60.8 -46.4 0
v -61.33334 -46.4 0
v -61.33334 -45.86667 0
v -60.8 -45.86667 0
v -61.33334 -46.4 0
v -61.86667 -46.4 0
v -61.86667 -45.86667 0
v -61.33334 -45.86667 0
v -61.86667 -46.4 0
v -62.4 -46.4 0
v -62.4 -45.86667 0
v -61.86667 -45.86667 0
v -62.4 -46.4 0
v -62.93334 -46.4 0
v -62.93334 -45.86667 0
v -62.4 -45.86667 0
v -62.93334 -46.4 0
v -63.46667 -46.4 0
v -63.46667 -45.86667 0
v -62.93334 -45.86667 0
v -63.46667 -46.4 0
v -64 -46.4 0
v -64 -45.86667 0
v -63.46667 -45.86667 0

# Texture cooridinates (Count = 8)
vt 0.04985337 0.7697675
vt 0.09677419 0.7697675
vt 0.09677419 0.8441861
vt 0.04985337 0.8441861
vt 0.09824047 0.7697675
vt 0.1451613 0.7697675
vt 0.1451613 0.8441861
vt 0.09824047 0.8441861

# Normal
vn 0 0 -1

# Mesh description
g map_mesh_0017

# Faces
f 1/1/1 2/2/1 3/3/1 4/4/1
f 5/1/1 6/2/1 7/3/1 8/4/1
f 9/1/1 10/2/1 11/3/1 12/4/1
f 13/1/1 14/2/1 15/3/1 16/4/1
f 17/1/1 18/2/1 19/3/1 20/4/1
f 21/1/1 22/2/1 23/3/1 24/4/1
f 25/1/1 26/2/1 27/3/1 28/4/1
f 29/1/1 30/2/1 31/3/1 32/4/1
f 33/1/1 34/2/1 35/3/1 36/4/1
f 37/1/1 38/2/1 39/3/1 40/4/1
f 41/1/1 42/2/1 43/3/1 44/4/1
f 45/1/1 46/2/1 47/3/1 48/4/1
f 49/1/1 50/2/1 51/3/1 52/4/1
f 53/1/1 54/2/1 55/3/1 56/4/1
f 57/1/1 58/2/1 59/3/1 60/4/1
f 61/1/1 62/2/1 63/3/1 64/4/1
f 65/1/1 66/2/1 67/3/1 68/4/1
f 69/1/1 70/2/1 71/3/1 72/4/1
f 73/1/1 74/2/1 75/3/1 76/4/1
f 77/1/1 78/2/1 79/3/1 80/4/1
f 81/1/1 82/2/1 83/3/1 84/4/1
f 85/1/1 86/2/1 87/3/1 88/4/1
f 89/1/1 90/2/1 91/3/1 92/4/1
f 93/1/1 94/2/1 95/3/1 96/4/1
f 97/1/1 98/2/1 99/3/1 100/4/1
f 101/1/1 102/2/1 103/3/1 104/4/1
f 105/5/1 106/6/1 107/7/1 108/8/1
f 109/1/1 110/2/1 111/3/1 112/4/1
f 113/5/1 114/6/1 115/7/1 116/8/1
f 117/5/1 118/6/1 119/7/1 120/8/1
f 121/5/1 122/6/1 123/7/1 124/8/1
f 125/5/1 126/6/1 127/7/1 128/8/1
f 129/5/1 130/6/1 131/7/1 132/8/1
f 133/5/1 134/6/1 135/7/1 136/8/1
f 137/5/1 138/6/1 139/7/1 140/8/1
f 141/5/1 142/6/1 143/7/1 144/8/1
f 145/5/1 146/6/1 147/7/1 148/8/1
f 149/5/1 150/6/1 151/7/1 152/8/1
f 153/5/1 154/6/1 155/7/1 156/8/1
f 157/5/1 158/6/1 159/7/1 160/8/1
f 161/5/1 162/6/1 163/7/1 164/8/1
f 165/5/1 166/6/1 167/7/1 168/8/1
f 169/5/1 170/6/1 171/7/1 172/8/1
f 173/5/1 174/6/1 175/7/1 176/8/1
f 177/5/1 178/6/1 179/7/1 180/8/1
f 181/5/1 182/6/1 183/7/1 184/8/1
f 185/5/1 186/6/1 187/7/1 188/8/1
f 189/5/1 190/6/1 191/7/1 192/8/1
f 193/5/1 194/6/1 195/7/1 196/8/1
f 197/5/1 198/6/1 199/7/1 200/8/1
f 201/5/1 202/6/1 203/7/1 204/8/1
f 205/1/1 206/2/1 207/3/1 208/4/1
f 209/5/1 210/6/1 211/7/1 212/8/1
f 213/1/1 214/2/1 215/3/1 216/4/1
f 217/5/1 218/6/1 219/7/1 220/8/1
f 221/1/1 222/2/1 223/3/1 224/4/1
f 225/1/1 226/2/1 227/3/1 228/4/1
f 229/1/1 230/2/1 231/3/1 232/4/1
f 233/1/1 234/2/1 235/3/1 236/4/1
f 237/1/1 238/2/1 239/3/1 240/4/1
f 241/1/1 242/2/1 243/3/1 244/4/1
f 245/1/1 246/2/1 247/3/1 248/4/1
f 249/1/1 250/2/1 251/3/1 252/4/1
f 253/1/1 254/2/1 255/3/1 256/4/1
f 257/1/1 258/2/1 259/3/1 260/4/1
f 261/1/1 262/2/1 263/3/1 264/4/1
f 265/1/1 266/2/1 267/3/1 268/4/1
f 269/1/1 270/2/1 271/3/1 272/4/1
f 273/1/1 274/2/1 275/3/1 276/4/1
f 277/1/1 278/2/1 279/3/1 280/4/1
f 281/1/1 282/2/1 283/3/1 284/4/1
f 285/1/1 286/2/1 287/3/1 288/4/1
f 289/1/1 290/2/1 291/3/1 292/4/1
f 293/1/1 294/2/1 295/3/1 296/4/1
f 297/1/1 298/2/1 299/3/1 300/4/1
f 301/1/1 302/2/1 303/3/1 304/4/1
f 305/1/1 306/2/1 307/3/1 308/4/1
f 309/1/1 310/2/1 311/3/1 312/4/1
f 313/1/1 314/2/1 315/3/1 316/4/1
f 317/1/1 318/2/1 319/3/1 320/4/1
f 321/1/1 322/2/1 323/3/1 324/4/1
f 325/1/1 326/2/1 327/3/1 328/4/1
f 329/1/1 330/2/1 331/3/1 332/4/1
f 333/1/1 334/2/1 335/3/1 336/4/1
f 337/1/1 338/2/1 339/3/1 340/4/1
f 341/1/1 342/2/1 343/3/1 344/4/1
f 345/1/1 346/2/1 347/3/1 348/4/1
f 349/1/1 350/2/1 351/3/1 352/4/1
f 353/1/1 354/2/1 355/3/1 356/4/1
f 357/1/1 358/2/1 359/3/1 360/4/1
f 361/1/1 362/2/1 363/3/1 364/4/1
f 365/1/1 366/2/1 367/3/1 368/4/1
f 369/1/1 370/2/1 371/3/1 372/4/1
f 373/1/1 374/2/1 375/3/1 376/4/1
f 377/1/1 378/2/1 379/3/1 380/4/1
f 381/1/1 382/2/1 383/3/1 384/4/1
f 385/1/1 386/2/1 387/3/1 388/4/1
f 389/1/1 390/2/1 391/3/1 392/4/1
f 393/1/1 394/2/1 395/3/1 396/4/1
f 397/1/1 398/2/1 399/3/1 400/4/1
f 401/1/1 402/2/1 403/3/1 404/4/1
f 405/1/1 406/2/1 407/3/1 408/4/1
f 409/1/1 410/2/1 411/3/1 412/4/1
f 413/1/1 414/2/1 415/3/1 416/4/1
f 417/5/1 418/6/1 419/7/1 420/8/1
f 421/5/1 422/6/1 423/7/1 424/8/1
f 425/5/1 426/6/1 427/7/1 428/8/1
f 429/5/1 430/6/1 431/7/1 432/8/1
f 433/5/1 434/6/1 435/7/1 436/8/1
f 437/5/1 438/6/1 439/7/1 440/8/1
f 441/5/1 442/6/1 443/7/1 444/8/1
f 445/5/1 446/6/1 447/7/1 448/8/1
f 449/5/1 450/6/1 451/7/1 452/8/1
f 453/5/1 454/6/1 455/7/1 456/8/1
f 457/5/1 458/6/1 459/7/1 460/8/1
f 461/5/1 462/6/1 463/7/1 464/8/1
f 465/5/1 466/6/1 467/7/1 468/8/1
f 469/5/1 470/6/1 471/7/1 472/8/1
f 473/5/1 474/6/1 475/7/1 476/8/1
f 477/5/1 478/6/1 479/7/1 480/8/1

