# Tiled2Unity generated file. Do not modify by hand.
# Wavefront file for 'map_mesh_0026.obj'

# Vertices (Count = 504)
v -40.53334 -1.6 0
v -41.06667 -1.6 0
v -41.06667 -1.066667 0
v -40.53334 -1.066667 0
v -41.06667 -1.6 0
v -41.6 -1.6 0
v -41.6 -1.066667 0
v -41.06667 -1.066667 0
v -41.6 -1.6 0
v -42.13334 -1.6 0
v -42.13334 -1.066667 0
v -41.6 -1.066667 0
v -40.53334 -2.133333 0
v -41.06667 -2.133333 0
v -41.06667 -1.6 0
v -40.53334 -1.6 0
v -41.06667 -2.133333 0
v -41.6 -2.133333 0
v -41.6 -1.6 0
v -41.06667 -1.6 0
v -41.6 -2.133333 0
v -42.13334 -2.133333 0
v -42.13334 -1.6 0
v -41.6 -1.6 0
v -40.53334 -2.666667 0
v -41.06667 -2.666667 0
v -41.06667 -2.133333 0
v -40.53334 -2.133333 0
v -41.06667 -2.666667 0
v -41.6 -2.666667 0
v -41.6 -2.133333 0
v -41.06667 -2.133333 0
v -41.6 -2.666667 0
v -42.13334 -2.666667 0
v -42.13334 -2.133333 0
v -41.6 -2.133333 0
v -8 -4.266667 0
v -8.533334 -4.266667 0
v -8.533334 -3.733334 0
v -8 -3.733334 0
v -8.533334 -4.266667 0
v -9.066668 -4.266667 0
v -9.066668 -3.733334 0
v -8.533334 -3.733334 0
v -9.066668 -4.266667 0
v -9.6 -4.266667 0
v -9.6 -3.733334 0
v -9.066668 -3.733334 0
v -8 -4.8 0
v -8.533334 -4.8 0
v -8.533334 -4.266667 0
v -8 -4.266667 0
v -8.533334 -4.8 0
v -9.066668 -4.8 0
v -9.066668 -4.266667 0
v -8.533334 -4.266667 0
v -9.066668 -4.8 0
v -9.6 -4.8 0
v -9.6 -4.266667 0
v -9.066668 -4.266667 0
v -8 -5.333333 0
v -8.533334 -5.333333 0
v -8.533334 -4.8 0
v -8 -4.8 0
v -8.533334 -5.333333 0
v -9.066668 -5.333333 0
v -9.066668 -4.8 0
v -8.533334 -4.8 0
v -9.066668 -5.333333 0
v -9.6 -5.333333 0
v -9.6 -4.8 0
v -9.066668 -4.8 0
v -40 -6.933334 0
v -40.53334 -6.933334 0
v -40.53334 -6.400001 0
v -40 -6.400001 0
v -40.53334 -6.933334 0
v -41.06667 -6.933334 0
v -41.06667 -6.400001 0
v -40.53334 -6.400001 0
v -41.06667 -6.933334 0
v -41.6 -6.933334 0
v -41.6 -6.400001 0
v -41.06667 -6.400001 0
v -40 -7.466667 0
v -40.53334 -7.466667 0
v -40.53334 -6.933334 0
v -40 -6.933334 0
v -40.53334 -7.466667 0
v -41.06667 -7.466667 0
v -41.06667 -6.933334 0
v -40.53334 -6.933334 0
v -41.06667 -7.466667 0
v -41.6 -7.466667 0
v -41.6 -6.933334 0
v -41.06667 -6.933334 0
v -40 -8 0
v -40.53334 -8 0
v -40.53334 -7.466667 0
v -40 -7.466667 0
v -40.53334 -8 0
v -41.06667 -8 0
v -41.06667 -7.466667 0
v -40.53334 -7.466667 0
v -41.06667 -8 0
v -41.6 -8 0
v -41.6 -7.466667 0
v -41.06667 -7.466667 0
v -4.8 -9.066668 0
v -5.333333 -9.066668 0
v -5.333333 -8.533334 0
v -4.8 -8.533334 0
v -5.333333 -9.066668 0
v -5.866667 -9.066668 0
v -5.866667 -8.533334 0
v -5.333333 -8.533334 0
v -5.866667 -9.066668 0
v -6.400001 -9.066668 0
v -6.400001 -8.533334 0
v -5.866667 -8.533334 0
v -4.8 -9.6 0
v -5.333333 -9.6 0
v -5.333333 -9.066668 0
v -4.8 -9.066668 0
v -5.333333 -9.6 0
v -5.866667 -9.6 0
v -5.866667 -9.066668 0
v -5.333333 -9.066668 0
v -5.866667 -9.6 0
v -6.400001 -9.6 0
v -6.400001 -9.066668 0
v -5.866667 -9.066668 0
v -4.8 -10.13333 0
v -5.333333 -10.13333 0
v -5.333333 -9.6 0
v -4.8 -9.6 0
v -5.333333 -10.13333 0
v -5.866667 -10.13333 0
v -5.866667 -9.6 0
v -5.333333 -9.6 0
v -5.866667 -10.13333 0
v -6.400001 -10.13333 0
v -6.400001 -9.6 0
v -5.866667 -9.6 0
v -0.5333334 -12.26667 0
v -1.066667 -12.26667 0
v -1.066667 -11.73333 0
v -0.5333334 -11.73333 0
v -1.066667 -12.26667 0
v -1.6 -12.26667 0
v -1.6 -11.73333 0
v -1.066667 -11.73333 0
v -1.6 -12.26667 0
v -2.133333 -12.26667 0
v -2.133333 -11.73333 0
v -1.6 -11.73333 0
v -7.466667 -12.26667 0
v -8 -12.26667 0
v -8 -11.73333 0
v -7.466667 -11.73333 0
v -8 -12.26667 0
v -8.533334 -12.26667 0
v -8.533334 -11.73333 0
v -8 -11.73333 0
v -8.533334 -12.26667 0
v -9.066668 -12.26667 0
v -9.066668 -11.73333 0
v -8.533334 -11.73333 0
v -14.4 -12.26667 0
v -14.93333 -12.26667 0
v -14.93333 -11.73333 0
v -14.4 -11.73333 0
v -14.93333 -12.26667 0
v -15.46667 -12.26667 0
v -15.46667 -11.73333 0
v -14.93333 -11.73333 0
v -15.46667 -12.26667 0
v -16 -12.26667 0
v -16 -11.73333 0
v -15.46667 -11.73333 0
v -20.8 -12.26667 0
v -21.33333 -12.26667 0
v -21.33333 -11.73333 0
v -20.8 -11.73333 0
v -21.33333 -12.26667 0
v -21.86667 -12.26667 0
v -21.86667 -11.73333 0
v -21.33333 -11.73333 0
v -21.86667 -12.26667 0
v -22.4 -12.26667 0
v -22.4 -11.73333 0
v -21.86667 -11.73333 0
v -27.73334 -12.26667 0
v -28.26667 -12.26667 0
v -28.26667 -11.73333 0
v -27.73334 -11.73333 0
v -28.26667 -12.26667 0
v -28.8 -12.26667 0
v -28.8 -11.73333 0
v -28.26667 -11.73333 0
v -28.8 -12.26667 0
v -29.33333 -12.26667 0
v -29.33333 -11.73333 0
v -28.8 -11.73333 0
v -35.73333 -12.26667 0
v -36.26667 -12.26667 0
v -36.26667 -11.73333 0
v -35.73333 -11.73333 0
v -36.26667 -12.26667 0
v -36.8 -12.26667 0
v -36.8 -11.73333 0
v -36.26667 -11.73333 0
v -36.8 -12.26667 0
v -37.33334 -12.26667 0
v -37.33334 -11.73333 0
v -36.8 -11.73333 0
v -0.5333334 -12.8 0
v -1.066667 -12.8 0
v -1.066667 -12.26667 0
v -0.5333334 -12.26667 0
v -1.066667 -12.8 0
v -1.6 -12.8 0
v -1.6 -12.26667 0
v -1.066667 -12.26667 0
v -1.6 -12.8 0
v -2.133333 -12.8 0
v -2.133333 -12.26667 0
v -1.6 -12.26667 0
v -7.466667 -12.8 0
v -8 -12.8 0
v -8 -12.26667 0
v -7.466667 -12.26667 0
v -8 -12.8 0
v -8.533334 -12.8 0
v -8.533334 -12.26667 0
v -8 -12.26667 0
v -8.533334 -12.8 0
v -9.066668 -12.8 0
v -9.066668 -12.26667 0
v -8.533334 -12.26667 0
v -14.4 -12.8 0
v -14.93333 -12.8 0
v -14.93333 -12.26667 0
v -14.4 -12.26667 0
v -14.93333 -12.8 0
v -15.46667 -12.8 0
v -15.46667 -12.26667 0
v -14.93333 -12.26667 0
v -15.46667 -12.8 0
v -16 -12.8 0
v -16 -12.26667 0
v -15.46667 -12.26667 0
v -20.8 -12.8 0
v -21.33333 -12.8 0
v -21.33333 -12.26667 0
v -20.8 -12.26667 0
v -21.33333 -12.8 0
v -21.86667 -12.8 0
v -21.86667 -12.26667 0
v -21.33333 -12.26667 0
v -21.86667 -12.8 0
v -22.4 -12.8 0
v -22.4 -12.26667 0
v -21.86667 -12.26667 0
v -27.73334 -12.8 0
v -28.26667 -12.8 0
v -28.26667 -12.26667 0
v -27.73334 -12.26667 0
v -28.26667 -12.8 0
v -28.8 -12.8 0
v -28.8 -12.26667 0
v -28.26667 -12.26667 0
v -28.8 -12.8 0
v -29.33333 -12.8 0
v -29.33333 -12.26667 0
v -28.8 -12.26667 0
v -35.73333 -12.8 0
v -36.26667 -12.8 0
v -36.26667 -12.26667 0
v -35.73333 -12.26667 0
v -36.26667 -12.8 0
v -36.8 -12.8 0
v -36.8 -12.26667 0
v -36.26667 -12.26667 0
v -36.8 -12.8 0
v -37.33334 -12.8 0
v -37.33334 -12.26667 0
v -36.8 -12.26667 0
v -0.5333334 -13.33333 0
v -1.066667 -13.33333 0
v -1.066667 -12.8 0
v -0.5333334 -12.8 0
v -1.066667 -13.33333 0
v -1.6 -13.33333 0
v -1.6 -12.8 0
v -1.066667 -12.8 0
v -1.6 -13.33333 0
v -2.133333 -13.33333 0
v -2.133333 -12.8 0
v -1.6 -12.8 0
v -7.466667 -13.33333 0
v -8 -13.33333 0
v -8 -12.8 0
v -7.466667 -12.8 0
v -8 -13.33333 0
v -8.533334 -13.33333 0
v -8.533334 -12.8 0
v -8 -12.8 0
v -8.533334 -13.33333 0
v -9.066668 -13.33333 0
v -9.066668 -12.8 0
v -8.533334 -12.8 0
v -14.4 -13.33333 0
v -14.93333 -13.33333 0
v -14.93333 -12.8 0
v -14.4 -12.8 0
v -14.93333 -13.33333 0
v -15.46667 -13.33333 0
v -15.46667 -12.8 0
v -14.93333 -12.8 0
v -15.46667 -13.33333 0
v -16 -13.33333 0
v -16 -12.8 0
v -15.46667 -12.8 0
v -20.8 -13.33333 0
v -21.33333 -13.33333 0
v -21.33333 -12.8 0
v -20.8 -12.8 0
v -21.33333 -13.33333 0
v -21.86667 -13.33333 0
v -21.86667 -12.8 0
v -21.33333 -12.8 0
v -21.86667 -13.33333 0
v -22.4 -13.33333 0
v -22.4 -12.8 0
v -21.86667 -12.8 0
v -27.73334 -13.33333 0
v -28.26667 -13.33333 0
v -28.26667 -12.8 0
v -27.73334 -12.8 0
v -28.26667 -13.33333 0
v -28.8 -13.33333 0
v -28.8 -12.8 0
v -28.26667 -12.8 0
v -28.8 -13.33333 0
v -29.33333 -13.33333 0
v -29.33333 -12.8 0
v -28.8 -12.8 0
v -35.73333 -13.33333 0
v -36.26667 -13.33333 0
v -36.26667 -12.8 0
v -35.73333 -12.8 0
v -36.26667 -13.33333 0
v -36.8 -13.33333 0
v -36.8 -12.8 0
v -36.26667 -12.8 0
v -36.8 -13.33333 0
v -37.33334 -13.33333 0
v -37.33334 -12.8 0
v -36.8 -12.8 0
v -40.53334 -14.93333 0
v -41.06667 -14.93333 0
v -41.06667 -14.4 0
v -40.53334 -14.4 0
v -41.06667 -14.93333 0
v -41.6 -14.93333 0
v -41.6 -14.4 0
v -41.06667 -14.4 0
v -41.6 -14.93333 0
v -42.13334 -14.93333 0
v -42.13334 -14.4 0
v -41.6 -14.4 0
v -40.53334 -15.46667 0
v -41.06667 -15.46667 0
v -41.06667 -14.93333 0
v -40.53334 -14.93333 0
v -41.06667 -15.46667 0
v -41.6 -15.46667 0
v -41.6 -14.93333 0
v -41.06667 -14.93333 0
v -41.6 -15.46667 0
v -42.13334 -15.46667 0
v -42.13334 -14.93333 0
v -41.6 -14.93333 0
v -40.53334 -16 0
v -41.06667 -16 0
v -41.06667 -15.46667 0
v -40.53334 -15.46667 0
v -41.06667 -16 0
v -41.6 -16 0
v -41.6 -15.46667 0
v -41.06667 -15.46667 0
v -41.6 -16 0
v -42.13334 -16 0
v -42.13334 -15.46667 0
v -41.6 -15.46667 0
v -41.6 -18.13334 0
v -42.13334 -18.13334 0
v -42.13334 -17.6 0
v -41.6 -17.6 0
v -42.13334 -18.13334 0
v -42.66667 -18.13334 0
v -42.66667 -17.6 0
v -42.13334 -17.6 0
v -42.66667 -18.13334 0
v -43.2 -18.13334 0
v -43.2 -17.6 0
v -42.66667 -17.6 0
v -41.6 -18.66667 0
v -42.13334 -18.66667 0
v -42.13334 -18.13334 0
v -41.6 -18.13334 0
v -42.13334 -18.66667 0
v -42.66667 -18.66667 0
v -42.66667 -18.13334 0
v -42.13334 -18.13334 0
v -42.66667 -18.66667 0
v -43.2 -18.66667 0
v -43.2 -18.13334 0
v -42.66667 -18.13334 0
v -41.6 -19.2 0
v -42.13334 -19.2 0
v -42.13334 -18.66667 0
v -41.6 -18.66667 0
v -42.13334 -19.2 0
v -42.66667 -19.2 0
v -42.66667 -18.66667 0
v -42.13334 -18.66667 0
v -42.66667 -19.2 0
v -43.2 -19.2 0
v -43.2 -18.66667 0
v -42.66667 -18.66667 0
v -44.8 -19.73333 0
v -45.33334 -19.73333 0
v -45.33334 -19.2 0
v -44.8 -19.2 0
v -45.33334 -19.73333 0
v -45.86667 -19.73333 0
v -45.86667 -19.2 0
v -45.33334 -19.2 0
v -45.86667 -19.73333 0
v -46.4 -19.73333 0
v -46.4 -19.2 0
v -45.86667 -19.2 0
v -44.8 -20.26667 0
v -45.33334 -20.26667 0
v -45.33334 -19.73333 0
v -44.8 -19.73333 0
v -45.33334 -20.26667 0
v -45.86667 -20.26667 0
v -45.86667 -19.73333 0
v -45.33334 -19.73333 0
v -45.86667 -20.26667 0
v -46.4 -20.26667 0
v -46.4 -19.73333 0
v -45.86667 -19.73333 0
v -44.8 -20.8 0
v -45.33334 -20.8 0
v -45.33334 -20.26667 0
v -44.8 -20.26667 0
v -45.33334 -20.8 0
v -45.86667 -20.8 0
v -45.86667 -20.26667 0
v -45.33334 -20.26667 0
v -45.86667 -20.8 0
v -46.4 -20.8 0
v -46.4 -20.26667 0
v -45.86667 -20.26667 0
v -56 -21.86667 0
v -56.53334 -21.86667 0
v -56.53334 -21.33333 0
v -56 -21.33333 0
v -56.53334 -21.86667 0
v -57.06667 -21.86667 0
v -57.06667 -21.33333 0
v -56.53334 -21.33333 0
v -57.06667 -21.86667 0
v -57.6 -21.86667 0
v -57.6 -21.33333 0
v -57.06667 -21.33333 0
v -56 -22.4 0
v -56.53334 -22.4 0
v -56.53334 -21.86667 0
v -56 -21.86667 0
v -56.53334 -22.4 0
v -57.06667 -22.4 0
v -57.06667 -21.86667 0
v -56.53334 -21.86667 0
v -57.06667 -22.4 0
v -57.6 -22.4 0
v -57.6 -21.86667 0
v -57.06667 -21.86667 0
v -56 -22.93333 0
v -56.53334 -22.93333 0
v -56.53334 -22.4 0
v -56 -22.4 0
v -56.53334 -22.93333 0
v -57.06667 -22.93333 0
v -57.06667 -22.4 0
v -56.53334 -22.4 0
v -57.06667 -22.93333 0
v -57.6 -22.93333 0
v -57.6 -22.4 0
v -57.06667 -22.4 0

# Texture cooridinates (Count = 108)
vt 0.2328125 0.8398058
vt 0.2578125 0.8398058
vt 0.2578125 0.8786408
vt 0.2328125 0.8786408
vt 0.2585937 0.8398058
vt 0.2835937 0.8398058
vt 0.2835937 0.8786408
vt 0.2585937 0.8786408
vt 0.284375 0.8398058
vt 0.309375 0.8398058
vt 0.309375 0.8786408
vt 0.284375 0.8786408
vt 0.2328125 0.7997573
vt 0.2578125 0.7997573
vt 0.2578125 0.8385922
vt 0.2328125 0.8385922
vt 0.2585937 0.7997573
vt 0.2835937 0.7997573
vt 0.2835937 0.8385922
vt 0.2585937 0.8385922
vt 0.284375 0.7997573
vt 0.309375 0.7997573
vt 0.309375 0.8385922
vt 0.284375 0.8385922
vt 0.2328125 0.7597088
vt 0.2578125 0.7597088
vt 0.2578125 0.7985437
vt 0.2328125 0.7985437
vt 0.2585937 0.7597088
vt 0.2835937 0.7597088
vt 0.2835937 0.7985437
vt 0.2585937 0.7985437
vt 0.284375 0.7597088
vt 0.309375 0.7597088
vt 0.309375 0.7985437
vt 0.284375 0.7985437
vt 0.2328125 0.9599515
vt 0.2578125 0.9599515
vt 0.2578125 0.9987864
vt 0.2328125 0.9987864
vt 0.2585937 0.9599515
vt 0.2835937 0.9599515
vt 0.2835937 0.9987864
vt 0.2585937 0.9987864
vt 0.284375 0.9599515
vt 0.309375 0.9599515
vt 0.309375 0.9987864
vt 0.284375 0.9987864
vt 0.3101563 0.9599515
vt 0.3351563 0.9599515
vt 0.3351563 0.9987864
vt 0.3101563 0.9987864
vt 0.3359375 0.9599515
vt 0.3609375 0.9599515
vt 0.3609375 0.9987864
vt 0.3359375 0.9987864
vt 0.3617187 0.9599515
vt 0.3867188 0.9599515
vt 0.3867188 0.9987864
vt 0.3617187 0.9987864
vt 0.2328125 0.9199029
vt 0.2578125 0.9199029
vt 0.2578125 0.9587379
vt 0.2328125 0.9587379
vt 0.2585937 0.9199029
vt 0.2835937 0.9199029
vt 0.2835937 0.9587379
vt 0.2585937 0.9587379
vt 0.284375 0.9199029
vt 0.309375 0.9199029
vt 0.309375 0.9587379
vt 0.284375 0.9587379
vt 0.3101563 0.9199029
vt 0.3351563 0.9199029
vt 0.3351563 0.9587379
vt 0.3101563 0.9587379
vt 0.3359375 0.9199029
vt 0.3609375 0.9199029
vt 0.3609375 0.9587379
vt 0.3359375 0.9587379
vt 0.3617187 0.9199029
vt 0.3867188 0.9199029
vt 0.3867188 0.9587379
vt 0.3617187 0.9587379
vt 0.2328125 0.8798544
vt 0.2578125 0.8798544
vt 0.2578125 0.9186893
vt 0.2328125 0.9186893
vt 0.2585937 0.8798544
vt 0.2835937 0.8798544
vt 0.2835937 0.9186893
vt 0.2585937 0.9186893
vt 0.284375 0.8798544
vt 0.309375 0.8798544
vt 0.309375 0.9186893
vt 0.284375 0.9186893
vt 0.3101563 0.8798544
vt 0.3351563 0.8798544
vt 0.3351563 0.9186893
vt 0.3101563 0.9186893
vt 0.3359375 0.8798544
vt 0.3609375 0.8798544
vt 0.3609375 0.9186893
vt 0.3359375 0.9186893
vt 0.3617187 0.8798544
vt 0.3867188 0.8798544
vt 0.3867188 0.9186893
vt 0.3617187 0.9186893

# Normal
vn 0 0 -1

# Mesh description
g map_mesh_0026

# Faces
f 1/1/1 2/2/1 3/3/1 4/4/1
f 5/5/1 6/6/1 7/7/1 8/8/1
f 9/9/1 10/10/1 11/11/1 12/12/1
f 13/13/1 14/14/1 15/15/1 16/16/1
f 17/17/1 18/18/1 19/19/1 20/20/1
f 21/21/1 22/22/1 23/23/1 24/24/1
f 25/25/1 26/26/1 27/27/1 28/28/1
f 29/29/1 30/30/1 31/31/1 32/32/1
f 33/33/1 34/34/1 35/35/1 36/36/1
f 37/1/1 38/2/1 39/3/1 40/4/1
f 41/5/1 42/6/1 43/7/1 44/8/1
f 45/9/1 46/10/1 47/11/1 48/12/1
f 49/13/1 50/14/1 51/15/1 52/16/1
f 53/17/1 54/18/1 55/19/1 56/20/1
f 57/21/1 58/22/1 59/23/1 60/24/1
f 61/25/1 62/26/1 63/27/1 64/28/1
f 65/29/1 66/30/1 67/31/1 68/32/1
f 69/33/1 70/34/1 71/35/1 72/36/1
f 73/1/1 74/2/1 75/3/1 76/4/1
f 77/5/1 78/6/1 79/7/1 80/8/1
f 81/9/1 82/10/1 83/11/1 84/12/1
f 85/13/1 86/14/1 87/15/1 88/16/1
f 89/17/1 90/18/1 91/19/1 92/20/1
f 93/21/1 94/22/1 95/23/1 96/24/1
f 97/25/1 98/26/1 99/27/1 100/28/1
f 101/29/1 102/30/1 103/31/1 104/32/1
f 105/33/1 106/34/1 107/35/1 108/36/1
f 109/1/1 110/2/1 111/3/1 112/4/1
f 113/5/1 114/6/1 115/7/1 116/8/1
f 117/9/1 118/10/1 119/11/1 120/12/1
f 121/13/1 122/14/1 123/15/1 124/16/1
f 125/17/1 126/18/1 127/19/1 128/20/1
f 129/21/1 130/22/1 131/23/1 132/24/1
f 133/25/1 134/26/1 135/27/1 136/28/1
f 137/29/1 138/30/1 139/31/1 140/32/1
f 141/33/1 142/34/1 143/35/1 144/36/1
f 145/37/1 146/38/1 147/39/1 148/40/1
f 149/41/1 150/42/1 151/43/1 152/44/1
f 153/45/1 154/46/1 155/47/1 156/48/1
f 157/1/1 158/2/1 159/3/1 160/4/1
f 161/5/1 162/6/1 163/7/1 164/8/1
f 165/9/1 166/10/1 167/11/1 168/12/1
f 169/37/1 170/38/1 171/39/1 172/40/1
f 173/41/1 174/42/1 175/43/1 176/44/1
f 177/45/1 178/46/1 179/47/1 180/48/1
f 181/49/1 182/50/1 183/51/1 184/52/1
f 185/53/1 186/54/1 187/55/1 188/56/1
f 189/57/1 190/58/1 191/59/1 192/60/1
f 193/1/1 194/2/1 195/3/1 196/4/1
f 197/5/1 198/6/1 199/7/1 200/8/1
f 201/9/1 202/10/1 203/11/1 204/12/1
f 205/1/1 206/2/1 207/3/1 208/4/1
f 209/5/1 210/6/1 211/7/1 212/8/1
f 213/9/1 214/10/1 215/11/1 216/12/1
f 217/61/1 218/62/1 219/63/1 220/64/1
f 221/65/1 222/66/1 223/67/1 224/68/1
f 225/69/1 226/70/1 227/71/1 228/72/1
f 229/13/1 230/14/1 231/15/1 232/16/1
f 233/17/1 234/18/1 235/19/1 236/20/1
f 237/21/1 238/22/1 239/23/1 240/24/1
f 241/61/1 242/62/1 243/63/1 244/64/1
f 245/65/1 246/66/1 247/67/1 248/68/1
f 249/69/1 250/70/1 251/71/1 252/72/1
f 253/73/1 254/74/1 255/75/1 256/76/1
f 257/77/1 258/78/1 259/79/1 260/80/1
f 261/81/1 262/82/1 263/83/1 264/84/1
f 265/13/1 266/14/1 267/15/1 268/16/1
f 269/17/1 270/18/1 271/19/1 272/20/1
f 273/21/1 274/22/1 275/23/1 276/24/1
f 277/13/1 278/14/1 279/15/1 280/16/1
f 281/17/1 282/18/1 283/19/1 284/20/1
f 285/21/1 286/22/1 287/23/1 288/24/1
f 289/85/1 290/86/1 291/87/1 292/88/1
f 293/89/1 294/90/1 295/91/1 296/92/1
f 297/93/1 298/94/1 299/95/1 300/96/1
f 301/25/1 302/26/1 303/27/1 304/28/1
f 305/29/1 306/30/1 307/31/1 308/32/1
f 309/33/1 310/34/1 311/35/1 312/36/1
f 313/85/1 314/86/1 315/87/1 316/88/1
f 317/89/1 318/90/1 319/91/1 320/92/1
f 321/93/1 322/94/1 323/95/1 324/96/1
f 325/97/1 326/98/1 327/99/1 328/100/1
f 329/101/1 330/102/1 331/103/1 332/104/1
f 333/105/1 334/106/1 335/107/1 336/108/1
f 337/25/1 338/26/1 339/27/1 340/28/1
f 341/29/1 342/30/1 343/31/1 344/32/1
f 345/33/1 346/34/1 347/35/1 348/36/1
f 349/25/1 350/26/1 351/27/1 352/28/1
f 353/29/1 354/30/1 355/31/1 356/32/1
f 357/33/1 358/34/1 359/35/1 360/36/1
f 361/49/1 362/50/1 363/51/1 364/52/1
f 365/53/1 366/54/1 367/55/1 368/56/1
f 369/57/1 370/58/1 371/59/1 372/60/1
f 373/73/1 374/74/1 375/75/1 376/76/1
f 377/77/1 378/78/1 379/79/1 380/80/1
f 381/81/1 382/82/1 383/83/1 384/84/1
f 385/97/1 386/98/1 387/99/1 388/100/1
f 389/101/1 390/102/1 391/103/1 392/104/1
f 393/105/1 394/106/1 395/107/1 396/108/1
f 397/49/1 398/50/1 399/51/1 400/52/1
f 401/53/1 402/54/1 403/55/1 404/56/1
f 405/57/1 406/58/1 407/59/1 408/60/1
f 409/73/1 410/74/1 411/75/1 412/76/1
f 413/77/1 414/78/1 415/79/1 416/80/1
f 417/81/1 418/82/1 419/83/1 420/84/1
f 421/97/1 422/98/1 423/99/1 424/100/1
f 425/101/1 426/102/1 427/103/1 428/104/1
f 429/105/1 430/106/1 431/107/1 432/108/1
f 433/49/1 434/50/1 435/51/1 436/52/1
f 437/53/1 438/54/1 439/55/1 440/56/1
f 441/57/1 442/58/1 443/59/1 444/60/1
f 445/73/1 446/74/1 447/75/1 448/76/1
f 449/77/1 450/78/1 451/79/1 452/80/1
f 453/81/1 454/82/1 455/83/1 456/84/1
f 457/97/1 458/98/1 459/99/1 460/100/1
f 461/101/1 462/102/1 463/103/1 464/104/1
f 465/105/1 466/106/1 467/107/1 468/108/1
f 469/1/1 470/2/1 471/3/1 472/4/1
f 473/5/1 474/6/1 475/7/1 476/8/1
f 477/9/1 478/10/1 479/11/1 480/12/1
f 481/13/1 482/14/1 483/15/1 484/16/1
f 485/17/1 486/18/1 487/19/1 488/20/1
f 489/21/1 490/22/1 491/23/1 492/24/1
f 493/25/1 494/26/1 495/27/1 496/28/1
f 497/29/1 498/30/1 499/31/1 500/32/1
f 501/33/1 502/34/1 503/35/1 504/36/1

